<?xml version="1.0" encoding="utf-8" standalone="no"?>
<!DOCTYPE svg PUBLIC "-//W3C//DTD SVG 1.1//EN"
  "http://www.w3.org/Graphics/SVG/1.1/DTD/svg11.dtd">
<svg xmlns:xlink="http://www.w3.org/1999/xlink" width="460.8pt" height="345.6pt" viewBox="0 0 460.8 345.6" xmlns="http://www.w3.org/2000/svg" version="1.1">
 <metadata>
  <rdf:RDF xmlns:dc="http://purl.org/dc/elements/1.1/" xmlns:cc="http://creativecommons.org/ns#" xmlns:rdf="http://www.w3.org/1999/02/22-rdf-syntax-ns#">
   <cc:Work>
    <dc:type rdf:resource="http://purl.org/dc/dcmitype/StillImage"/>
    <dc:date>2024-12-18T01:22:37.428093</dc:date>
    <dc:format>image/svg+xml</dc:format>
    <dc:creator>
     <cc:Agent>
      <dc:title>Matplotlib v3.7.5, https://matplotlib.org/</dc:title>
     </cc:Agent>
    </dc:creator>
   </cc:Work>
  </rdf:RDF>
 </metadata>
 <defs>
  <style type="text/css">*{stroke-linejoin: round; stroke-linecap: butt}</style>
 </defs>
 <g id="figure_1">
  <g id="patch_1">
   <path d="M 0 345.6 
L 460.8 345.6 
L 460.8 0 
L 0 0 
z
" style="fill: #ffffff"/>
  </g>
  <g id="axes_1">
   <g id="patch_2">
    <path d="M 57.6 307.584 
L 414.72 307.584 
L 414.72 41.472 
L 57.6 41.472 
z
" style="fill: #ffffff"/>
   </g>
   <g id="matplotlib.axis_1">
    <g id="xtick_1">
     <g id="line2d_1">
      <defs>
       <path id="m02cb9463b8" d="M 0 0 
L 0 3.5 
" style="stroke: #000000; stroke-width: 0.8"/>
      </defs>
      <g>
       <use xlink:href="#m02cb9463b8" x="73.507422" y="307.584" style="stroke: #000000; stroke-width: 0.8"/>
      </g>
     </g>
     <g id="text_1">
      <!-- 0 -->
      <g transform="translate(70.326172 322.182437) scale(0.1 -0.1)">
       <defs>
        <path id="DejaVuSans-30" d="M 2034 4250 
Q 1547 4250 1301 3770 
Q 1056 3291 1056 2328 
Q 1056 1369 1301 889 
Q 1547 409 2034 409 
Q 2525 409 2770 889 
Q 3016 1369 3016 2328 
Q 3016 3291 2770 3770 
Q 2525 4250 2034 4250 
z
M 2034 4750 
Q 2819 4750 3233 4129 
Q 3647 3509 3647 2328 
Q 3647 1150 3233 529 
Q 2819 -91 2034 -91 
Q 1250 -91 836 529 
Q 422 1150 422 2328 
Q 422 3509 836 4129 
Q 1250 4750 2034 4750 
z
" transform="scale(0.015625)"/>
       </defs>
       <use xlink:href="#DejaVuSans-30"/>
      </g>
     </g>
    </g>
    <g id="xtick_2">
     <g id="line2d_2">
      <g>
       <use xlink:href="#m02cb9463b8" x="138.568453" y="307.584" style="stroke: #000000; stroke-width: 0.8"/>
      </g>
     </g>
     <g id="text_2">
      <!-- 20000 -->
      <g transform="translate(122.662203 322.182437) scale(0.1 -0.1)">
       <defs>
        <path id="DejaVuSans-32" d="M 1228 531 
L 3431 531 
L 3431 0 
L 469 0 
L 469 531 
Q 828 903 1448 1529 
Q 2069 2156 2228 2338 
Q 2531 2678 2651 2914 
Q 2772 3150 2772 3378 
Q 2772 3750 2511 3984 
Q 2250 4219 1831 4219 
Q 1534 4219 1204 4116 
Q 875 4013 500 3803 
L 500 4441 
Q 881 4594 1212 4672 
Q 1544 4750 1819 4750 
Q 2544 4750 2975 4387 
Q 3406 4025 3406 3419 
Q 3406 3131 3298 2873 
Q 3191 2616 2906 2266 
Q 2828 2175 2409 1742 
Q 1991 1309 1228 531 
z
" transform="scale(0.015625)"/>
       </defs>
       <use xlink:href="#DejaVuSans-32"/>
       <use xlink:href="#DejaVuSans-30" x="63.623047"/>
       <use xlink:href="#DejaVuSans-30" x="127.246094"/>
       <use xlink:href="#DejaVuSans-30" x="190.869141"/>
       <use xlink:href="#DejaVuSans-30" x="254.492188"/>
      </g>
     </g>
    </g>
    <g id="xtick_3">
     <g id="line2d_3">
      <g>
       <use xlink:href="#m02cb9463b8" x="203.629484" y="307.584" style="stroke: #000000; stroke-width: 0.8"/>
      </g>
     </g>
     <g id="text_3">
      <!-- 40000 -->
      <g transform="translate(187.723234 322.182437) scale(0.1 -0.1)">
       <defs>
        <path id="DejaVuSans-34" d="M 2419 4116 
L 825 1625 
L 2419 1625 
L 2419 4116 
z
M 2253 4666 
L 3047 4666 
L 3047 1625 
L 3713 1625 
L 3713 1100 
L 3047 1100 
L 3047 0 
L 2419 0 
L 2419 1100 
L 313 1100 
L 313 1709 
L 2253 4666 
z
" transform="scale(0.015625)"/>
       </defs>
       <use xlink:href="#DejaVuSans-34"/>
       <use xlink:href="#DejaVuSans-30" x="63.623047"/>
       <use xlink:href="#DejaVuSans-30" x="127.246094"/>
       <use xlink:href="#DejaVuSans-30" x="190.869141"/>
       <use xlink:href="#DejaVuSans-30" x="254.492188"/>
      </g>
     </g>
    </g>
    <g id="xtick_4">
     <g id="line2d_4">
      <g>
       <use xlink:href="#m02cb9463b8" x="268.690516" y="307.584" style="stroke: #000000; stroke-width: 0.8"/>
      </g>
     </g>
     <g id="text_4">
      <!-- 60000 -->
      <g transform="translate(252.784266 322.182437) scale(0.1 -0.1)">
       <defs>
        <path id="DejaVuSans-36" d="M 2113 2584 
Q 1688 2584 1439 2293 
Q 1191 2003 1191 1497 
Q 1191 994 1439 701 
Q 1688 409 2113 409 
Q 2538 409 2786 701 
Q 3034 994 3034 1497 
Q 3034 2003 2786 2293 
Q 2538 2584 2113 2584 
z
M 3366 4563 
L 3366 3988 
Q 3128 4100 2886 4159 
Q 2644 4219 2406 4219 
Q 1781 4219 1451 3797 
Q 1122 3375 1075 2522 
Q 1259 2794 1537 2939 
Q 1816 3084 2150 3084 
Q 2853 3084 3261 2657 
Q 3669 2231 3669 1497 
Q 3669 778 3244 343 
Q 2819 -91 2113 -91 
Q 1303 -91 875 529 
Q 447 1150 447 2328 
Q 447 3434 972 4092 
Q 1497 4750 2381 4750 
Q 2619 4750 2861 4703 
Q 3103 4656 3366 4563 
z
" transform="scale(0.015625)"/>
       </defs>
       <use xlink:href="#DejaVuSans-36"/>
       <use xlink:href="#DejaVuSans-30" x="63.623047"/>
       <use xlink:href="#DejaVuSans-30" x="127.246094"/>
       <use xlink:href="#DejaVuSans-30" x="190.869141"/>
       <use xlink:href="#DejaVuSans-30" x="254.492188"/>
      </g>
     </g>
    </g>
    <g id="xtick_5">
     <g id="line2d_5">
      <g>
       <use xlink:href="#m02cb9463b8" x="333.751547" y="307.584" style="stroke: #000000; stroke-width: 0.8"/>
      </g>
     </g>
     <g id="text_5">
      <!-- 80000 -->
      <g transform="translate(317.845297 322.182437) scale(0.1 -0.1)">
       <defs>
        <path id="DejaVuSans-38" d="M 2034 2216 
Q 1584 2216 1326 1975 
Q 1069 1734 1069 1313 
Q 1069 891 1326 650 
Q 1584 409 2034 409 
Q 2484 409 2743 651 
Q 3003 894 3003 1313 
Q 3003 1734 2745 1975 
Q 2488 2216 2034 2216 
z
M 1403 2484 
Q 997 2584 770 2862 
Q 544 3141 544 3541 
Q 544 4100 942 4425 
Q 1341 4750 2034 4750 
Q 2731 4750 3128 4425 
Q 3525 4100 3525 3541 
Q 3525 3141 3298 2862 
Q 3072 2584 2669 2484 
Q 3125 2378 3379 2068 
Q 3634 1759 3634 1313 
Q 3634 634 3220 271 
Q 2806 -91 2034 -91 
Q 1263 -91 848 271 
Q 434 634 434 1313 
Q 434 1759 690 2068 
Q 947 2378 1403 2484 
z
M 1172 3481 
Q 1172 3119 1398 2916 
Q 1625 2713 2034 2713 
Q 2441 2713 2670 2916 
Q 2900 3119 2900 3481 
Q 2900 3844 2670 4047 
Q 2441 4250 2034 4250 
Q 1625 4250 1398 4047 
Q 1172 3844 1172 3481 
z
" transform="scale(0.015625)"/>
       </defs>
       <use xlink:href="#DejaVuSans-38"/>
       <use xlink:href="#DejaVuSans-30" x="63.623047"/>
       <use xlink:href="#DejaVuSans-30" x="127.246094"/>
       <use xlink:href="#DejaVuSans-30" x="190.869141"/>
       <use xlink:href="#DejaVuSans-30" x="254.492188"/>
      </g>
     </g>
    </g>
    <g id="xtick_6">
     <g id="line2d_6">
      <g>
       <use xlink:href="#m02cb9463b8" x="398.812578" y="307.584" style="stroke: #000000; stroke-width: 0.8"/>
      </g>
     </g>
     <g id="text_6">
      <!-- 100000 -->
      <g transform="translate(379.725078 322.182437) scale(0.1 -0.1)">
       <defs>
        <path id="DejaVuSans-31" d="M 794 531 
L 1825 531 
L 1825 4091 
L 703 3866 
L 703 4441 
L 1819 4666 
L 2450 4666 
L 2450 531 
L 3481 531 
L 3481 0 
L 794 0 
L 794 531 
z
" transform="scale(0.015625)"/>
       </defs>
       <use xlink:href="#DejaVuSans-31"/>
       <use xlink:href="#DejaVuSans-30" x="63.623047"/>
       <use xlink:href="#DejaVuSans-30" x="127.246094"/>
       <use xlink:href="#DejaVuSans-30" x="190.869141"/>
       <use xlink:href="#DejaVuSans-30" x="254.492188"/>
       <use xlink:href="#DejaVuSans-30" x="318.115234"/>
      </g>
     </g>
    </g>
    <g id="text_7">
     <!-- Nombre de points -->
     <g transform="translate(191.510781 335.860562) scale(0.1 -0.1)">
      <defs>
       <path id="DejaVuSans-4e" d="M 628 4666 
L 1478 4666 
L 3547 763 
L 3547 4666 
L 4159 4666 
L 4159 0 
L 3309 0 
L 1241 3903 
L 1241 0 
L 628 0 
L 628 4666 
z
" transform="scale(0.015625)"/>
       <path id="DejaVuSans-6f" d="M 1959 3097 
Q 1497 3097 1228 2736 
Q 959 2375 959 1747 
Q 959 1119 1226 758 
Q 1494 397 1959 397 
Q 2419 397 2687 759 
Q 2956 1122 2956 1747 
Q 2956 2369 2687 2733 
Q 2419 3097 1959 3097 
z
M 1959 3584 
Q 2709 3584 3137 3096 
Q 3566 2609 3566 1747 
Q 3566 888 3137 398 
Q 2709 -91 1959 -91 
Q 1206 -91 779 398 
Q 353 888 353 1747 
Q 353 2609 779 3096 
Q 1206 3584 1959 3584 
z
" transform="scale(0.015625)"/>
       <path id="DejaVuSans-6d" d="M 3328 2828 
Q 3544 3216 3844 3400 
Q 4144 3584 4550 3584 
Q 5097 3584 5394 3201 
Q 5691 2819 5691 2113 
L 5691 0 
L 5113 0 
L 5113 2094 
Q 5113 2597 4934 2840 
Q 4756 3084 4391 3084 
Q 3944 3084 3684 2787 
Q 3425 2491 3425 1978 
L 3425 0 
L 2847 0 
L 2847 2094 
Q 2847 2600 2669 2842 
Q 2491 3084 2119 3084 
Q 1678 3084 1418 2786 
Q 1159 2488 1159 1978 
L 1159 0 
L 581 0 
L 581 3500 
L 1159 3500 
L 1159 2956 
Q 1356 3278 1631 3431 
Q 1906 3584 2284 3584 
Q 2666 3584 2933 3390 
Q 3200 3197 3328 2828 
z
" transform="scale(0.015625)"/>
       <path id="DejaVuSans-62" d="M 3116 1747 
Q 3116 2381 2855 2742 
Q 2594 3103 2138 3103 
Q 1681 3103 1420 2742 
Q 1159 2381 1159 1747 
Q 1159 1113 1420 752 
Q 1681 391 2138 391 
Q 2594 391 2855 752 
Q 3116 1113 3116 1747 
z
M 1159 2969 
Q 1341 3281 1617 3432 
Q 1894 3584 2278 3584 
Q 2916 3584 3314 3078 
Q 3713 2572 3713 1747 
Q 3713 922 3314 415 
Q 2916 -91 2278 -91 
Q 1894 -91 1617 61 
Q 1341 213 1159 525 
L 1159 0 
L 581 0 
L 581 4863 
L 1159 4863 
L 1159 2969 
z
" transform="scale(0.015625)"/>
       <path id="DejaVuSans-72" d="M 2631 2963 
Q 2534 3019 2420 3045 
Q 2306 3072 2169 3072 
Q 1681 3072 1420 2755 
Q 1159 2438 1159 1844 
L 1159 0 
L 581 0 
L 581 3500 
L 1159 3500 
L 1159 2956 
Q 1341 3275 1631 3429 
Q 1922 3584 2338 3584 
Q 2397 3584 2469 3576 
Q 2541 3569 2628 3553 
L 2631 2963 
z
" transform="scale(0.015625)"/>
       <path id="DejaVuSans-65" d="M 3597 1894 
L 3597 1613 
L 953 1613 
Q 991 1019 1311 708 
Q 1631 397 2203 397 
Q 2534 397 2845 478 
Q 3156 559 3463 722 
L 3463 178 
Q 3153 47 2828 -22 
Q 2503 -91 2169 -91 
Q 1331 -91 842 396 
Q 353 884 353 1716 
Q 353 2575 817 3079 
Q 1281 3584 2069 3584 
Q 2775 3584 3186 3129 
Q 3597 2675 3597 1894 
z
M 3022 2063 
Q 3016 2534 2758 2815 
Q 2500 3097 2075 3097 
Q 1594 3097 1305 2825 
Q 1016 2553 972 2059 
L 3022 2063 
z
" transform="scale(0.015625)"/>
       <path id="DejaVuSans-20" transform="scale(0.015625)"/>
       <path id="DejaVuSans-64" d="M 2906 2969 
L 2906 4863 
L 3481 4863 
L 3481 0 
L 2906 0 
L 2906 525 
Q 2725 213 2448 61 
Q 2172 -91 1784 -91 
Q 1150 -91 751 415 
Q 353 922 353 1747 
Q 353 2572 751 3078 
Q 1150 3584 1784 3584 
Q 2172 3584 2448 3432 
Q 2725 3281 2906 2969 
z
M 947 1747 
Q 947 1113 1208 752 
Q 1469 391 1925 391 
Q 2381 391 2643 752 
Q 2906 1113 2906 1747 
Q 2906 2381 2643 2742 
Q 2381 3103 1925 3103 
Q 1469 3103 1208 2742 
Q 947 2381 947 1747 
z
" transform="scale(0.015625)"/>
       <path id="DejaVuSans-70" d="M 1159 525 
L 1159 -1331 
L 581 -1331 
L 581 3500 
L 1159 3500 
L 1159 2969 
Q 1341 3281 1617 3432 
Q 1894 3584 2278 3584 
Q 2916 3584 3314 3078 
Q 3713 2572 3713 1747 
Q 3713 922 3314 415 
Q 2916 -91 2278 -91 
Q 1894 -91 1617 61 
Q 1341 213 1159 525 
z
M 3116 1747 
Q 3116 2381 2855 2742 
Q 2594 3103 2138 3103 
Q 1681 3103 1420 2742 
Q 1159 2381 1159 1747 
Q 1159 1113 1420 752 
Q 1681 391 2138 391 
Q 2594 391 2855 752 
Q 3116 1113 3116 1747 
z
" transform="scale(0.015625)"/>
       <path id="DejaVuSans-69" d="M 603 3500 
L 1178 3500 
L 1178 0 
L 603 0 
L 603 3500 
z
M 603 4863 
L 1178 4863 
L 1178 4134 
L 603 4134 
L 603 4863 
z
" transform="scale(0.015625)"/>
       <path id="DejaVuSans-6e" d="M 3513 2113 
L 3513 0 
L 2938 0 
L 2938 2094 
Q 2938 2591 2744 2837 
Q 2550 3084 2163 3084 
Q 1697 3084 1428 2787 
Q 1159 2491 1159 1978 
L 1159 0 
L 581 0 
L 581 3500 
L 1159 3500 
L 1159 2956 
Q 1366 3272 1645 3428 
Q 1925 3584 2291 3584 
Q 2894 3584 3203 3211 
Q 3513 2838 3513 2113 
z
" transform="scale(0.015625)"/>
       <path id="DejaVuSans-74" d="M 1172 4494 
L 1172 3500 
L 2356 3500 
L 2356 3053 
L 1172 3053 
L 1172 1153 
Q 1172 725 1289 603 
Q 1406 481 1766 481 
L 2356 481 
L 2356 0 
L 1766 0 
Q 1100 0 847 248 
Q 594 497 594 1153 
L 594 3053 
L 172 3053 
L 172 3500 
L 594 3500 
L 594 4494 
L 1172 4494 
z
" transform="scale(0.015625)"/>
       <path id="DejaVuSans-73" d="M 2834 3397 
L 2834 2853 
Q 2591 2978 2328 3040 
Q 2066 3103 1784 3103 
Q 1356 3103 1142 2972 
Q 928 2841 928 2578 
Q 928 2378 1081 2264 
Q 1234 2150 1697 2047 
L 1894 2003 
Q 2506 1872 2764 1633 
Q 3022 1394 3022 966 
Q 3022 478 2636 193 
Q 2250 -91 1575 -91 
Q 1294 -91 989 -36 
Q 684 19 347 128 
L 347 722 
Q 666 556 975 473 
Q 1284 391 1588 391 
Q 1994 391 2212 530 
Q 2431 669 2431 922 
Q 2431 1156 2273 1281 
Q 2116 1406 1581 1522 
L 1381 1569 
Q 847 1681 609 1914 
Q 372 2147 372 2553 
Q 372 3047 722 3315 
Q 1072 3584 1716 3584 
Q 2034 3584 2315 3537 
Q 2597 3491 2834 3397 
z
" transform="scale(0.015625)"/>
      </defs>
      <use xlink:href="#DejaVuSans-4e"/>
      <use xlink:href="#DejaVuSans-6f" x="74.804688"/>
      <use xlink:href="#DejaVuSans-6d" x="135.986328"/>
      <use xlink:href="#DejaVuSans-62" x="233.398438"/>
      <use xlink:href="#DejaVuSans-72" x="296.875"/>
      <use xlink:href="#DejaVuSans-65" x="335.738281"/>
      <use xlink:href="#DejaVuSans-20" x="397.261719"/>
      <use xlink:href="#DejaVuSans-64" x="429.048828"/>
      <use xlink:href="#DejaVuSans-65" x="492.525391"/>
      <use xlink:href="#DejaVuSans-20" x="554.048828"/>
      <use xlink:href="#DejaVuSans-70" x="585.835938"/>
      <use xlink:href="#DejaVuSans-6f" x="649.3125"/>
      <use xlink:href="#DejaVuSans-69" x="710.494141"/>
      <use xlink:href="#DejaVuSans-6e" x="738.277344"/>
      <use xlink:href="#DejaVuSans-74" x="801.65625"/>
      <use xlink:href="#DejaVuSans-73" x="840.865234"/>
     </g>
    </g>
   </g>
   <g id="matplotlib.axis_2">
    <g id="ytick_1">
     <g id="line2d_7">
      <defs>
       <path id="m003d788cb3" d="M 0 0 
L -3.5 0 
" style="stroke: #000000; stroke-width: 0.8"/>
      </defs>
      <g>
       <use xlink:href="#m003d788cb3" x="57.6" y="295.909769" style="stroke: #000000; stroke-width: 0.8"/>
      </g>
     </g>
     <g id="text_8">
      <!-- 0 -->
      <g transform="translate(44.2375 299.708987) scale(0.1 -0.1)">
       <use xlink:href="#DejaVuSans-30"/>
      </g>
     </g>
    </g>
    <g id="ytick_2">
     <g id="line2d_8">
      <g>
       <use xlink:href="#m003d788cb3" x="57.6" y="263.466028" style="stroke: #000000; stroke-width: 0.8"/>
      </g>
     </g>
     <g id="text_9">
      <!-- 500 -->
      <g transform="translate(31.5125 267.265246) scale(0.1 -0.1)">
       <defs>
        <path id="DejaVuSans-35" d="M 691 4666 
L 3169 4666 
L 3169 4134 
L 1269 4134 
L 1269 2991 
Q 1406 3038 1543 3061 
Q 1681 3084 1819 3084 
Q 2600 3084 3056 2656 
Q 3513 2228 3513 1497 
Q 3513 744 3044 326 
Q 2575 -91 1722 -91 
Q 1428 -91 1123 -41 
Q 819 9 494 109 
L 494 744 
Q 775 591 1075 516 
Q 1375 441 1709 441 
Q 2250 441 2565 725 
Q 2881 1009 2881 1497 
Q 2881 1984 2565 2268 
Q 2250 2553 1709 2553 
Q 1456 2553 1204 2497 
Q 953 2441 691 2322 
L 691 4666 
z
" transform="scale(0.015625)"/>
       </defs>
       <use xlink:href="#DejaVuSans-35"/>
       <use xlink:href="#DejaVuSans-30" x="63.623047"/>
       <use xlink:href="#DejaVuSans-30" x="127.246094"/>
      </g>
     </g>
    </g>
    <g id="ytick_3">
     <g id="line2d_9">
      <g>
       <use xlink:href="#m003d788cb3" x="57.6" y="231.022286" style="stroke: #000000; stroke-width: 0.8"/>
      </g>
     </g>
     <g id="text_10">
      <!-- 1000 -->
      <g transform="translate(25.15 234.821505) scale(0.1 -0.1)">
       <use xlink:href="#DejaVuSans-31"/>
       <use xlink:href="#DejaVuSans-30" x="63.623047"/>
       <use xlink:href="#DejaVuSans-30" x="127.246094"/>
       <use xlink:href="#DejaVuSans-30" x="190.869141"/>
      </g>
     </g>
    </g>
    <g id="ytick_4">
     <g id="line2d_10">
      <g>
       <use xlink:href="#m003d788cb3" x="57.6" y="198.578545" style="stroke: #000000; stroke-width: 0.8"/>
      </g>
     </g>
     <g id="text_11">
      <!-- 1500 -->
      <g transform="translate(25.15 202.377764) scale(0.1 -0.1)">
       <use xlink:href="#DejaVuSans-31"/>
       <use xlink:href="#DejaVuSans-35" x="63.623047"/>
       <use xlink:href="#DejaVuSans-30" x="127.246094"/>
       <use xlink:href="#DejaVuSans-30" x="190.869141"/>
      </g>
     </g>
    </g>
    <g id="ytick_5">
     <g id="line2d_11">
      <g>
       <use xlink:href="#m003d788cb3" x="57.6" y="166.134804" style="stroke: #000000; stroke-width: 0.8"/>
      </g>
     </g>
     <g id="text_12">
      <!-- 2000 -->
      <g transform="translate(25.15 169.934023) scale(0.1 -0.1)">
       <use xlink:href="#DejaVuSans-32"/>
       <use xlink:href="#DejaVuSans-30" x="63.623047"/>
       <use xlink:href="#DejaVuSans-30" x="127.246094"/>
       <use xlink:href="#DejaVuSans-30" x="190.869141"/>
      </g>
     </g>
    </g>
    <g id="ytick_6">
     <g id="line2d_12">
      <g>
       <use xlink:href="#m003d788cb3" x="57.6" y="133.691063" style="stroke: #000000; stroke-width: 0.8"/>
      </g>
     </g>
     <g id="text_13">
      <!-- 2500 -->
      <g transform="translate(25.15 137.490282) scale(0.1 -0.1)">
       <use xlink:href="#DejaVuSans-32"/>
       <use xlink:href="#DejaVuSans-35" x="63.623047"/>
       <use xlink:href="#DejaVuSans-30" x="127.246094"/>
       <use xlink:href="#DejaVuSans-30" x="190.869141"/>
      </g>
     </g>
    </g>
    <g id="ytick_7">
     <g id="line2d_13">
      <g>
       <use xlink:href="#m003d788cb3" x="57.6" y="101.247322" style="stroke: #000000; stroke-width: 0.8"/>
      </g>
     </g>
     <g id="text_14">
      <!-- 3000 -->
      <g transform="translate(25.15 105.046541) scale(0.1 -0.1)">
       <defs>
        <path id="DejaVuSans-33" d="M 2597 2516 
Q 3050 2419 3304 2112 
Q 3559 1806 3559 1356 
Q 3559 666 3084 287 
Q 2609 -91 1734 -91 
Q 1441 -91 1130 -33 
Q 819 25 488 141 
L 488 750 
Q 750 597 1062 519 
Q 1375 441 1716 441 
Q 2309 441 2620 675 
Q 2931 909 2931 1356 
Q 2931 1769 2642 2001 
Q 2353 2234 1838 2234 
L 1294 2234 
L 1294 2753 
L 1863 2753 
Q 2328 2753 2575 2939 
Q 2822 3125 2822 3475 
Q 2822 3834 2567 4026 
Q 2313 4219 1838 4219 
Q 1578 4219 1281 4162 
Q 984 4106 628 3988 
L 628 4550 
Q 988 4650 1302 4700 
Q 1616 4750 1894 4750 
Q 2613 4750 3031 4423 
Q 3450 4097 3450 3541 
Q 3450 3153 3228 2886 
Q 3006 2619 2597 2516 
z
" transform="scale(0.015625)"/>
       </defs>
       <use xlink:href="#DejaVuSans-33"/>
       <use xlink:href="#DejaVuSans-30" x="63.623047"/>
       <use xlink:href="#DejaVuSans-30" x="127.246094"/>
       <use xlink:href="#DejaVuSans-30" x="190.869141"/>
      </g>
     </g>
    </g>
    <g id="ytick_8">
     <g id="line2d_14">
      <g>
       <use xlink:href="#m003d788cb3" x="57.6" y="68.803581" style="stroke: #000000; stroke-width: 0.8"/>
      </g>
     </g>
     <g id="text_15">
      <!-- 3500 -->
      <g transform="translate(25.15 72.6028) scale(0.1 -0.1)">
       <use xlink:href="#DejaVuSans-33"/>
       <use xlink:href="#DejaVuSans-35" x="63.623047"/>
       <use xlink:href="#DejaVuSans-30" x="127.246094"/>
       <use xlink:href="#DejaVuSans-30" x="190.869141"/>
      </g>
     </g>
    </g>
    <g id="text_16">
     <!-- Temps moyen (nanosecondes) -->
     <g transform="translate(19.070312 250.64675) rotate(-90) scale(0.1 -0.1)">
      <defs>
       <path id="DejaVuSans-54" d="M -19 4666 
L 3928 4666 
L 3928 4134 
L 2272 4134 
L 2272 0 
L 1638 0 
L 1638 4134 
L -19 4134 
L -19 4666 
z
" transform="scale(0.015625)"/>
       <path id="DejaVuSans-79" d="M 2059 -325 
Q 1816 -950 1584 -1140 
Q 1353 -1331 966 -1331 
L 506 -1331 
L 506 -850 
L 844 -850 
Q 1081 -850 1212 -737 
Q 1344 -625 1503 -206 
L 1606 56 
L 191 3500 
L 800 3500 
L 1894 763 
L 2988 3500 
L 3597 3500 
L 2059 -325 
z
" transform="scale(0.015625)"/>
       <path id="DejaVuSans-28" d="M 1984 4856 
Q 1566 4138 1362 3434 
Q 1159 2731 1159 2009 
Q 1159 1288 1364 580 
Q 1569 -128 1984 -844 
L 1484 -844 
Q 1016 -109 783 600 
Q 550 1309 550 2009 
Q 550 2706 781 3412 
Q 1013 4119 1484 4856 
L 1984 4856 
z
" transform="scale(0.015625)"/>
       <path id="DejaVuSans-61" d="M 2194 1759 
Q 1497 1759 1228 1600 
Q 959 1441 959 1056 
Q 959 750 1161 570 
Q 1363 391 1709 391 
Q 2188 391 2477 730 
Q 2766 1069 2766 1631 
L 2766 1759 
L 2194 1759 
z
M 3341 1997 
L 3341 0 
L 2766 0 
L 2766 531 
Q 2569 213 2275 61 
Q 1981 -91 1556 -91 
Q 1019 -91 701 211 
Q 384 513 384 1019 
Q 384 1609 779 1909 
Q 1175 2209 1959 2209 
L 2766 2209 
L 2766 2266 
Q 2766 2663 2505 2880 
Q 2244 3097 1772 3097 
Q 1472 3097 1187 3025 
Q 903 2953 641 2809 
L 641 3341 
Q 956 3463 1253 3523 
Q 1550 3584 1831 3584 
Q 2591 3584 2966 3190 
Q 3341 2797 3341 1997 
z
" transform="scale(0.015625)"/>
       <path id="DejaVuSans-63" d="M 3122 3366 
L 3122 2828 
Q 2878 2963 2633 3030 
Q 2388 3097 2138 3097 
Q 1578 3097 1268 2742 
Q 959 2388 959 1747 
Q 959 1106 1268 751 
Q 1578 397 2138 397 
Q 2388 397 2633 464 
Q 2878 531 3122 666 
L 3122 134 
Q 2881 22 2623 -34 
Q 2366 -91 2075 -91 
Q 1284 -91 818 406 
Q 353 903 353 1747 
Q 353 2603 823 3093 
Q 1294 3584 2113 3584 
Q 2378 3584 2631 3529 
Q 2884 3475 3122 3366 
z
" transform="scale(0.015625)"/>
       <path id="DejaVuSans-29" d="M 513 4856 
L 1013 4856 
Q 1481 4119 1714 3412 
Q 1947 2706 1947 2009 
Q 1947 1309 1714 600 
Q 1481 -109 1013 -844 
L 513 -844 
Q 928 -128 1133 580 
Q 1338 1288 1338 2009 
Q 1338 2731 1133 3434 
Q 928 4138 513 4856 
z
" transform="scale(0.015625)"/>
      </defs>
      <use xlink:href="#DejaVuSans-54"/>
      <use xlink:href="#DejaVuSans-65" x="44.083984"/>
      <use xlink:href="#DejaVuSans-6d" x="105.607422"/>
      <use xlink:href="#DejaVuSans-70" x="203.019531"/>
      <use xlink:href="#DejaVuSans-73" x="266.496094"/>
      <use xlink:href="#DejaVuSans-20" x="318.595703"/>
      <use xlink:href="#DejaVuSans-6d" x="350.382812"/>
      <use xlink:href="#DejaVuSans-6f" x="447.794922"/>
      <use xlink:href="#DejaVuSans-79" x="508.976562"/>
      <use xlink:href="#DejaVuSans-65" x="568.15625"/>
      <use xlink:href="#DejaVuSans-6e" x="629.679688"/>
      <use xlink:href="#DejaVuSans-20" x="693.058594"/>
      <use xlink:href="#DejaVuSans-28" x="724.845703"/>
      <use xlink:href="#DejaVuSans-6e" x="763.859375"/>
      <use xlink:href="#DejaVuSans-61" x="827.238281"/>
      <use xlink:href="#DejaVuSans-6e" x="888.517578"/>
      <use xlink:href="#DejaVuSans-6f" x="951.896484"/>
      <use xlink:href="#DejaVuSans-73" x="1013.078125"/>
      <use xlink:href="#DejaVuSans-65" x="1065.177734"/>
      <use xlink:href="#DejaVuSans-63" x="1126.701172"/>
      <use xlink:href="#DejaVuSans-6f" x="1181.681641"/>
      <use xlink:href="#DejaVuSans-6e" x="1242.863281"/>
      <use xlink:href="#DejaVuSans-64" x="1306.242188"/>
      <use xlink:href="#DejaVuSans-65" x="1369.71875"/>
      <use xlink:href="#DejaVuSans-73" x="1431.242188"/>
      <use xlink:href="#DejaVuSans-29" x="1483.341797"/>
     </g>
    </g>
   </g>
   <g id="line2d_15">
    <path d="M 73.832727 295.28036 
L 74.158032 295.488 
L 75.784558 294.55362 
L 78.061694 293.226671 
L 78.386999 292.71406 
L 78.712305 292.730282 
L 79.03761 292.632951 
L 79.362915 292.220915 
L 79.68822 292.295536 
L 80.013525 292.139806 
L 80.989441 291.309246 
L 81.314746 291.390355 
L 81.640051 291.078896 
L 81.965356 291.036719 
L 82.615966 290.309979 
L 82.941272 290.491664 
L 83.266577 290.391088 
L 83.591882 289.73248 
L 83.917187 289.489152 
L 84.242492 289.725992 
L 84.567797 289.622172 
L 84.893103 289.262046 
L 85.218408 289.268535 
L 88.146154 287.510084 
L 89.12207 286.965029 
L 89.77268 285.891141 
L 90.097985 286.381042 
L 90.42329 285.086537 
L 90.748595 285.835987 
L 91.073901 285.216312 
L 91.399206 285.647813 
L 91.724511 284.869164 
L 92.049816 284.797787 
L 92.700426 284.051581 
L 93.025731 284.223533 
L 93.351037 283.921806 
L 93.676342 284.087269 
L 94.326952 283.782298 
L 95.628173 283.016626 
L 95.953478 282.73761 
L 96.278783 282.70841 
L 96.604088 282.491037 
L 96.929393 281.355506 
L 97.254698 282.273664 
L 97.580004 281.965449 
L 98.230614 281.80323 
L 98.555919 281.485281 
L 98.881224 281.407416 
L 99.206529 281.115423 
L 99.531835 281.118667 
L 100.50775 280.294596 
L 100.833055 279.830651 
L 101.15836 279.879316 
L 101.808971 279.639232 
L 102.134276 279.418615 
L 102.459581 279.360216 
L 104.086107 277.83536 
L 104.411412 277.955402 
L 105.062022 277.666653 
L 105.712633 276.965868 
L 106.037938 277.270839 
L 106.688548 276.706318 
L 107.013853 276.657653 
L 107.339158 276.368903 
L 107.664463 274.860269 
L 107.989769 274.701295 
L 108.315074 275.820604 
L 108.640379 275.720029 
L 108.965684 275.73625 
L 109.616294 274.613697 
L 110.266905 274.879736 
L 110.59221 273.899935 
L 110.917515 274.331436 
L 111.24282 273.799359 
L 111.568125 273.569009 
L 111.89343 273.861002 
L 112.544041 273.186172 
L 112.869346 273.439234 
L 113.519956 272.975288 
L 113.845261 273.053153 
L 114.170567 272.410767 
L 114.495872 272.488632 
L 114.821177 271.911133 
L 115.146482 272.096063 
L 115.471787 271.98251 
L 115.797092 271.216837 
L 116.122398 271.064352 
L 116.447703 271.401767 
L 116.773008 271.20386 
L 117.423618 270.58094 
L 118.074228 270.542007 
L 118.399534 269.961264 
L 118.724839 269.847711 
L 119.050144 269.192348 
L 119.375449 269.010663 
L 119.700754 269.28319 
L 120.026059 268.621338 
L 120.351365 268.420187 
L 120.67667 268.838711 
L 121.001975 268.335833 
L 121.32728 268.394232 
L 121.652585 268.063306 
L 121.97789 268.027618 
L 122.303195 267.388476 
L 122.953806 267.489051 
L 123.604416 266.927775 
L 123.929721 265.315321 
L 124.255026 266.927775 
L 124.580332 265.91553 
L 124.905637 265.776022 
L 125.230942 265.837665 
L 125.556247 265.607314 
L 125.881552 265.06226 
L 126.206857 265.432118 
L 126.857468 251.633795 
L 127.182773 264.663202 
L 127.508078 263.654201 
L 127.833383 264.312809 
L 128.158688 263.615269 
L 128.483993 264.601558 
L 128.809299 264.423118 
L 129.134604 263.894285 
L 129.459909 264.037037 
L 129.785214 263.722333 
L 130.110519 262.833375 
L 130.435824 263.320031 
L 130.76113 262.619246 
L 131.086435 262.667911 
L 131.41174 262.554358 
L 131.737045 260.889994 
L 132.06235 262.336985 
L 132.71296 261.594024 
L 133.038266 261.765975 
L 133.363571 261.344207 
L 133.688876 261.525892 
L 134.014181 260.851062 
L 134.339486 261.295541 
L 134.664791 260.127567 
L 135.315402 260.477959 
L 135.966012 257.509357 
L 136.291317 257.25954 
L 136.616622 257.41527 
L 136.941927 259.322962 
L 137.267233 259.439759 
L 137.592538 259.413804 
L 137.917843 258.988791 
L 138.243148 258.933637 
L 138.568453 256.571733 
L 138.893758 256.772884 
L 139.219064 253.606375 
L 139.544369 257.51909 
L 139.869674 254.874925 
L 140.194979 258.070633 
L 140.520284 258.070633 
L 141.170895 257.571 
L 141.4962 257.41527 
L 141.821505 257.100566 
L 142.472115 256.889681 
L 142.79742 256.454935 
L 143.122725 254.300671 
L 143.448031 255.085809 
L 143.773336 254.274716 
L 144.098641 254.190362 
L 144.423946 252.036098 
L 144.749251 253.710195 
L 145.074556 248.788479 
L 145.725167 255.144208 
L 146.375777 254.258494 
L 146.701082 253.171628 
L 147.026387 250.284136 
L 147.351692 252.727149 
L 147.676998 251.565663 
L 148.002303 253.236516 
L 148.327608 252.380001 
L 148.978218 252.671995 
L 149.303523 252.4384 
L 149.954134 251.747348 
L 150.279439 251.964721 
L 150.604744 251.750593 
L 150.930049 251.351535 
L 151.255354 251.153628 
L 151.58066 250.540441 
L 151.905965 250.67346 
L 152.23127 251.072518 
L 152.556575 251.046563 
L 152.88188 250.498264 
L 153.207185 250.446354 
L 153.53249 249.765036 
L 153.857796 250.300357 
L 154.183101 248.772257 
L 154.508406 241.313441 
L 154.833711 248.41862 
L 155.159016 245.475973 
L 155.809627 248.042273 
L 156.134932 247.675659 
L 156.460237 246.313022 
L 156.785542 246.679636 
L 157.110847 242.669589 
L 157.436152 246.877543 
L 157.761457 245.7485 
L 158.086763 246.819144 
L 158.412068 246.8159 
L 158.737373 246.932697 
L 159.062678 240.622389 
L 159.387983 240.479637 
L 159.713288 237.760851 
L 160.038594 243.655879 
L 160.363899 243.062159 
L 160.689204 244.817365 
L 161.014509 245.31051 
L 161.339814 245.008783 
L 161.990424 243.970583 
L 162.31573 243.685079 
L 162.641035 242.925895 
L 162.96634 244.66488 
L 163.61695 244.392352 
L 163.942255 244.028982 
L 164.267561 243.143268 
L 164.592866 243.15949 
L 164.918171 243.007004 
L 165.568781 242.001248 
L 165.894086 240.907894 
L 166.219392 241.358862 
L 166.544697 242.549548 
L 166.870002 240.868962 
L 167.195307 237.167131 
L 167.520612 239.736675 
L 167.845917 237.708941 
L 168.171222 239.924849 
L 168.496528 241.258287 
L 169.147138 240.638611 
L 169.472443 238.461636 
L 169.797748 239.314907 
L 170.123053 237.783562 
L 170.448359 240.690521 
L 171.098969 239.204598 
L 171.424274 236.008889 
L 171.749579 239.22082 
L 172.074884 238.730919 
L 172.400189 238.020401 
L 172.725495 236.959491 
L 173.0508 237.374771 
L 173.376105 238.0788 
L 173.70141 237.845205 
L 174.026715 236.39497 
L 174.35202 238.033379 
L 174.677326 236.557189 
L 175.002631 237.942536 
L 175.327936 238.117733 
L 175.653241 237.19633 
L 175.978546 237.287173 
L 176.303851 236.5507 
L 176.629156 235.291883 
L 176.954462 215.874304 
L 177.279767 237.060067 
L 177.605072 237.167131 
L 177.930377 236.78105 
L 178.580987 236.359282 
L 178.906293 236.391726 
L 179.231598 236.265195 
L 180.858124 234.896069 
L 181.183429 234.76305 
L 181.508734 233.948712 
L 181.834039 234.286127 
L 182.159344 231.966399 
L 182.809954 232.157817 
L 183.13526 232.926734 
L 183.78587 231.765248 
L 184.111175 231.061219 
L 184.43648 231.203971 
L 184.761785 229.47472 
L 185.087091 232.35248 
L 185.412396 232.011821 
L 185.737701 231.505698 
L 186.063006 232.303814 
L 186.388311 231.794447 
L 186.713616 229.247614 
L 187.038921 229.497431 
L 187.364227 230.162527 
L 188.014837 228.462475 
L 188.665447 224.978017 
L 188.990752 217.483513 
L 189.316058 222.233277 
L 189.966668 226.171947 
L 190.291973 223.48885 
L 190.617278 226.684558 
L 190.942583 227.89471 
L 191.267889 228.199681 
L 191.593194 221.480582 
L 191.918499 225.240812 
L 192.243804 227.362632 
L 192.894414 225.062371 
L 193.219719 222.239766 
L 193.545025 225.253789 
L 193.87033 219.358761 
L 194.195635 224.527049 
L 194.52094 225.724223 
L 195.17155 223.213078 
L 195.496856 223.524538 
L 195.822161 224.381053 
L 196.147466 223.962528 
L 196.472771 224.802821 
L 196.798076 225.036416 
L 197.123381 223.33312 
L 197.448686 223.936573 
L 197.773992 215.543378 
L 198.099297 222.074303 
L 198.424602 224.439451 
L 198.749907 224.225323 
L 199.075212 222.914595 
L 199.400517 223.161168 
L 199.725823 216.656198 
L 200.051128 222.178123 
L 200.376433 221.41245 
L 200.701738 221.607113 
L 201.027043 221.279431 
L 201.352348 219.871373 
L 201.677653 219.741598 
L 202.002959 217.055256 
L 202.328264 213.346936 
L 202.653569 217.217475 
L 203.304179 185.795711 
L 203.629484 212.57802 
L 203.95479 217.856616 
L 204.280095 217.600311 
L 204.6054 210.660594 
L 204.930705 215.277339 
L 205.25601 216.088432 
L 205.581315 218.975925 
L 205.906621 214.424068 
L 206.231926 218.184298 
L 206.557231 216.422603 
L 206.882536 217.554889 
L 207.207841 218.038301 
L 207.533146 218.164832 
L 207.858451 217.262896 
L 208.183757 217.869594 
L 208.509062 218.155099 
L 209.159672 215.14432 
L 209.484977 212.211405 
L 209.810282 208.000208 
L 210.135588 211.458711 
L 210.460893 210.874723 
L 210.786198 214.842593 
L 211.111503 204.645525 
L 211.436808 215.017789 
L 212.087418 207.967764 
L 212.412724 214.368914 
L 212.738029 214.823126 
L 213.063334 214.450023 
L 213.388639 213.836837 
L 213.713944 210.196649 
L 214.039249 204.976451 
L 214.364555 212.522865 
L 214.68986 204.029094 
L 215.34047 208.918366 
L 215.665775 212.299003 
L 215.99108 212.127052 
L 216.316385 213.272316 
L 216.641691 212.146518 
L 216.966996 212.091363 
L 217.292301 211.818836 
L 217.617606 212.114074 
L 217.942911 212.107585 
L 218.268216 209.781369 
L 218.593522 210.874723 
L 218.918827 210.216115 
L 219.244132 211.968077 
L 219.894742 209.547774 
L 220.220047 205.683725 
L 220.870658 209.690527 
L 221.195963 208.19487 
L 221.521268 209.138983 
L 222.171878 208.117005 
L 222.497183 206.997696 
L 222.822489 208.808057 
L 223.473099 203.47755 
L 223.798404 208.911877 
L 224.123709 207.730925 
L 224.449014 208.658816 
L 224.77432 208.220825 
L 225.099625 206.420198 
L 225.42493 201.732077 
L 225.750235 205.557194 
L 226.07554 205.70968 
L 226.400845 205.206802 
L 226.72615 185.487496 
L 227.051456 179.378339 
L 227.376761 200.609523 
L 227.702066 206.215802 
L 228.027371 206.086027 
L 228.352676 205.232757 
L 228.677981 207.120982 
L 229.003287 206.209313 
L 229.328592 202.822187 
L 229.653897 205.557194 
L 229.979202 205.845943 
L 230.629812 205.268445 
L 230.955118 205.515017 
L 231.280423 204.755834 
L 231.605728 192.741916 
L 231.931033 202.273887 
L 232.256338 202.926007 
L 232.581643 202.578859 
L 232.906948 202.471794 
L 233.232254 203.873364 
L 233.557559 195.373104 
L 233.882864 196.372371 
L 234.208169 196.388593 
L 234.533474 196.842805 
L 234.858779 198.964626 
L 235.184085 199.688121 
L 235.50939 201.94945 
L 235.834695 197.455992 
L 236.16 199.853584 
L 236.485305 193.971534 
L 236.81061 195.155731 
L 237.135915 201.829408 
L 237.461221 198.6337 
L 237.786526 200.330507 
L 238.111831 199.905494 
L 238.437136 194.941602 
L 238.762441 197.657143 
L 239.087746 197.504657 
L 239.413052 200.090424 
L 239.738357 200.307797 
L 240.063662 198.6045 
L 240.388967 197.722031 
L 240.714272 195.603454 
L 241.039577 198.669388 
L 241.364882 197.984825 
L 241.690188 193.789849 
L 242.015493 197.157509 
L 242.340798 198.971115 
L 242.666103 193.105286 
L 242.991408 193.991 
L 243.316713 197.624699 
L 243.642019 197.258085 
L 243.967324 194.153219 
L 244.292629 194.850759 
L 244.617934 198.117844 
L 244.943239 195.665097 
L 245.268544 190.107484 
L 245.59385 156.401682 
L 245.919155 187.51523 
L 246.24446 186.279123 
L 246.569765 194.785872 
L 246.89507 195.583988 
L 247.220375 189.750603 
L 247.54568 177.626377 
L 247.870986 191.63234 
L 248.196291 191.635585 
L 248.521596 194.007222 
L 248.846901 192.920357 
L 249.172206 189.886867 
L 249.497511 191.152173 
L 249.822817 190.77907 
L 250.148122 192.492099 
L 250.473427 192.959289 
L 250.798732 190.759604 
L 251.124037 182.947151 
L 251.449342 189.166616 
L 251.774647 188.572896 
L 252.099953 191.92109 
L 252.425258 188.663738 
L 252.750563 188.676716 
L 253.075868 189.228259 
L 253.726478 192.170906 
L 254.051784 191.622607 
L 254.377089 191.427945 
L 254.702394 186.207747 
L 255.027699 158.942027 
L 255.678309 180.374362 
L 256.003615 185.792467 
L 256.32892 180.676089 
L 256.97953 190.253481 
L 257.63014 189.870645 
L 257.955445 188.164104 
L 258.280751 189.899845 
L 258.606056 188.417166 
L 258.931361 189.886867 
L 259.256666 185.571849 
L 259.581971 188.641027 
L 259.907276 187.385455 
L 260.232582 187.327056 
L 260.557887 182.596758 
L 260.883192 183.991839 
L 261.208497 187.310834 
L 261.533802 187.816956 
L 261.859107 186.756046 
L 262.184412 173.716906 
L 262.509718 178.18441 
L 262.835023 186.801467 
L 263.160328 175.601888 
L 263.485633 183.252122 
L 263.810938 186.392676 
L 264.136243 187.473053 
L 264.461549 143.888131 
L 264.786854 184.186502 
L 265.112159 181.50016 
L 265.437464 174.803772 
L 265.762769 177.863217 
L 266.088074 184.71209 
L 266.413379 178.638622 
L 266.738685 185.234435 
L 267.06399 174.093254 
L 267.389295 179.524336 
L 267.7146 157.946004 
L 268.039905 177.850239 
L 268.36521 181.578025 
L 268.690516 174.638309 
L 269.015821 179.767664 
L 269.666431 178.748931 
L 269.991736 174.485823 
L 270.317041 180.238098 
L 270.967652 178.538046 
L 271.292957 179.242076 
L 271.618262 178.755419 
L 271.943567 182.210678 
L 272.268872 178.541291 
L 272.594177 181.29252 
L 272.919483 180.591735 
L 273.244788 181.60398 
L 273.570093 181.837575 
L 273.895398 178.956571 
L 274.220703 179.845529 
L 274.546008 178.564001 
L 274.871314 181.149768 
L 275.521924 177.275985 
L 275.847229 172.542443 
L 276.172534 176.763374 
L 276.497839 165.920675 
L 276.823144 173.898591 
L 277.14845 174.326849 
L 277.473755 176.555734 
L 277.79906 169.369445 
L 278.124365 177.743175 
L 278.774975 174.433913 
L 279.100281 167.108116 
L 279.425586 175.61811 
L 279.750891 171.929256 
L 280.076196 175.621354 
L 280.401501 173.470334 
L 280.726806 173.408691 
L 281.052111 157.900583 
L 281.377417 165.482685 
L 281.702722 167.286557 
L 282.028027 163.510106 
L 282.353332 165.223135 
L 282.678637 174.427424 
L 283.003942 172.438623 
L 283.329248 168.574574 
L 283.654553 175.287184 
L 283.979858 154.665942 
L 284.305163 166.799901 
L 284.630468 168.613506 
L 284.955773 172.506755 
L 285.281079 173.856415 
L 285.606384 174.693463 
L 285.931689 174.261961 
L 286.256994 172.9707 
L 286.582299 174.067299 
L 286.907604 171.841658 
L 287.232909 167.610994 
L 287.558215 172.402935 
L 287.88352 161.034648 
L 288.208825 171.085719 
L 288.53413 170.761282 
L 288.859435 169.823658 
L 289.18474 172.63653 
L 289.510046 170.105918 
L 289.835351 170.229204 
L 290.160656 170.735327 
L 290.485961 163.574993 
L 290.811266 153.682896 
L 291.136571 166.601994 
L 291.461876 170.238937 
L 291.787182 168.924966 
L 292.437792 156.187553 
L 292.763097 165.618949 
L 293.088402 164.986296 
L 293.413707 170.251915 
L 293.739013 169.025542 
L 294.064318 153.066465 
L 294.389623 153.426591 
L 294.714928 163.162957 
L 295.040233 153.780228 
L 295.365538 156.278396 
L 295.690844 153.400636 
L 296.016149 158.111467 
L 296.341454 165.310733 
L 296.992064 167.698592 
L 297.317369 159.139934 
L 297.642674 161.177401 
L 297.96798 160.278709 
L 298.293285 156.975936 
L 298.61859 149.510631 
L 298.943895 158.348306 
L 299.2692 157.884361 
L 299.594505 149.215393 
L 299.919811 150.143284 
L 300.245116 158.004403 
L 300.570421 153.786716 
L 300.895726 164.061649 
L 301.221031 157.887605 
L 301.546336 158.864162 
L 301.871641 158.478081 
L 302.196947 158.43266 
L 302.522252 126.576151 
L 302.847557 165.184203 
L 303.172862 164.684569 
L 303.498167 161.547259 
L 303.823472 145.425964 
L 304.148778 151.882269 
L 304.474083 153.971646 
L 304.799388 163.214867 
L 305.124693 158.374261 
L 305.449998 160.768609 
L 305.775303 146.425231 
L 306.100608 151.431301 
L 306.425914 151.953645 
L 306.751219 155.402415 
L 307.076524 161.897652 
L 307.401829 158.724654 
L 307.727134 160.239776 
L 308.052439 160.100268 
L 308.377745 158.049824 
L 308.70305 151.648674 
L 309.028355 151.337214 
L 309.678965 156.054534 
L 310.00427 153.660186 
L 310.329576 153.228684 
L 310.654881 153.313038 
L 310.980186 154.698385 
L 311.305491 148.430255 
L 311.630796 145.747157 
L 311.956101 131.802837 
L 312.281406 135.430048 
L 312.606712 155.120154 
L 312.932017 150.662384 
L 313.257322 158.348306 
L 313.582627 156.97918 
L 313.907932 157.099222 
L 314.233237 115.509591 
L 314.558543 136.643443 
L 314.883848 144.861443 
L 315.209153 144.913353 
L 315.534458 142.304876 
L 315.859763 131.251294 
L 316.185068 135.540356 
L 316.510373 154.847627 
L 316.835679 155.785251 
L 317.160984 154.169552 
L 317.811594 144.358565 
L 318.136899 135.897237 
L 318.462204 133.197918 
L 318.78751 137.873061 
L 319.112815 145.254012 
L 319.43812 147.138994 
L 319.763425 147.998753 
L 320.08873 151.716806 
L 320.414035 143.884887 
L 320.73934 150.230882 
L 321.064646 153.802938 
L 321.389951 149.348413 
L 321.715256 149.390589 
L 322.040561 152.427324 
L 322.365866 149.140773 
L 322.691171 148.128528 
L 323.016477 151.645429 
L 323.341782 140.88384 
L 323.667087 151.778449 
L 323.992392 149.692316 
L 324.317697 150.435278 
L 324.643002 149.640406 
L 324.968308 147.392055 
L 325.293613 151.444278 
L 325.618918 147.479653 
L 325.944223 136.020524 
L 326.269528 139.618535 
L 326.594833 140.822197 
L 326.920138 147.359611 
L 327.245444 146.866466 
L 327.570749 115.275996 
L 327.896054 100.390807 
L 328.221359 137.146321 
L 328.546664 148.349145 
L 328.871969 131.903413 
L 329.197275 136.027012 
L 329.52258 124.149359 
L 329.847885 146.389543 
L 330.17319 148.855268 
L 330.498495 148.255058 
L 330.8238 147.301212 
L 331.149105 148.173949 
L 331.474411 143.797288 
L 331.799716 143.797288 
L 332.125021 134.674108 
L 332.450326 146.736691 
L 332.775631 146.53554 
L 333.100936 143.55396 
L 333.426242 143.956263 
L 334.076852 143.300899 
L 334.402157 142.236744 
L 334.727462 139.884573 
L 335.052767 143.313877 
L 335.378073 144.533761 
L 335.703378 144.449408 
L 336.353988 143.06406 
L 336.679293 141.980439 
L 337.004598 144.595404 
L 337.329903 144.627848 
L 337.655209 144.429941 
L 338.305819 144.355321 
L 338.631124 142.392474 
L 338.956429 143.528005 
L 339.281734 144.131459 
L 339.60704 135.595511 
L 339.932345 137.071701 
L 340.25765 137.207965 
L 340.582955 121.55386 
L 340.90826 141.798754 
L 341.233565 119.419061 
L 341.55887 120.995827 
L 341.884176 117.978559 
L 342.209481 133.846793 
L 342.534786 139.722355 
L 342.860091 130.174162 
L 343.185396 106.097661 
L 343.510701 119.539103 
L 343.836007 127.585151 
L 344.161312 126.933032 
L 344.486617 121.667413 
L 344.811922 134.618954 
L 345.137227 136.435804 
L 345.462532 136.104877 
L 345.787837 132.036432 
L 346.113143 138.622512 
L 346.438448 129.288447 
L 346.763753 103.025239 
L 347.089058 131.650352 
L 347.414363 134.018745 
L 347.739668 120.742766 
L 348.064974 129.522042 
L 348.390279 113.838738 
L 348.715584 112.167885 
L 349.040889 124.652237 
L 349.366194 110.831203 
L 349.691499 124.645748 
L 350.016805 122.481751 
L 350.34211 115.168931 
L 350.667415 129.470132 
L 350.99272 128.688238 
L 351.318025 108.933244 
L 351.968635 120.836853 
L 352.293941 121.959406 
L 352.619246 122.608281 
L 352.944551 114.156687 
L 353.269856 130.290959 
L 353.595161 127.247736 
L 353.920466 114.120998 
L 354.245772 89.804414 
L 354.571077 121.297554 
L 354.896382 130.219583 
L 355.221687 121.407863 
L 355.546992 126.177093 
L 356.197602 114.474635 
L 356.522908 130.696506 
L 357.173518 113.144442 
L 357.498823 104.365165 
L 357.824128 130.401268 
L 358.149433 105.234658 
L 358.474739 116.21362 
L 358.800044 115.305195 
L 359.125349 108.349257 
L 359.450654 92.763284 
L 359.775959 122.893786 
L 360.101264 123.234445 
L 360.42657 130.407756 
L 360.751875 126.310112 
L 361.07718 124.35051 
L 361.402485 124.665214 
L 361.72779 130.660818 
L 362.053095 129.210582 
L 362.703706 124.441352 
L 363.029011 128.243759 
L 363.354316 120.139312 
L 363.679621 118.134289 
L 364.004926 116.933871 
L 364.655537 121.125602 
L 364.980842 117.131778 
L 365.306147 83.578461 
L 365.631452 113.949047 
L 365.956757 123.309066 
L 366.282062 110.694939 
L 366.607367 124.100693 
L 366.932673 121.488972 
L 367.257978 110.763071 
L 367.583283 107.833401 
L 368.233893 120.814142 
L 368.559198 108.82618 
L 368.884504 121.495461 
L 369.209809 124.898809 
L 369.535114 105.062706 
L 369.860419 111.83047 
L 370.185724 107.671183 
L 370.511029 108.764537 
L 370.836334 112.933557 
L 371.16164 110.76956 
L 371.486945 53.568 
L 372.137555 114.464902 
L 372.46286 114.779606 
L 372.788165 110.529476 
L 373.113471 113.332616 
L 373.438776 108.092951 
L 373.764081 111.694207 
L 374.089386 92.036544 
L 374.414691 82.147692 
L 374.739996 110.71765 
L 375.065302 121.381908 
L 375.390607 118.31273 
L 376.041217 122.076204 
L 376.366522 108.475787 
L 376.691827 122.394152 
L 377.017132 118.478193 
L 377.342438 116.051401 
L 377.667743 117.84554 
L 377.993048 116.875472 
L 378.318353 119.870029 
L 378.643658 118.955116 
L 378.968963 110.026598 
L 379.294269 115.38306 
L 379.619574 109.040309 
L 379.944879 98.191122 
L 380.270184 111.51901 
L 380.595489 74.338483 
L 380.920794 110.701428 
L 381.246099 118.526858 
L 381.571405 109.721627 
L 381.89671 112.553966 
L 382.222015 118.945383 
L 382.54732 107.161816 
L 382.872625 112.115975 
L 383.19793 115.100799 
L 383.523236 108.835913 
L 383.848541 109.841669 
L 384.173846 103.739001 
L 384.499151 107.940466 
L 384.824456 94.417914 
L 385.149761 114.192375 
L 385.475066 57.733776 
L 385.800372 112.375525 
L 386.125677 115.477147 
L 386.776287 104.709069 
L 387.101592 111.171862 
L 387.426897 111.145907 
L 387.752203 105.452031 
L 388.077508 111.175107 
L 388.402813 109.685939 
L 388.728118 103.729268 
L 389.053423 107.596562 
L 389.378728 98.424716 
L 389.704034 85.213625 
L 390.029339 88.837591 
L 390.354644 75.136599 
L 390.679949 113.066577 
L 391.005254 110.636541 
L 391.330559 113.108754 
L 391.655864 110.205039 
L 391.98117 112.236017 
L 392.306475 104.786934 
L 392.63178 100.802843 
L 392.957085 109.163595 
L 393.28239 97.50007 
L 393.607695 108.839157 
L 393.933001 107.249414 
L 394.258306 102.08437 
L 394.583611 110.983689 
L 395.234221 106.074951 
L 395.559526 108.498498 
L 395.884831 108.689916 
L 396.210137 104.744757 
L 396.535442 78.83843 
L 396.860747 103.414564 
L 397.186052 101.487406 
L 397.511357 105.299545 
L 398.161968 76.99887 
L 398.487273 72.625454 
L 398.487273 72.625454 
" clip-path="url(#p7055e8c957)" style="fill: none; stroke: #1f77b4; stroke-width: 1.5; stroke-linecap: square"/>
   </g>
   <g id="patch_3">
    <path d="M 57.6 307.584 
L 57.6 41.472 
" style="fill: none; stroke: #000000; stroke-width: 0.8; stroke-linejoin: miter; stroke-linecap: square"/>
   </g>
   <g id="patch_4">
    <path d="M 414.72 307.584 
L 414.72 41.472 
" style="fill: none; stroke: #000000; stroke-width: 0.8; stroke-linejoin: miter; stroke-linecap: square"/>
   </g>
   <g id="patch_5">
    <path d="M 57.6 307.584 
L 414.72 307.584 
" style="fill: none; stroke: #000000; stroke-width: 0.8; stroke-linejoin: miter; stroke-linecap: square"/>
   </g>
   <g id="patch_6">
    <path d="M 57.6 41.472 
L 414.72 41.472 
" style="fill: none; stroke: #000000; stroke-width: 0.8; stroke-linejoin: miter; stroke-linecap: square"/>
   </g>
   <g id="text_17">
    <!-- Résultat benchmark dgbtrf+dgbtrs -->
    <g transform="translate(131.154375 35.472) scale(0.12 -0.12)">
     <defs>
      <path id="DejaVuSans-52" d="M 2841 2188 
Q 3044 2119 3236 1894 
Q 3428 1669 3622 1275 
L 4263 0 
L 3584 0 
L 2988 1197 
Q 2756 1666 2539 1819 
Q 2322 1972 1947 1972 
L 1259 1972 
L 1259 0 
L 628 0 
L 628 4666 
L 2053 4666 
Q 2853 4666 3247 4331 
Q 3641 3997 3641 3322 
Q 3641 2881 3436 2590 
Q 3231 2300 2841 2188 
z
M 1259 4147 
L 1259 2491 
L 2053 2491 
Q 2509 2491 2742 2702 
Q 2975 2913 2975 3322 
Q 2975 3731 2742 3939 
Q 2509 4147 2053 4147 
L 1259 4147 
z
" transform="scale(0.015625)"/>
      <path id="DejaVuSans-e9" d="M 3597 1894 
L 3597 1613 
L 953 1613 
Q 991 1019 1311 708 
Q 1631 397 2203 397 
Q 2534 397 2845 478 
Q 3156 559 3463 722 
L 3463 178 
Q 3153 47 2828 -22 
Q 2503 -91 2169 -91 
Q 1331 -91 842 396 
Q 353 884 353 1716 
Q 353 2575 817 3079 
Q 1281 3584 2069 3584 
Q 2775 3584 3186 3129 
Q 3597 2675 3597 1894 
z
M 3022 2063 
Q 3016 2534 2758 2815 
Q 2500 3097 2075 3097 
Q 1594 3097 1305 2825 
Q 1016 2553 972 2059 
L 3022 2063 
z
M 2466 5119 
L 3088 5119 
L 2070 3944 
L 1591 3944 
L 2466 5119 
z
" transform="scale(0.015625)"/>
      <path id="DejaVuSans-75" d="M 544 1381 
L 544 3500 
L 1119 3500 
L 1119 1403 
Q 1119 906 1312 657 
Q 1506 409 1894 409 
Q 2359 409 2629 706 
Q 2900 1003 2900 1516 
L 2900 3500 
L 3475 3500 
L 3475 0 
L 2900 0 
L 2900 538 
Q 2691 219 2414 64 
Q 2138 -91 1772 -91 
Q 1169 -91 856 284 
Q 544 659 544 1381 
z
M 1991 3584 
L 1991 3584 
z
" transform="scale(0.015625)"/>
      <path id="DejaVuSans-6c" d="M 603 4863 
L 1178 4863 
L 1178 0 
L 603 0 
L 603 4863 
z
" transform="scale(0.015625)"/>
      <path id="DejaVuSans-68" d="M 3513 2113 
L 3513 0 
L 2938 0 
L 2938 2094 
Q 2938 2591 2744 2837 
Q 2550 3084 2163 3084 
Q 1697 3084 1428 2787 
Q 1159 2491 1159 1978 
L 1159 0 
L 581 0 
L 581 4863 
L 1159 4863 
L 1159 2956 
Q 1366 3272 1645 3428 
Q 1925 3584 2291 3584 
Q 2894 3584 3203 3211 
Q 3513 2838 3513 2113 
z
" transform="scale(0.015625)"/>
      <path id="DejaVuSans-6b" d="M 581 4863 
L 1159 4863 
L 1159 1991 
L 2875 3500 
L 3609 3500 
L 1753 1863 
L 3688 0 
L 2938 0 
L 1159 1709 
L 1159 0 
L 581 0 
L 581 4863 
z
" transform="scale(0.015625)"/>
      <path id="DejaVuSans-67" d="M 2906 1791 
Q 2906 2416 2648 2759 
Q 2391 3103 1925 3103 
Q 1463 3103 1205 2759 
Q 947 2416 947 1791 
Q 947 1169 1205 825 
Q 1463 481 1925 481 
Q 2391 481 2648 825 
Q 2906 1169 2906 1791 
z
M 3481 434 
Q 3481 -459 3084 -895 
Q 2688 -1331 1869 -1331 
Q 1566 -1331 1297 -1286 
Q 1028 -1241 775 -1147 
L 775 -588 
Q 1028 -725 1275 -790 
Q 1522 -856 1778 -856 
Q 2344 -856 2625 -561 
Q 2906 -266 2906 331 
L 2906 616 
Q 2728 306 2450 153 
Q 2172 0 1784 0 
Q 1141 0 747 490 
Q 353 981 353 1791 
Q 353 2603 747 3093 
Q 1141 3584 1784 3584 
Q 2172 3584 2450 3431 
Q 2728 3278 2906 2969 
L 2906 3500 
L 3481 3500 
L 3481 434 
z
" transform="scale(0.015625)"/>
      <path id="DejaVuSans-66" d="M 2375 4863 
L 2375 4384 
L 1825 4384 
Q 1516 4384 1395 4259 
Q 1275 4134 1275 3809 
L 1275 3500 
L 2222 3500 
L 2222 3053 
L 1275 3053 
L 1275 0 
L 697 0 
L 697 3053 
L 147 3053 
L 147 3500 
L 697 3500 
L 697 3744 
Q 697 4328 969 4595 
Q 1241 4863 1831 4863 
L 2375 4863 
z
" transform="scale(0.015625)"/>
      <path id="DejaVuSans-2b" d="M 2944 4013 
L 2944 2272 
L 4684 2272 
L 4684 1741 
L 2944 1741 
L 2944 0 
L 2419 0 
L 2419 1741 
L 678 1741 
L 678 2272 
L 2419 2272 
L 2419 4013 
L 2944 4013 
z
" transform="scale(0.015625)"/>
     </defs>
     <use xlink:href="#DejaVuSans-52"/>
     <use xlink:href="#DejaVuSans-e9" x="64.982422"/>
     <use xlink:href="#DejaVuSans-73" x="126.505859"/>
     <use xlink:href="#DejaVuSans-75" x="178.605469"/>
     <use xlink:href="#DejaVuSans-6c" x="241.984375"/>
     <use xlink:href="#DejaVuSans-74" x="269.767578"/>
     <use xlink:href="#DejaVuSans-61" x="308.976562"/>
     <use xlink:href="#DejaVuSans-74" x="370.255859"/>
     <use xlink:href="#DejaVuSans-20" x="409.464844"/>
     <use xlink:href="#DejaVuSans-62" x="441.251953"/>
     <use xlink:href="#DejaVuSans-65" x="504.728516"/>
     <use xlink:href="#DejaVuSans-6e" x="566.251953"/>
     <use xlink:href="#DejaVuSans-63" x="629.630859"/>
     <use xlink:href="#DejaVuSans-68" x="684.611328"/>
     <use xlink:href="#DejaVuSans-6d" x="747.990234"/>
     <use xlink:href="#DejaVuSans-61" x="845.402344"/>
     <use xlink:href="#DejaVuSans-72" x="906.681641"/>
     <use xlink:href="#DejaVuSans-6b" x="947.794922"/>
     <use xlink:href="#DejaVuSans-20" x="1005.705078"/>
     <use xlink:href="#DejaVuSans-64" x="1037.492188"/>
     <use xlink:href="#DejaVuSans-67" x="1100.96875"/>
     <use xlink:href="#DejaVuSans-62" x="1164.445312"/>
     <use xlink:href="#DejaVuSans-74" x="1227.921875"/>
     <use xlink:href="#DejaVuSans-72" x="1267.130859"/>
     <use xlink:href="#DejaVuSans-66" x="1308.244141"/>
     <use xlink:href="#DejaVuSans-2b" x="1343.449219"/>
     <use xlink:href="#DejaVuSans-64" x="1427.238281"/>
     <use xlink:href="#DejaVuSans-67" x="1490.714844"/>
     <use xlink:href="#DejaVuSans-62" x="1554.191406"/>
     <use xlink:href="#DejaVuSans-74" x="1617.667969"/>
     <use xlink:href="#DejaVuSans-72" x="1656.876953"/>
     <use xlink:href="#DejaVuSans-73" x="1697.990234"/>
    </g>
   </g>
  </g>
 </g>
 <defs>
  <clipPath id="p7055e8c957">
   <rect x="57.6" y="41.472" width="357.12" height="266.112"/>
  </clipPath>
 </defs>
</svg>
