<?xml version="1.0" encoding="utf-8" standalone="no"?>
<!DOCTYPE svg PUBLIC "-//W3C//DTD SVG 1.1//EN"
  "http://www.w3.org/Graphics/SVG/1.1/DTD/svg11.dtd">
<svg xmlns:xlink="http://www.w3.org/1999/xlink" width="460.8pt" height="345.6pt" viewBox="0 0 460.8 345.6" xmlns="http://www.w3.org/2000/svg" version="1.1">
 <metadata>
  <rdf:RDF xmlns:dc="http://purl.org/dc/elements/1.1/" xmlns:cc="http://creativecommons.org/ns#" xmlns:rdf="http://www.w3.org/1999/02/22-rdf-syntax-ns#">
   <cc:Work>
    <dc:type rdf:resource="http://purl.org/dc/dcmitype/StillImage"/>
    <dc:date>2025-01-02T03:44:00.987654</dc:date>
    <dc:format>image/svg+xml</dc:format>
    <dc:creator>
     <cc:Agent>
      <dc:title>Matplotlib v3.7.5, https://matplotlib.org/</dc:title>
     </cc:Agent>
    </dc:creator>
   </cc:Work>
  </rdf:RDF>
 </metadata>
 <defs>
  <style type="text/css">*{stroke-linejoin: round; stroke-linecap: butt}</style>
 </defs>
 <g id="figure_1">
  <g id="patch_1">
   <path d="M 0 345.6 
L 460.8 345.6 
L 460.8 0 
L 0 0 
z
" style="fill: #ffffff"/>
  </g>
  <g id="axes_1">
   <g id="patch_2">
    <path d="M 57.6 307.584 
L 414.72 307.584 
L 414.72 41.472 
L 57.6 41.472 
z
" style="fill: #ffffff"/>
   </g>
   <g id="matplotlib.axis_1">
    <g id="xtick_1">
     <g id="line2d_1">
      <defs>
       <path id="m034856964c" d="M 0 0 
L 0 3.5 
" style="stroke: #000000; stroke-width: 0.8"/>
      </defs>
      <g>
       <use xlink:href="#m034856964c" x="73.507422" y="307.584" style="stroke: #000000; stroke-width: 0.8"/>
      </g>
     </g>
     <g id="text_1">
      <!-- 0 -->
      <g transform="translate(70.326172 322.182437) scale(0.1 -0.1)">
       <defs>
        <path id="DejaVuSans-30" d="M 2034 4250 
Q 1547 4250 1301 3770 
Q 1056 3291 1056 2328 
Q 1056 1369 1301 889 
Q 1547 409 2034 409 
Q 2525 409 2770 889 
Q 3016 1369 3016 2328 
Q 3016 3291 2770 3770 
Q 2525 4250 2034 4250 
z
M 2034 4750 
Q 2819 4750 3233 4129 
Q 3647 3509 3647 2328 
Q 3647 1150 3233 529 
Q 2819 -91 2034 -91 
Q 1250 -91 836 529 
Q 422 1150 422 2328 
Q 422 3509 836 4129 
Q 1250 4750 2034 4750 
z
" transform="scale(0.015625)"/>
       </defs>
       <use xlink:href="#DejaVuSans-30"/>
      </g>
     </g>
    </g>
    <g id="xtick_2">
     <g id="line2d_2">
      <g>
       <use xlink:href="#m034856964c" x="138.568453" y="307.584" style="stroke: #000000; stroke-width: 0.8"/>
      </g>
     </g>
     <g id="text_2">
      <!-- 20000 -->
      <g transform="translate(122.662203 322.182437) scale(0.1 -0.1)">
       <defs>
        <path id="DejaVuSans-32" d="M 1228 531 
L 3431 531 
L 3431 0 
L 469 0 
L 469 531 
Q 828 903 1448 1529 
Q 2069 2156 2228 2338 
Q 2531 2678 2651 2914 
Q 2772 3150 2772 3378 
Q 2772 3750 2511 3984 
Q 2250 4219 1831 4219 
Q 1534 4219 1204 4116 
Q 875 4013 500 3803 
L 500 4441 
Q 881 4594 1212 4672 
Q 1544 4750 1819 4750 
Q 2544 4750 2975 4387 
Q 3406 4025 3406 3419 
Q 3406 3131 3298 2873 
Q 3191 2616 2906 2266 
Q 2828 2175 2409 1742 
Q 1991 1309 1228 531 
z
" transform="scale(0.015625)"/>
       </defs>
       <use xlink:href="#DejaVuSans-32"/>
       <use xlink:href="#DejaVuSans-30" x="63.623047"/>
       <use xlink:href="#DejaVuSans-30" x="127.246094"/>
       <use xlink:href="#DejaVuSans-30" x="190.869141"/>
       <use xlink:href="#DejaVuSans-30" x="254.492188"/>
      </g>
     </g>
    </g>
    <g id="xtick_3">
     <g id="line2d_3">
      <g>
       <use xlink:href="#m034856964c" x="203.629484" y="307.584" style="stroke: #000000; stroke-width: 0.8"/>
      </g>
     </g>
     <g id="text_3">
      <!-- 40000 -->
      <g transform="translate(187.723234 322.182437) scale(0.1 -0.1)">
       <defs>
        <path id="DejaVuSans-34" d="M 2419 4116 
L 825 1625 
L 2419 1625 
L 2419 4116 
z
M 2253 4666 
L 3047 4666 
L 3047 1625 
L 3713 1625 
L 3713 1100 
L 3047 1100 
L 3047 0 
L 2419 0 
L 2419 1100 
L 313 1100 
L 313 1709 
L 2253 4666 
z
" transform="scale(0.015625)"/>
       </defs>
       <use xlink:href="#DejaVuSans-34"/>
       <use xlink:href="#DejaVuSans-30" x="63.623047"/>
       <use xlink:href="#DejaVuSans-30" x="127.246094"/>
       <use xlink:href="#DejaVuSans-30" x="190.869141"/>
       <use xlink:href="#DejaVuSans-30" x="254.492188"/>
      </g>
     </g>
    </g>
    <g id="xtick_4">
     <g id="line2d_4">
      <g>
       <use xlink:href="#m034856964c" x="268.690516" y="307.584" style="stroke: #000000; stroke-width: 0.8"/>
      </g>
     </g>
     <g id="text_4">
      <!-- 60000 -->
      <g transform="translate(252.784266 322.182437) scale(0.1 -0.1)">
       <defs>
        <path id="DejaVuSans-36" d="M 2113 2584 
Q 1688 2584 1439 2293 
Q 1191 2003 1191 1497 
Q 1191 994 1439 701 
Q 1688 409 2113 409 
Q 2538 409 2786 701 
Q 3034 994 3034 1497 
Q 3034 2003 2786 2293 
Q 2538 2584 2113 2584 
z
M 3366 4563 
L 3366 3988 
Q 3128 4100 2886 4159 
Q 2644 4219 2406 4219 
Q 1781 4219 1451 3797 
Q 1122 3375 1075 2522 
Q 1259 2794 1537 2939 
Q 1816 3084 2150 3084 
Q 2853 3084 3261 2657 
Q 3669 2231 3669 1497 
Q 3669 778 3244 343 
Q 2819 -91 2113 -91 
Q 1303 -91 875 529 
Q 447 1150 447 2328 
Q 447 3434 972 4092 
Q 1497 4750 2381 4750 
Q 2619 4750 2861 4703 
Q 3103 4656 3366 4563 
z
" transform="scale(0.015625)"/>
       </defs>
       <use xlink:href="#DejaVuSans-36"/>
       <use xlink:href="#DejaVuSans-30" x="63.623047"/>
       <use xlink:href="#DejaVuSans-30" x="127.246094"/>
       <use xlink:href="#DejaVuSans-30" x="190.869141"/>
       <use xlink:href="#DejaVuSans-30" x="254.492188"/>
      </g>
     </g>
    </g>
    <g id="xtick_5">
     <g id="line2d_5">
      <g>
       <use xlink:href="#m034856964c" x="333.751547" y="307.584" style="stroke: #000000; stroke-width: 0.8"/>
      </g>
     </g>
     <g id="text_5">
      <!-- 80000 -->
      <g transform="translate(317.845297 322.182437) scale(0.1 -0.1)">
       <defs>
        <path id="DejaVuSans-38" d="M 2034 2216 
Q 1584 2216 1326 1975 
Q 1069 1734 1069 1313 
Q 1069 891 1326 650 
Q 1584 409 2034 409 
Q 2484 409 2743 651 
Q 3003 894 3003 1313 
Q 3003 1734 2745 1975 
Q 2488 2216 2034 2216 
z
M 1403 2484 
Q 997 2584 770 2862 
Q 544 3141 544 3541 
Q 544 4100 942 4425 
Q 1341 4750 2034 4750 
Q 2731 4750 3128 4425 
Q 3525 4100 3525 3541 
Q 3525 3141 3298 2862 
Q 3072 2584 2669 2484 
Q 3125 2378 3379 2068 
Q 3634 1759 3634 1313 
Q 3634 634 3220 271 
Q 2806 -91 2034 -91 
Q 1263 -91 848 271 
Q 434 634 434 1313 
Q 434 1759 690 2068 
Q 947 2378 1403 2484 
z
M 1172 3481 
Q 1172 3119 1398 2916 
Q 1625 2713 2034 2713 
Q 2441 2713 2670 2916 
Q 2900 3119 2900 3481 
Q 2900 3844 2670 4047 
Q 2441 4250 2034 4250 
Q 1625 4250 1398 4047 
Q 1172 3844 1172 3481 
z
" transform="scale(0.015625)"/>
       </defs>
       <use xlink:href="#DejaVuSans-38"/>
       <use xlink:href="#DejaVuSans-30" x="63.623047"/>
       <use xlink:href="#DejaVuSans-30" x="127.246094"/>
       <use xlink:href="#DejaVuSans-30" x="190.869141"/>
       <use xlink:href="#DejaVuSans-30" x="254.492188"/>
      </g>
     </g>
    </g>
    <g id="xtick_6">
     <g id="line2d_6">
      <g>
       <use xlink:href="#m034856964c" x="398.812578" y="307.584" style="stroke: #000000; stroke-width: 0.8"/>
      </g>
     </g>
     <g id="text_6">
      <!-- 100000 -->
      <g transform="translate(379.725078 322.182437) scale(0.1 -0.1)">
       <defs>
        <path id="DejaVuSans-31" d="M 794 531 
L 1825 531 
L 1825 4091 
L 703 3866 
L 703 4441 
L 1819 4666 
L 2450 4666 
L 2450 531 
L 3481 531 
L 3481 0 
L 794 0 
L 794 531 
z
" transform="scale(0.015625)"/>
       </defs>
       <use xlink:href="#DejaVuSans-31"/>
       <use xlink:href="#DejaVuSans-30" x="63.623047"/>
       <use xlink:href="#DejaVuSans-30" x="127.246094"/>
       <use xlink:href="#DejaVuSans-30" x="190.869141"/>
       <use xlink:href="#DejaVuSans-30" x="254.492188"/>
       <use xlink:href="#DejaVuSans-30" x="318.115234"/>
      </g>
     </g>
    </g>
    <g id="text_7">
     <!-- Nombre de points -->
     <g transform="translate(191.510781 335.860562) scale(0.1 -0.1)">
      <defs>
       <path id="DejaVuSans-4e" d="M 628 4666 
L 1478 4666 
L 3547 763 
L 3547 4666 
L 4159 4666 
L 4159 0 
L 3309 0 
L 1241 3903 
L 1241 0 
L 628 0 
L 628 4666 
z
" transform="scale(0.015625)"/>
       <path id="DejaVuSans-6f" d="M 1959 3097 
Q 1497 3097 1228 2736 
Q 959 2375 959 1747 
Q 959 1119 1226 758 
Q 1494 397 1959 397 
Q 2419 397 2687 759 
Q 2956 1122 2956 1747 
Q 2956 2369 2687 2733 
Q 2419 3097 1959 3097 
z
M 1959 3584 
Q 2709 3584 3137 3096 
Q 3566 2609 3566 1747 
Q 3566 888 3137 398 
Q 2709 -91 1959 -91 
Q 1206 -91 779 398 
Q 353 888 353 1747 
Q 353 2609 779 3096 
Q 1206 3584 1959 3584 
z
" transform="scale(0.015625)"/>
       <path id="DejaVuSans-6d" d="M 3328 2828 
Q 3544 3216 3844 3400 
Q 4144 3584 4550 3584 
Q 5097 3584 5394 3201 
Q 5691 2819 5691 2113 
L 5691 0 
L 5113 0 
L 5113 2094 
Q 5113 2597 4934 2840 
Q 4756 3084 4391 3084 
Q 3944 3084 3684 2787 
Q 3425 2491 3425 1978 
L 3425 0 
L 2847 0 
L 2847 2094 
Q 2847 2600 2669 2842 
Q 2491 3084 2119 3084 
Q 1678 3084 1418 2786 
Q 1159 2488 1159 1978 
L 1159 0 
L 581 0 
L 581 3500 
L 1159 3500 
L 1159 2956 
Q 1356 3278 1631 3431 
Q 1906 3584 2284 3584 
Q 2666 3584 2933 3390 
Q 3200 3197 3328 2828 
z
" transform="scale(0.015625)"/>
       <path id="DejaVuSans-62" d="M 3116 1747 
Q 3116 2381 2855 2742 
Q 2594 3103 2138 3103 
Q 1681 3103 1420 2742 
Q 1159 2381 1159 1747 
Q 1159 1113 1420 752 
Q 1681 391 2138 391 
Q 2594 391 2855 752 
Q 3116 1113 3116 1747 
z
M 1159 2969 
Q 1341 3281 1617 3432 
Q 1894 3584 2278 3584 
Q 2916 3584 3314 3078 
Q 3713 2572 3713 1747 
Q 3713 922 3314 415 
Q 2916 -91 2278 -91 
Q 1894 -91 1617 61 
Q 1341 213 1159 525 
L 1159 0 
L 581 0 
L 581 4863 
L 1159 4863 
L 1159 2969 
z
" transform="scale(0.015625)"/>
       <path id="DejaVuSans-72" d="M 2631 2963 
Q 2534 3019 2420 3045 
Q 2306 3072 2169 3072 
Q 1681 3072 1420 2755 
Q 1159 2438 1159 1844 
L 1159 0 
L 581 0 
L 581 3500 
L 1159 3500 
L 1159 2956 
Q 1341 3275 1631 3429 
Q 1922 3584 2338 3584 
Q 2397 3584 2469 3576 
Q 2541 3569 2628 3553 
L 2631 2963 
z
" transform="scale(0.015625)"/>
       <path id="DejaVuSans-65" d="M 3597 1894 
L 3597 1613 
L 953 1613 
Q 991 1019 1311 708 
Q 1631 397 2203 397 
Q 2534 397 2845 478 
Q 3156 559 3463 722 
L 3463 178 
Q 3153 47 2828 -22 
Q 2503 -91 2169 -91 
Q 1331 -91 842 396 
Q 353 884 353 1716 
Q 353 2575 817 3079 
Q 1281 3584 2069 3584 
Q 2775 3584 3186 3129 
Q 3597 2675 3597 1894 
z
M 3022 2063 
Q 3016 2534 2758 2815 
Q 2500 3097 2075 3097 
Q 1594 3097 1305 2825 
Q 1016 2553 972 2059 
L 3022 2063 
z
" transform="scale(0.015625)"/>
       <path id="DejaVuSans-20" transform="scale(0.015625)"/>
       <path id="DejaVuSans-64" d="M 2906 2969 
L 2906 4863 
L 3481 4863 
L 3481 0 
L 2906 0 
L 2906 525 
Q 2725 213 2448 61 
Q 2172 -91 1784 -91 
Q 1150 -91 751 415 
Q 353 922 353 1747 
Q 353 2572 751 3078 
Q 1150 3584 1784 3584 
Q 2172 3584 2448 3432 
Q 2725 3281 2906 2969 
z
M 947 1747 
Q 947 1113 1208 752 
Q 1469 391 1925 391 
Q 2381 391 2643 752 
Q 2906 1113 2906 1747 
Q 2906 2381 2643 2742 
Q 2381 3103 1925 3103 
Q 1469 3103 1208 2742 
Q 947 2381 947 1747 
z
" transform="scale(0.015625)"/>
       <path id="DejaVuSans-70" d="M 1159 525 
L 1159 -1331 
L 581 -1331 
L 581 3500 
L 1159 3500 
L 1159 2969 
Q 1341 3281 1617 3432 
Q 1894 3584 2278 3584 
Q 2916 3584 3314 3078 
Q 3713 2572 3713 1747 
Q 3713 922 3314 415 
Q 2916 -91 2278 -91 
Q 1894 -91 1617 61 
Q 1341 213 1159 525 
z
M 3116 1747 
Q 3116 2381 2855 2742 
Q 2594 3103 2138 3103 
Q 1681 3103 1420 2742 
Q 1159 2381 1159 1747 
Q 1159 1113 1420 752 
Q 1681 391 2138 391 
Q 2594 391 2855 752 
Q 3116 1113 3116 1747 
z
" transform="scale(0.015625)"/>
       <path id="DejaVuSans-69" d="M 603 3500 
L 1178 3500 
L 1178 0 
L 603 0 
L 603 3500 
z
M 603 4863 
L 1178 4863 
L 1178 4134 
L 603 4134 
L 603 4863 
z
" transform="scale(0.015625)"/>
       <path id="DejaVuSans-6e" d="M 3513 2113 
L 3513 0 
L 2938 0 
L 2938 2094 
Q 2938 2591 2744 2837 
Q 2550 3084 2163 3084 
Q 1697 3084 1428 2787 
Q 1159 2491 1159 1978 
L 1159 0 
L 581 0 
L 581 3500 
L 1159 3500 
L 1159 2956 
Q 1366 3272 1645 3428 
Q 1925 3584 2291 3584 
Q 2894 3584 3203 3211 
Q 3513 2838 3513 2113 
z
" transform="scale(0.015625)"/>
       <path id="DejaVuSans-74" d="M 1172 4494 
L 1172 3500 
L 2356 3500 
L 2356 3053 
L 1172 3053 
L 1172 1153 
Q 1172 725 1289 603 
Q 1406 481 1766 481 
L 2356 481 
L 2356 0 
L 1766 0 
Q 1100 0 847 248 
Q 594 497 594 1153 
L 594 3053 
L 172 3053 
L 172 3500 
L 594 3500 
L 594 4494 
L 1172 4494 
z
" transform="scale(0.015625)"/>
       <path id="DejaVuSans-73" d="M 2834 3397 
L 2834 2853 
Q 2591 2978 2328 3040 
Q 2066 3103 1784 3103 
Q 1356 3103 1142 2972 
Q 928 2841 928 2578 
Q 928 2378 1081 2264 
Q 1234 2150 1697 2047 
L 1894 2003 
Q 2506 1872 2764 1633 
Q 3022 1394 3022 966 
Q 3022 478 2636 193 
Q 2250 -91 1575 -91 
Q 1294 -91 989 -36 
Q 684 19 347 128 
L 347 722 
Q 666 556 975 473 
Q 1284 391 1588 391 
Q 1994 391 2212 530 
Q 2431 669 2431 922 
Q 2431 1156 2273 1281 
Q 2116 1406 1581 1522 
L 1381 1569 
Q 847 1681 609 1914 
Q 372 2147 372 2553 
Q 372 3047 722 3315 
Q 1072 3584 1716 3584 
Q 2034 3584 2315 3537 
Q 2597 3491 2834 3397 
z
" transform="scale(0.015625)"/>
      </defs>
      <use xlink:href="#DejaVuSans-4e"/>
      <use xlink:href="#DejaVuSans-6f" x="74.804688"/>
      <use xlink:href="#DejaVuSans-6d" x="135.986328"/>
      <use xlink:href="#DejaVuSans-62" x="233.398438"/>
      <use xlink:href="#DejaVuSans-72" x="296.875"/>
      <use xlink:href="#DejaVuSans-65" x="335.738281"/>
      <use xlink:href="#DejaVuSans-20" x="397.261719"/>
      <use xlink:href="#DejaVuSans-64" x="429.048828"/>
      <use xlink:href="#DejaVuSans-65" x="492.525391"/>
      <use xlink:href="#DejaVuSans-20" x="554.048828"/>
      <use xlink:href="#DejaVuSans-70" x="585.835938"/>
      <use xlink:href="#DejaVuSans-6f" x="649.3125"/>
      <use xlink:href="#DejaVuSans-69" x="710.494141"/>
      <use xlink:href="#DejaVuSans-6e" x="738.277344"/>
      <use xlink:href="#DejaVuSans-74" x="801.65625"/>
      <use xlink:href="#DejaVuSans-73" x="840.865234"/>
     </g>
    </g>
   </g>
   <g id="matplotlib.axis_2">
    <g id="ytick_1">
     <g id="line2d_7">
      <defs>
       <path id="ma9cd244dc3" d="M 0 0 
L -3.5 0 
" style="stroke: #000000; stroke-width: 0.8"/>
      </defs>
      <g>
       <use xlink:href="#ma9cd244dc3" x="57.6" y="296.412899" style="stroke: #000000; stroke-width: 0.8"/>
      </g>
     </g>
     <g id="text_8">
      <!-- 0 -->
      <g transform="translate(44.2375 300.212118) scale(0.1 -0.1)">
       <use xlink:href="#DejaVuSans-30"/>
      </g>
     </g>
    </g>
    <g id="ytick_2">
     <g id="line2d_8">
      <g>
       <use xlink:href="#ma9cd244dc3" x="57.6" y="257.222244" style="stroke: #000000; stroke-width: 0.8"/>
      </g>
     </g>
     <g id="text_9">
      <!-- 500 -->
      <g transform="translate(31.5125 261.021462) scale(0.1 -0.1)">
       <defs>
        <path id="DejaVuSans-35" d="M 691 4666 
L 3169 4666 
L 3169 4134 
L 1269 4134 
L 1269 2991 
Q 1406 3038 1543 3061 
Q 1681 3084 1819 3084 
Q 2600 3084 3056 2656 
Q 3513 2228 3513 1497 
Q 3513 744 3044 326 
Q 2575 -91 1722 -91 
Q 1428 -91 1123 -41 
Q 819 9 494 109 
L 494 744 
Q 775 591 1075 516 
Q 1375 441 1709 441 
Q 2250 441 2565 725 
Q 2881 1009 2881 1497 
Q 2881 1984 2565 2268 
Q 2250 2553 1709 2553 
Q 1456 2553 1204 2497 
Q 953 2441 691 2322 
L 691 4666 
z
" transform="scale(0.015625)"/>
       </defs>
       <use xlink:href="#DejaVuSans-35"/>
       <use xlink:href="#DejaVuSans-30" x="63.623047"/>
       <use xlink:href="#DejaVuSans-30" x="127.246094"/>
      </g>
     </g>
    </g>
    <g id="ytick_3">
     <g id="line2d_9">
      <g>
       <use xlink:href="#ma9cd244dc3" x="57.6" y="218.031588" style="stroke: #000000; stroke-width: 0.8"/>
      </g>
     </g>
     <g id="text_10">
      <!-- 1000 -->
      <g transform="translate(25.15 221.830806) scale(0.1 -0.1)">
       <use xlink:href="#DejaVuSans-31"/>
       <use xlink:href="#DejaVuSans-30" x="63.623047"/>
       <use xlink:href="#DejaVuSans-30" x="127.246094"/>
       <use xlink:href="#DejaVuSans-30" x="190.869141"/>
      </g>
     </g>
    </g>
    <g id="ytick_4">
     <g id="line2d_10">
      <g>
       <use xlink:href="#ma9cd244dc3" x="57.6" y="178.840932" style="stroke: #000000; stroke-width: 0.8"/>
      </g>
     </g>
     <g id="text_11">
      <!-- 1500 -->
      <g transform="translate(25.15 182.64015) scale(0.1 -0.1)">
       <use xlink:href="#DejaVuSans-31"/>
       <use xlink:href="#DejaVuSans-35" x="63.623047"/>
       <use xlink:href="#DejaVuSans-30" x="127.246094"/>
       <use xlink:href="#DejaVuSans-30" x="190.869141"/>
      </g>
     </g>
    </g>
    <g id="ytick_5">
     <g id="line2d_11">
      <g>
       <use xlink:href="#ma9cd244dc3" x="57.6" y="139.650276" style="stroke: #000000; stroke-width: 0.8"/>
      </g>
     </g>
     <g id="text_12">
      <!-- 2000 -->
      <g transform="translate(25.15 143.449495) scale(0.1 -0.1)">
       <use xlink:href="#DejaVuSans-32"/>
       <use xlink:href="#DejaVuSans-30" x="63.623047"/>
       <use xlink:href="#DejaVuSans-30" x="127.246094"/>
       <use xlink:href="#DejaVuSans-30" x="190.869141"/>
      </g>
     </g>
    </g>
    <g id="ytick_6">
     <g id="line2d_12">
      <g>
       <use xlink:href="#ma9cd244dc3" x="57.6" y="100.45962" style="stroke: #000000; stroke-width: 0.8"/>
      </g>
     </g>
     <g id="text_13">
      <!-- 2500 -->
      <g transform="translate(25.15 104.258839) scale(0.1 -0.1)">
       <use xlink:href="#DejaVuSans-32"/>
       <use xlink:href="#DejaVuSans-35" x="63.623047"/>
       <use xlink:href="#DejaVuSans-30" x="127.246094"/>
       <use xlink:href="#DejaVuSans-30" x="190.869141"/>
      </g>
     </g>
    </g>
    <g id="ytick_7">
     <g id="line2d_13">
      <g>
       <use xlink:href="#ma9cd244dc3" x="57.6" y="61.268964" style="stroke: #000000; stroke-width: 0.8"/>
      </g>
     </g>
     <g id="text_14">
      <!-- 3000 -->
      <g transform="translate(25.15 65.068183) scale(0.1 -0.1)">
       <defs>
        <path id="DejaVuSans-33" d="M 2597 2516 
Q 3050 2419 3304 2112 
Q 3559 1806 3559 1356 
Q 3559 666 3084 287 
Q 2609 -91 1734 -91 
Q 1441 -91 1130 -33 
Q 819 25 488 141 
L 488 750 
Q 750 597 1062 519 
Q 1375 441 1716 441 
Q 2309 441 2620 675 
Q 2931 909 2931 1356 
Q 2931 1769 2642 2001 
Q 2353 2234 1838 2234 
L 1294 2234 
L 1294 2753 
L 1863 2753 
Q 2328 2753 2575 2939 
Q 2822 3125 2822 3475 
Q 2822 3834 2567 4026 
Q 2313 4219 1838 4219 
Q 1578 4219 1281 4162 
Q 984 4106 628 3988 
L 628 4550 
Q 988 4650 1302 4700 
Q 1616 4750 1894 4750 
Q 2613 4750 3031 4423 
Q 3450 4097 3450 3541 
Q 3450 3153 3228 2886 
Q 3006 2619 2597 2516 
z
" transform="scale(0.015625)"/>
       </defs>
       <use xlink:href="#DejaVuSans-33"/>
       <use xlink:href="#DejaVuSans-30" x="63.623047"/>
       <use xlink:href="#DejaVuSans-30" x="127.246094"/>
       <use xlink:href="#DejaVuSans-30" x="190.869141"/>
      </g>
     </g>
    </g>
    <g id="text_15">
     <!-- Temps moyen (nanosecondes) -->
     <g transform="translate(19.070312 250.64675) rotate(-90) scale(0.1 -0.1)">
      <defs>
       <path id="DejaVuSans-54" d="M -19 4666 
L 3928 4666 
L 3928 4134 
L 2272 4134 
L 2272 0 
L 1638 0 
L 1638 4134 
L -19 4134 
L -19 4666 
z
" transform="scale(0.015625)"/>
       <path id="DejaVuSans-79" d="M 2059 -325 
Q 1816 -950 1584 -1140 
Q 1353 -1331 966 -1331 
L 506 -1331 
L 506 -850 
L 844 -850 
Q 1081 -850 1212 -737 
Q 1344 -625 1503 -206 
L 1606 56 
L 191 3500 
L 800 3500 
L 1894 763 
L 2988 3500 
L 3597 3500 
L 2059 -325 
z
" transform="scale(0.015625)"/>
       <path id="DejaVuSans-28" d="M 1984 4856 
Q 1566 4138 1362 3434 
Q 1159 2731 1159 2009 
Q 1159 1288 1364 580 
Q 1569 -128 1984 -844 
L 1484 -844 
Q 1016 -109 783 600 
Q 550 1309 550 2009 
Q 550 2706 781 3412 
Q 1013 4119 1484 4856 
L 1984 4856 
z
" transform="scale(0.015625)"/>
       <path id="DejaVuSans-61" d="M 2194 1759 
Q 1497 1759 1228 1600 
Q 959 1441 959 1056 
Q 959 750 1161 570 
Q 1363 391 1709 391 
Q 2188 391 2477 730 
Q 2766 1069 2766 1631 
L 2766 1759 
L 2194 1759 
z
M 3341 1997 
L 3341 0 
L 2766 0 
L 2766 531 
Q 2569 213 2275 61 
Q 1981 -91 1556 -91 
Q 1019 -91 701 211 
Q 384 513 384 1019 
Q 384 1609 779 1909 
Q 1175 2209 1959 2209 
L 2766 2209 
L 2766 2266 
Q 2766 2663 2505 2880 
Q 2244 3097 1772 3097 
Q 1472 3097 1187 3025 
Q 903 2953 641 2809 
L 641 3341 
Q 956 3463 1253 3523 
Q 1550 3584 1831 3584 
Q 2591 3584 2966 3190 
Q 3341 2797 3341 1997 
z
" transform="scale(0.015625)"/>
       <path id="DejaVuSans-63" d="M 3122 3366 
L 3122 2828 
Q 2878 2963 2633 3030 
Q 2388 3097 2138 3097 
Q 1578 3097 1268 2742 
Q 959 2388 959 1747 
Q 959 1106 1268 751 
Q 1578 397 2138 397 
Q 2388 397 2633 464 
Q 2878 531 3122 666 
L 3122 134 
Q 2881 22 2623 -34 
Q 2366 -91 2075 -91 
Q 1284 -91 818 406 
Q 353 903 353 1747 
Q 353 2603 823 3093 
Q 1294 3584 2113 3584 
Q 2378 3584 2631 3529 
Q 2884 3475 3122 3366 
z
" transform="scale(0.015625)"/>
       <path id="DejaVuSans-29" d="M 513 4856 
L 1013 4856 
Q 1481 4119 1714 3412 
Q 1947 2706 1947 2009 
Q 1947 1309 1714 600 
Q 1481 -109 1013 -844 
L 513 -844 
Q 928 -128 1133 580 
Q 1338 1288 1338 2009 
Q 1338 2731 1133 3434 
Q 928 4138 513 4856 
z
" transform="scale(0.015625)"/>
      </defs>
      <use xlink:href="#DejaVuSans-54"/>
      <use xlink:href="#DejaVuSans-65" x="44.083984"/>
      <use xlink:href="#DejaVuSans-6d" x="105.607422"/>
      <use xlink:href="#DejaVuSans-70" x="203.019531"/>
      <use xlink:href="#DejaVuSans-73" x="266.496094"/>
      <use xlink:href="#DejaVuSans-20" x="318.595703"/>
      <use xlink:href="#DejaVuSans-6d" x="350.382812"/>
      <use xlink:href="#DejaVuSans-6f" x="447.794922"/>
      <use xlink:href="#DejaVuSans-79" x="508.976562"/>
      <use xlink:href="#DejaVuSans-65" x="568.15625"/>
      <use xlink:href="#DejaVuSans-6e" x="629.679688"/>
      <use xlink:href="#DejaVuSans-20" x="693.058594"/>
      <use xlink:href="#DejaVuSans-28" x="724.845703"/>
      <use xlink:href="#DejaVuSans-6e" x="763.859375"/>
      <use xlink:href="#DejaVuSans-61" x="827.238281"/>
      <use xlink:href="#DejaVuSans-6e" x="888.517578"/>
      <use xlink:href="#DejaVuSans-6f" x="951.896484"/>
      <use xlink:href="#DejaVuSans-73" x="1013.078125"/>
      <use xlink:href="#DejaVuSans-65" x="1065.177734"/>
      <use xlink:href="#DejaVuSans-63" x="1126.701172"/>
      <use xlink:href="#DejaVuSans-6f" x="1181.681641"/>
      <use xlink:href="#DejaVuSans-6e" x="1242.863281"/>
      <use xlink:href="#DejaVuSans-64" x="1306.242188"/>
      <use xlink:href="#DejaVuSans-65" x="1369.71875"/>
      <use xlink:href="#DejaVuSans-73" x="1431.242188"/>
      <use xlink:href="#DejaVuSans-29" x="1483.341797"/>
     </g>
    </g>
   </g>
   <g id="line2d_14">
    <path d="M 73.832727 295.174475 
L 74.158032 295.378266 
L 74.483338 295.256775 
L 74.808643 295.488 
L 75.784558 294.672834 
L 76.435169 293.908617 
L 76.760474 294.100651 
L 77.411084 293.606849 
L 77.736389 293.030746 
L 78.061694 293.195347 
L 78.712305 292.568296 
L 79.03761 292.521267 
L 79.362915 292.094089 
L 79.68822 292.09017 
L 80.013525 291.329871 
L 80.33883 291.635559 
L 80.664136 291.474877 
L 81.314746 290.937965 
L 81.640051 290.220776 
L 81.965356 290.549977 
L 82.615966 290.165909 
L 83.266577 289.217495 
L 83.917187 289.291957 
L 84.567797 288.590445 
L 84.893103 288.539497 
L 85.218408 288.347462 
L 85.543713 287.888932 
L 85.869018 287.85366 
L 86.194323 287.704736 
L 86.519628 287.242286 
L 86.844934 287.2658 
L 87.170239 286.662264 
L 87.495544 286.830784 
L 87.820849 286.207653 
L 88.146154 286.152786 
L 88.471459 285.733446 
L 88.796764 285.686417 
L 90.42329 284.702731 
L 91.073901 283.78567 
L 91.399206 283.989462 
L 91.724511 283.856213 
L 92.375121 282.907799 
L 92.700426 283.021452 
L 93.025731 282.347373 
L 93.351037 282.747118 
L 93.676342 281.716404 
L 94.001647 282.135744 
L 94.326952 281.348011 
L 94.652257 281.657618 
L 94.977562 281.277468 
L 95.302868 281.383283 
L 95.628173 280.68177 
L 95.953478 281.054081 
L 96.278783 279.604027 
L 96.604088 280.438788 
L 96.929393 279.329693 
L 97.254698 279.768628 
L 97.905309 279.353207 
L 98.230614 279.459022 
L 98.555919 278.828052 
L 99.531835 278.565475 
L 99.85714 278.259788 
L 100.182445 277.585708 
L 100.50775 277.287859 
L 100.833055 277.648413 
L 101.15836 276.911629 
L 101.483666 276.515803 
L 101.808971 276.903791 
L 102.134276 276.178764 
L 102.459581 275.884834 
L 102.784886 276.135654 
L 103.110191 276.049435 
L 103.435496 275.822129 
L 103.760802 275.410627 
L 104.086107 275.449818 
L 104.411412 275.277379 
L 104.736717 274.7679 
L 105.062022 272.428218 
L 105.387327 274.462213 
L 106.037938 273.752862 
L 106.363243 273.533395 
L 106.688548 273.709752 
L 107.013853 273.168921 
L 107.339158 273.114055 
L 107.664463 270.762615 
L 107.989769 270.437333 
L 108.315074 270.311923 
L 108.640379 268.089812 
L 108.965684 269.579057 
L 109.616294 269.512433 
L 110.266905 268.595372 
L 110.59221 270.672477 
L 110.917515 270.801806 
L 111.24282 270.119888 
L 111.568125 265.342547 
L 111.89343 258.24512 
L 112.218736 257.347654 
L 112.544041 259.808827 
L 112.869346 269.026469 
L 113.194651 268.60321 
L 113.845261 268.324956 
L 114.495872 267.26289 
L 114.821177 265.573772 
L 115.146482 265.656073 
L 115.471787 264.884017 
L 115.797092 266.408533 
L 116.122398 265.66783 
L 116.447703 265.620801 
L 116.773008 262.22689 
L 117.098313 266.00095 
L 117.748923 265.714859 
L 118.074228 265.12308 
L 118.724839 264.664549 
L 119.050144 264.966317 
L 119.375449 264.719416 
L 119.700754 264.221695 
L 120.026059 262.238648 
L 120.351365 262.77164 
L 120.67667 263.986551 
L 121.001975 262.94016 
L 121.32728 262.297433 
L 121.652585 262.716774 
L 121.97789 262.944079 
L 122.303195 261.34902 
L 122.628501 262.411086 
L 122.953806 261.944718 
L 123.279111 262.407167 
L 123.604416 261.952556 
L 123.929721 260.67494 
L 124.580332 260.251681 
L 124.905637 259.804908 
L 125.230942 260.439796 
L 125.556247 259.54233 
L 125.881552 254.631741 
L 126.206857 251.676766 
L 126.532163 250.375636 
L 126.857468 259.201372 
L 127.182773 259.475706 
L 127.508078 258.605674 
L 127.833383 258.695812 
L 128.158688 258.343096 
L 128.483993 257.437792 
L 128.809299 258.676217 
L 129.134604 257.684693 
L 129.459909 257.096833 
L 129.785214 257.049805 
L 130.110519 257.484821 
L 130.435824 255.787866 
L 130.76113 256.834256 
L 131.086435 255.991657 
L 131.41174 255.470421 
L 131.737045 254.717961 
L 132.06235 254.902157 
L 132.387655 254.165372 
L 133.038266 254.686608 
L 133.363571 254.369164 
L 133.688876 241.083531 
L 134.339486 254.670932 
L 134.664791 253.50305 
L 134.990097 254.353488 
L 135.315402 253.37764 
L 135.640707 253.71468 
L 135.966012 251.880557 
L 136.291317 252.844647 
L 136.616622 250.160087 
L 136.941927 252.444903 
L 137.267233 251.335807 
L 138.243148 251.637575 
L 138.568453 250.810652 
L 138.893758 250.916467 
L 139.219064 250.555913 
L 139.544369 249.419384 
L 139.869674 249.631013 
L 140.194979 249.674123 
L 140.520284 248.97261 
L 140.845589 249.556551 
L 141.170895 249.39587 
L 141.4962 248.549351 
L 141.821505 249.219512 
L 142.472115 248.294612 
L 142.79742 248.26326 
L 143.122725 247.459851 
L 143.448031 247.542152 
L 143.773336 247.248222 
L 144.098641 247.71459 
L 144.423946 246.797529 
L 144.749251 246.507518 
L 145.074556 244.15216 
L 145.399862 245.70411 
L 145.725167 246.170479 
L 146.050472 246.045068 
L 146.375777 245.406261 
L 146.701082 245.292608 
L 147.026387 244.595014 
L 147.351692 245.543428 
L 147.676998 244.669476 
L 148.002303 244.598933 
L 148.327608 244.046345 
L 148.652913 244.5715 
L 148.978218 244.02675 
L 149.303523 242.576695 
L 149.628829 243.094012 
L 150.279439 243.317399 
L 150.604744 243.262532 
L 150.930049 243.419295 
L 151.58066 243.129284 
L 152.23127 241.93005 
L 152.556575 241.926131 
L 152.88188 241.404895 
L 153.53249 240.719058 
L 153.857796 239.425767 
L 154.183101 239.233732 
L 154.833711 240.58581 
L 155.159016 239.080889 
L 155.484321 238.912369 
L 155.809627 238.414648 
L 156.134932 236.30619 
L 156.460237 237.717054 
L 156.785542 237.846383 
L 157.110847 237.783678 
L 157.436152 236.302271 
L 157.761457 236.353219 
L 158.086763 237.372176 
L 158.412068 235.914284 
L 158.737373 237.427043 
L 159.062678 236.56093 
L 159.387983 236.321867 
L 159.713288 236.3493 
L 160.038594 236.192538 
L 160.363899 235.103037 
L 161.014509 235.487106 
L 161.339814 235.099118 
L 161.665119 235.248043 
L 161.990424 233.997861 
L 162.31573 234.479906 
L 162.641035 234.750321 
L 162.96634 234.597478 
L 163.291645 233.555006 
L 163.942255 232.653621 
L 164.267561 233.116071 
L 164.592866 233.178776 
L 165.243476 232.093195 
L 165.568781 231.783589 
L 165.894086 232.653621 
L 166.219392 231.752236 
L 166.544697 231.963866 
L 166.870002 231.673855 
L 167.195307 231.658179 
L 167.520612 231.019371 
L 167.845917 231.215324 
L 168.171222 230.682331 
L 168.496528 229.628103 
L 168.821833 229.099029 
L 169.147138 229.745675 
L 169.472443 229.306739 
L 169.797748 229.467421 
L 170.123053 230.117986 
L 170.448359 229.937709 
L 170.773664 227.993852 
L 171.098969 228.542522 
L 171.424274 227.531403 
L 171.749579 227.79398 
L 172.074884 228.276025 
L 172.400189 228.221158 
L 173.0508 226.963138 
L 173.376105 227.715599 
L 173.70141 225.767823 
L 174.026715 226.104863 
L 174.35202 226.931786 
L 174.677326 226.751509 
L 175.002631 226.124458 
L 175.327936 201.9595 
L 175.653241 223.80829 
L 175.978546 225.371997 
L 176.303851 225.893233 
L 176.629156 225.422945 
L 176.954462 224.388312 
L 177.279767 224.627375 
L 177.605072 224.176682 
L 178.580987 223.992486 
L 178.906293 220.508437 
L 179.231598 223.287055 
L 179.556903 223.530037 
L 179.882208 223.036234 
L 180.207513 221.860515 
L 180.532818 222.338641 
L 180.858124 221.202112 
L 181.183429 220.684795 
L 181.508734 220.571142 
L 181.834039 221.558747 
L 182.159344 221.159002 
L 182.484649 221.597937 
L 182.809954 219.544347 
L 183.13526 220.492761 
L 183.460565 220.190993 
L 183.78587 218.595933 
L 184.111175 219.940173 
L 184.43648 217.498595 
L 184.761785 217.251694 
L 185.087091 218.60769 
L 185.412396 218.764453 
L 185.737701 214.410371 
L 186.063006 217.439809 
L 186.388311 218.654719 
L 186.713616 215.017826 
L 187.038921 218.156998 
L 187.364227 216.072055 
L 187.689532 218.219703 
L 188.014837 217.682791 
L 188.340142 216.742215 
L 188.665447 216.318956 
L 188.990752 216.166112 
L 189.316058 215.699744 
L 189.641363 215.429328 
L 189.966668 216.193546 
L 190.291973 214.524024 
L 190.617278 214.555376 
L 190.942583 214.900254 
L 191.267889 213.520743 
L 191.918499 215.370542 
L 192.243804 212.921126 
L 192.569109 214.143875 
L 192.894414 213.124917 
L 193.219719 213.712777 
L 193.545025 213.097484 
L 193.87033 212.850583 
L 194.195635 211.757164 
L 194.52094 213.015184 
L 194.846245 209.707492 
L 195.17155 212.450838 
L 195.496856 212.3607 
L 195.822161 210.393329 
L 196.147466 211.486748 
L 196.472771 207.932156 
L 196.798076 209.640868 
L 197.123381 208.371091 
L 197.448686 211.631754 
L 197.773992 211.380933 
L 198.099297 210.59712 
L 198.424602 210.162104 
L 198.749907 210.107237 
L 199.075212 210.311028 
L 199.400517 209.92696 
L 199.725823 208.54353 
L 200.051128 208.053647 
L 200.376433 208.610154 
L 200.701738 207.78715 
L 201.027043 208.723807 
L 201.677653 207.348215 
L 202.002959 207.626468 
L 202.328264 207.74796 
L 202.978874 206.219524 
L 203.304179 204.663655 
L 203.95479 206.497778 
L 204.280095 205.392601 
L 204.6054 205.843294 
L 204.930705 205.568959 
L 205.25601 205.77275 
L 205.906621 204.969342 
L 206.231926 204.914475 
L 206.557231 204.197286 
L 206.882536 204.416754 
L 207.207841 203.319415 
L 207.858451 204.111067 
L 208.183757 203.672131 
L 208.834367 200.286059 
L 209.159672 200.576069 
L 209.484977 196.888229 
L 209.810282 203.021566 
L 210.135588 202.845208 
L 210.460893 202.284782 
L 210.786198 202.21032 
L 211.111503 202.339649 
L 211.436808 201.563674 
L 211.762113 201.422588 
L 212.087418 200.791618 
L 212.412724 201.230553 
L 212.738029 199.921586 
L 213.063334 200.623098 
L 213.388639 184.605877 
L 213.713944 198.773299 
L 214.039249 199.412107 
L 214.364555 199.756985 
L 214.68986 197.413384 
L 215.015165 197.405545 
L 215.34047 197.581903 
L 215.665775 198.502884 
L 215.99108 198.628294 
L 216.316385 197.965972 
L 216.641691 196.163202 
L 216.966996 196.457132 
L 217.292301 197.487846 
L 217.617606 197.852319 
L 217.942911 195.881029 
L 218.268216 197.127292 
L 218.593522 195.732104 
L 218.918827 195.716428 
L 219.244132 195.304926 
L 219.569437 195.304926 
L 219.894742 193.549185 
L 220.220047 194.752338 
L 220.545353 194.285969 
L 220.870658 194.967887 
L 221.195963 194.764095 
L 221.521268 194.172316 
L 221.846573 191.566138 
L 222.171878 186.73393 
L 222.497183 194.28205 
L 222.822489 193.357151 
L 223.147794 193.282688 
L 223.473099 192.835915 
L 223.798404 191.840472 
L 224.123709 191.671952 
L 224.449014 191.926692 
L 224.77432 191.993316 
L 225.099625 192.326436 
L 225.42493 191.503433 
L 225.750235 191.17815 
L 226.07554 191.550461 
L 226.400845 190.813677 
L 226.72615 188.642515 
L 227.051456 190.331632 
L 227.376761 189.87702 
L 227.702066 189.66931 
L 228.027371 189.320513 
L 228.677981 187.274761 
L 229.003287 188.889416 
L 229.328592 188.881578 
L 229.653897 185.738487 
L 229.979202 188.383856 
L 230.955118 183.112713 
L 231.280423 183.434077 
L 231.605728 187.69802 
L 231.931033 186.48311 
L 232.256338 186.306752 
L 232.581643 185.276037 
L 232.906948 185.385771 
L 233.232254 186.925964 
L 233.557559 186.114717 
L 233.882864 185.746325 
L 234.208169 185.950117 
L 234.533474 176.646255 
L 234.858779 184.421681 
L 235.184085 184.55101 
L 235.834695 183.202852 
L 236.16 161.636234 
L 236.485305 181.666578 
L 236.81061 182.716888 
L 237.461221 182.195652 
L 237.786526 182.050646 
L 238.111831 182.865812 
L 238.437136 183.108794 
L 238.762441 178.249153 
L 239.087746 182.375929 
L 240.063662 181.984022 
L 240.388967 180.588835 
L 240.714272 180.545725 
L 241.039577 180.773031 
L 241.364882 180.024489 
L 241.690188 180.059761 
L 242.340798 180.835736 
L 242.666103 180.185171 
L 242.991408 180.330177 
L 243.316713 178.813498 
L 243.642019 179.522849 
L 244.292629 177.077352 
L 244.617934 175.944742 
L 244.943239 175.999609 
L 245.268544 176.740313 
L 245.59385 144.215987 
L 245.919155 177.88468 
L 246.24446 177.057757 
L 246.569765 177.743593 
L 246.89507 170.853876 
L 247.220375 156.419957 
L 247.54568 174.749427 
L 247.870986 174.81997 
L 248.196291 175.470535 
L 248.521596 171.959053 
L 248.846901 175.317692 
L 249.172206 172.033515 
L 249.822817 175.490131 
L 250.473427 175.278501 
L 250.798732 174.431983 
L 251.124037 174.647532 
L 251.449342 174.381035 
L 252.099953 173.530598 
L 252.425258 173.56195 
L 252.750563 171.782695 
L 253.075868 171.186997 
L 253.401173 171.629851 
L 253.726478 169.783971 
L 254.051784 170.25034 
L 254.377089 164.089569 
L 254.702394 169.948572 
L 255.027699 168.083097 
L 255.353004 168.57298 
L 255.678309 168.290807 
L 256.003615 168.635685 
L 256.32892 167.471722 
L 256.654225 168.815962 
L 256.97953 168.032149 
L 257.304835 168.702309 
L 257.63014 167.169954 
L 257.955445 168.663118 
L 258.280751 167.138602 
L 258.606056 167.448208 
L 258.931361 165.97072 
L 259.256666 165.731657 
L 259.581971 164.606885 
L 259.907276 162.988311 
L 260.557887 166.417494 
L 260.883192 161.922326 
L 261.208497 166.397898 
L 261.533802 166.174512 
L 261.859107 166.464523 
L 262.184412 166.570337 
L 262.835023 164.571614 
L 263.160328 165.821796 
L 263.810938 162.882497 
L 264.136243 162.141793 
L 264.461549 164.861625 
L 264.786854 163.964159 
L 265.112159 162.341666 
L 265.437464 163.928887 
L 266.088074 163.458599 
L 266.413379 163.909292 
L 266.738685 162.44748 
L 267.06399 162.384775 
L 267.389295 160.926883 
L 267.7146 162.616 
L 268.039905 160.103879 
L 268.36521 161.894892 
L 268.690516 155.357891 
L 269.015821 161.067969 
L 269.341126 159.876573 
L 269.666431 161.502986 
L 269.991736 160.084284 
L 270.317041 156.259276 
L 270.642347 154.385962 
L 271.292957 158.011098 
L 271.618262 156.600234 
L 271.943567 158.285433 
L 272.268872 159.355338 
L 272.919483 156.447391 
L 273.244788 152.520487 
L 273.570093 156.549287 
L 273.895398 158.763559 
L 274.220703 158.399086 
L 274.546008 157.513377 
L 274.871314 157.560406 
L 275.196619 157.728925 
L 275.521924 156.851055 
L 275.847229 155.173695 
L 276.172534 149.694841 
L 276.497839 156.298466 
L 276.823144 156.772673 
L 277.14845 156.854974 
L 277.79906 156.431715 
L 278.124365 155.075718 
L 278.44967 154.993418 
L 278.774975 154.762193 
L 279.100281 154.668135 
L 279.425586 154.997337 
L 279.750891 154.56232 
L 280.076196 154.503534 
L 280.401501 152.689007 
L 281.377417 150.439463 
L 281.702722 146.104977 
L 282.028027 151.262467 
L 282.353332 147.304211 
L 282.678637 151.701402 
L 283.003942 151.368282 
L 283.329248 148.887513 
L 283.979858 151.575992 
L 284.305163 151.329091 
L 284.630468 148.519121 
L 284.955773 148.35452 
L 285.281079 147.55895 
L 285.606384 149.78106 
L 285.931689 150.392435 
L 286.256994 150.086747 
L 286.582299 150.043638 
L 286.907604 116.802123 
L 287.232909 144.921419 
L 287.558215 143.185273 
L 287.88352 144.364912 
L 288.208825 148.299654 
L 288.53413 145.356435 
L 288.859435 148.084105 
L 289.18474 143.596775 
L 289.510046 144.70587 
L 289.835351 146.355797 
L 290.160656 145.532793 
L 290.485961 139.611085 
L 290.811266 144.721547 
L 291.136571 145.050748 
L 291.461876 145.078182 
L 291.787182 143.592856 
L 292.112487 141.108168 
L 292.437792 141.970363 
L 292.763097 143.353793 
L 293.088402 142.538627 
L 293.413707 137.130317 
L 293.739013 143.420417 
L 294.064318 144.384507 
L 294.389623 141.527508 
L 294.714928 143.220545 
L 295.040233 143.32244 
L 295.365538 142.44457 
L 295.690844 142.914857 
L 296.016149 139.685547 
L 296.341454 140.26165 
L 296.666759 140.434089 
L 296.992064 141.151278 
L 297.317369 138.110083 
L 297.642674 139.101607 
L 297.96798 140.751533 
L 298.61859 137.173426 
L 298.943895 137.839667 
L 299.2692 135.935002 
L 299.594505 138.451042 
L 299.919811 136.432723 
L 300.245116 131.686734 
L 300.570421 135.249165 
L 300.895726 137.028421 
L 301.221031 137.467356 
L 301.871641 129.539087 
L 302.196947 136.432723 
L 302.522252 138.50199 
L 302.847557 136.973554 
L 303.172862 137.647633 
L 303.498167 135.676343 
L 303.823472 135.213894 
L 304.148778 135.394171 
L 304.474083 134.986588 
L 304.799388 98.480492 
L 305.124693 133.55221 
L 305.449998 134.943478 
L 305.775303 130.918598 
L 306.100608 134.104798 
L 306.425914 134.908206 
L 306.751219 131.722006 
L 307.076524 134.336023 
L 307.401829 131.569163 
L 307.727134 130.025051 
L 308.052439 129.590034 
L 308.377745 130.256276 
L 308.70305 129.503815 
L 309.028355 130.851973 
L 309.35366 130.640344 
L 309.678965 132.552848 
L 310.329576 128.253633 
L 310.654881 131.541729 
L 310.980186 131.314423 
L 311.305491 107.223927 
L 311.630796 128.629863 
L 311.956101 127.324814 
L 312.281406 127.575635 
L 312.932017 127.238595 
L 313.257322 126.08639 
L 313.582627 129.19029 
L 313.907932 127.003451 
L 314.233237 127.101428 
L 314.558543 126.270586 
L 314.883848 129.437191 
L 315.209153 127.849969 
L 315.534458 124.483492 
L 315.859763 129.605711 
L 316.185068 124.49133 
L 316.510373 126.936827 
L 316.835679 126.38032 
L 317.160984 124.236591 
L 317.486289 126.627221 
L 317.811594 126.893717 
L 318.136899 118.252178 
L 318.462204 121.88907 
L 318.78751 122.026238 
L 319.112815 125.929627 
L 319.43812 121.438378 
L 319.763425 123.382234 
L 320.08873 123.664407 
L 320.414035 124.475654 
L 321.064646 120.544831 
L 321.389951 116.112368 
L 321.715256 120.29793 
L 322.040561 119.980486 
L 322.365866 121.450135 
L 322.691171 114.438927 
L 323.016477 123.170605 
L 323.341782 121.563788 
L 323.667087 121.238506 
L 323.992392 118.597055 
L 324.317697 121.414864 
L 324.968308 112.922248 
L 325.293613 118.236501 
L 325.618918 121.700955 
L 325.944223 95.0082 
L 326.269528 53.568 
L 326.594833 119.902104 
L 326.920138 120.744703 
L 327.245444 120.231306 
L 327.570749 118.013115 
L 327.896054 121.544193 
L 328.221359 117.574179 
L 328.546664 117.433093 
L 328.871969 119.992243 
L 329.197275 110.813791 
L 329.52258 118.491241 
L 329.847885 113.423889 
L 330.17319 118.773413 
L 330.498495 119.008557 
L 330.8238 111.401651 
L 331.149105 115.669513 
L 331.474411 116.978481 
L 331.799716 113.079011 
L 332.125021 112.134516 
L 332.450326 113.760928 
L 332.775631 116.547384 
L 333.100936 117.691751 
L 333.426242 113.659033 
L 333.751547 117.182273 
L 334.076852 116.759014 
L 334.402157 111.519223 
L 334.727462 116.457246 
L 335.052767 114.242974 
L 335.378073 114.070535 
L 335.703378 114.736776 
L 336.028683 111.668147 
L 336.353988 112.604804 
L 336.679293 110.711895 
L 337.004598 110.927444 
L 337.329903 109.371575 
L 337.655209 111.793558 
L 337.980514 106.114831 
L 338.305819 107.482585 
L 338.631124 110.543376 
L 338.956429 111.652471 
L 339.281734 109.908487 
L 340.25765 111.770043 
L 340.582955 105.985502 
L 340.90826 106.146184 
L 341.884176 110.457156 
L 342.209481 111.001906 
L 342.534786 108.983587 
L 342.860091 108.140988 
L 343.185396 109.544014 
L 343.510701 105.378047 
L 343.836007 107.400285 
L 344.486617 104.280709 
L 344.811922 108.121393 
L 345.137227 108.771958 
L 345.462532 96.422982 
L 345.787837 104.594234 
L 346.113143 100.173528 
L 346.438448 103.798664 
L 346.763753 105.095874 
L 347.089058 104.178813 
L 347.414363 107.223927 
L 347.739668 104.688292 
L 348.064974 106.12267 
L 348.390279 68.495721 
L 348.715584 106.589038 
L 349.040889 106.103074 
L 349.366194 105.95415 
L 349.691499 106.553767 
L 350.016805 105.722925 
L 350.667415 104.950869 
L 350.99272 104.856811 
L 351.318025 100.706521 
L 351.64333 100.777064 
L 351.968635 79.10855 
L 352.293941 100.714359 
L 352.619246 100.153933 
L 352.944551 100.189204 
L 353.269856 98.958618 
L 353.595161 101.858726 
L 353.920466 97.473292 
L 354.245772 100.745712 
L 354.571077 96.697317 
L 354.896382 95.882151 
L 355.221687 99.546478 
L 355.546992 92.425535 
L 355.872297 89.439207 
L 356.197602 97.359639 
L 356.522908 96.842322 
L 356.848213 96.952056 
L 357.498823 93.068262 
L 357.824128 92.550945 
L 358.149433 91.724023 
L 358.474739 89.84679 
L 358.800044 93.53855 
L 359.125349 90.289645 
L 359.450654 95.513759 
L 359.775959 89.921252 
L 360.101264 91.73578 
L 360.42657 91.641722 
L 360.751875 89.909495 
L 361.07718 94.710351 
L 361.402485 92.550945 
L 361.72779 97.014761 
L 362.053095 86.946682 
L 362.3784 97.159767 
L 362.703706 93.754099 
L 363.029011 93.565983 
L 363.354316 93.993162 
L 363.679621 93.471926 
L 364.004926 90.207344 
L 364.330231 91.626046 
L 364.655537 93.871671 
L 364.980842 91.731861 
L 365.306147 91.206706 
L 365.631452 93.793289 
L 366.282062 91.598613 
L 366.607367 87.8755 
L 366.932673 86.774243 
L 367.257978 88.957162 
L 367.583283 89.968281 
L 367.908588 82.808148 
L 368.233893 92.257016 
L 368.559198 90.783447 
L 368.884504 84.657947 
L 369.209809 87.385617 
L 369.535114 88.71418 
L 369.860419 89.184468 
L 370.185724 86.938844 
L 370.511029 88.032263 
L 370.836334 89.658675 
L 371.16164 85.265403 
L 371.486945 88.745533 
L 371.81225 86.966277 
L 372.137555 89.329474 
L 372.46286 83.039373 
L 372.788165 85.845424 
L 373.113471 84.94012 
L 373.438776 85.692581 
L 373.764081 83.979949 
L 374.089386 85.284998 
L 374.414691 82.043931 
L 374.739996 85.82191 
L 375.065302 83.697776 
L 375.390607 86.813433 
L 375.715912 82.63571 
L 376.041217 86.664509 
L 376.366522 84.47767 
L 377.017132 85.770962 
L 377.342438 83.729129 
L 377.667743 83.176541 
L 377.993048 78.23068 
L 378.318353 82.663143 
L 378.643658 82.792472 
L 378.968963 83.650747 
L 379.294269 83.082483 
L 379.619574 79.602353 
L 380.270184 83.478309 
L 380.595489 83.603719 
L 380.920794 83.102078 
L 381.246099 81.072002 
L 381.571405 81.385528 
L 381.89671 82.902206 
L 382.222015 80.119669 
L 382.54732 81.37377 
L 383.19793 77.094151 
L 383.523236 80.926997 
L 383.848541 79.716006 
L 384.173846 77.031446 
L 384.499151 79.230042 
L 384.824456 78.136622 
L 385.149761 75.005289 
L 385.800372 78.908678 
L 386.125677 78.908678 
L 386.450982 72.332486 
L 386.776287 78.383523 
L 387.101592 68.852356 
L 387.426897 78.077836 
L 387.752203 78.273789 
L 388.077508 76.016408 
L 388.402813 77.078474 
L 388.728118 77.341052 
L 389.053423 76.725759 
L 389.378728 74.511487 
L 389.704034 76.04776 
L 390.029339 76.290742 
L 390.354644 74.237152 
L 390.679949 75.232595 
L 391.005254 74.276343 
L 391.330559 70.224029 
L 391.655864 72.924265 
L 391.98117 74.578111 
L 392.306475 70.459173 
L 392.63178 73.543477 
L 392.957085 75.032722 
L 393.28239 73.966736 
L 393.607695 74.75055 
L 393.933001 75.150294 
L 394.258306 74.546758 
L 394.583611 71.286096 
L 394.908916 73.57483 
L 395.234221 72.293295 
L 395.559526 72.61074 
L 395.884831 70.47093 
L 396.210137 73.100623 
L 396.535442 71.630973 
L 396.860747 71.850441 
L 397.186052 67.1554 
L 397.511357 70.353358 
L 397.836662 70.224029 
L 398.161968 70.831484 
L 398.487273 68.617212 
L 398.487273 68.617212 
" clip-path="url(#pf70b732cb7)" style="fill: none; stroke: #1f77b4; stroke-width: 1.5; stroke-linecap: square"/>
   </g>
   <g id="patch_3">
    <path d="M 57.6 307.584 
L 57.6 41.472 
" style="fill: none; stroke: #000000; stroke-width: 0.8; stroke-linejoin: miter; stroke-linecap: square"/>
   </g>
   <g id="patch_4">
    <path d="M 414.72 307.584 
L 414.72 41.472 
" style="fill: none; stroke: #000000; stroke-width: 0.8; stroke-linejoin: miter; stroke-linecap: square"/>
   </g>
   <g id="patch_5">
    <path d="M 57.6 307.584 
L 414.72 307.584 
" style="fill: none; stroke: #000000; stroke-width: 0.8; stroke-linejoin: miter; stroke-linecap: square"/>
   </g>
   <g id="patch_6">
    <path d="M 57.6 41.472 
L 414.72 41.472 
" style="fill: none; stroke: #000000; stroke-width: 0.8; stroke-linejoin: miter; stroke-linecap: square"/>
   </g>
   <g id="text_16">
    <!-- Résultat benchmark dgbtrf+dgbtrs -->
    <g transform="translate(131.154375 35.472) scale(0.12 -0.12)">
     <defs>
      <path id="DejaVuSans-52" d="M 2841 2188 
Q 3044 2119 3236 1894 
Q 3428 1669 3622 1275 
L 4263 0 
L 3584 0 
L 2988 1197 
Q 2756 1666 2539 1819 
Q 2322 1972 1947 1972 
L 1259 1972 
L 1259 0 
L 628 0 
L 628 4666 
L 2053 4666 
Q 2853 4666 3247 4331 
Q 3641 3997 3641 3322 
Q 3641 2881 3436 2590 
Q 3231 2300 2841 2188 
z
M 1259 4147 
L 1259 2491 
L 2053 2491 
Q 2509 2491 2742 2702 
Q 2975 2913 2975 3322 
Q 2975 3731 2742 3939 
Q 2509 4147 2053 4147 
L 1259 4147 
z
" transform="scale(0.015625)"/>
      <path id="DejaVuSans-e9" d="M 3597 1894 
L 3597 1613 
L 953 1613 
Q 991 1019 1311 708 
Q 1631 397 2203 397 
Q 2534 397 2845 478 
Q 3156 559 3463 722 
L 3463 178 
Q 3153 47 2828 -22 
Q 2503 -91 2169 -91 
Q 1331 -91 842 396 
Q 353 884 353 1716 
Q 353 2575 817 3079 
Q 1281 3584 2069 3584 
Q 2775 3584 3186 3129 
Q 3597 2675 3597 1894 
z
M 3022 2063 
Q 3016 2534 2758 2815 
Q 2500 3097 2075 3097 
Q 1594 3097 1305 2825 
Q 1016 2553 972 2059 
L 3022 2063 
z
M 2466 5119 
L 3088 5119 
L 2070 3944 
L 1591 3944 
L 2466 5119 
z
" transform="scale(0.015625)"/>
      <path id="DejaVuSans-75" d="M 544 1381 
L 544 3500 
L 1119 3500 
L 1119 1403 
Q 1119 906 1312 657 
Q 1506 409 1894 409 
Q 2359 409 2629 706 
Q 2900 1003 2900 1516 
L 2900 3500 
L 3475 3500 
L 3475 0 
L 2900 0 
L 2900 538 
Q 2691 219 2414 64 
Q 2138 -91 1772 -91 
Q 1169 -91 856 284 
Q 544 659 544 1381 
z
M 1991 3584 
L 1991 3584 
z
" transform="scale(0.015625)"/>
      <path id="DejaVuSans-6c" d="M 603 4863 
L 1178 4863 
L 1178 0 
L 603 0 
L 603 4863 
z
" transform="scale(0.015625)"/>
      <path id="DejaVuSans-68" d="M 3513 2113 
L 3513 0 
L 2938 0 
L 2938 2094 
Q 2938 2591 2744 2837 
Q 2550 3084 2163 3084 
Q 1697 3084 1428 2787 
Q 1159 2491 1159 1978 
L 1159 0 
L 581 0 
L 581 4863 
L 1159 4863 
L 1159 2956 
Q 1366 3272 1645 3428 
Q 1925 3584 2291 3584 
Q 2894 3584 3203 3211 
Q 3513 2838 3513 2113 
z
" transform="scale(0.015625)"/>
      <path id="DejaVuSans-6b" d="M 581 4863 
L 1159 4863 
L 1159 1991 
L 2875 3500 
L 3609 3500 
L 1753 1863 
L 3688 0 
L 2938 0 
L 1159 1709 
L 1159 0 
L 581 0 
L 581 4863 
z
" transform="scale(0.015625)"/>
      <path id="DejaVuSans-67" d="M 2906 1791 
Q 2906 2416 2648 2759 
Q 2391 3103 1925 3103 
Q 1463 3103 1205 2759 
Q 947 2416 947 1791 
Q 947 1169 1205 825 
Q 1463 481 1925 481 
Q 2391 481 2648 825 
Q 2906 1169 2906 1791 
z
M 3481 434 
Q 3481 -459 3084 -895 
Q 2688 -1331 1869 -1331 
Q 1566 -1331 1297 -1286 
Q 1028 -1241 775 -1147 
L 775 -588 
Q 1028 -725 1275 -790 
Q 1522 -856 1778 -856 
Q 2344 -856 2625 -561 
Q 2906 -266 2906 331 
L 2906 616 
Q 2728 306 2450 153 
Q 2172 0 1784 0 
Q 1141 0 747 490 
Q 353 981 353 1791 
Q 353 2603 747 3093 
Q 1141 3584 1784 3584 
Q 2172 3584 2450 3431 
Q 2728 3278 2906 2969 
L 2906 3500 
L 3481 3500 
L 3481 434 
z
" transform="scale(0.015625)"/>
      <path id="DejaVuSans-66" d="M 2375 4863 
L 2375 4384 
L 1825 4384 
Q 1516 4384 1395 4259 
Q 1275 4134 1275 3809 
L 1275 3500 
L 2222 3500 
L 2222 3053 
L 1275 3053 
L 1275 0 
L 697 0 
L 697 3053 
L 147 3053 
L 147 3500 
L 697 3500 
L 697 3744 
Q 697 4328 969 4595 
Q 1241 4863 1831 4863 
L 2375 4863 
z
" transform="scale(0.015625)"/>
      <path id="DejaVuSans-2b" d="M 2944 4013 
L 2944 2272 
L 4684 2272 
L 4684 1741 
L 2944 1741 
L 2944 0 
L 2419 0 
L 2419 1741 
L 678 1741 
L 678 2272 
L 2419 2272 
L 2419 4013 
L 2944 4013 
z
" transform="scale(0.015625)"/>
     </defs>
     <use xlink:href="#DejaVuSans-52"/>
     <use xlink:href="#DejaVuSans-e9" x="64.982422"/>
     <use xlink:href="#DejaVuSans-73" x="126.505859"/>
     <use xlink:href="#DejaVuSans-75" x="178.605469"/>
     <use xlink:href="#DejaVuSans-6c" x="241.984375"/>
     <use xlink:href="#DejaVuSans-74" x="269.767578"/>
     <use xlink:href="#DejaVuSans-61" x="308.976562"/>
     <use xlink:href="#DejaVuSans-74" x="370.255859"/>
     <use xlink:href="#DejaVuSans-20" x="409.464844"/>
     <use xlink:href="#DejaVuSans-62" x="441.251953"/>
     <use xlink:href="#DejaVuSans-65" x="504.728516"/>
     <use xlink:href="#DejaVuSans-6e" x="566.251953"/>
     <use xlink:href="#DejaVuSans-63" x="629.630859"/>
     <use xlink:href="#DejaVuSans-68" x="684.611328"/>
     <use xlink:href="#DejaVuSans-6d" x="747.990234"/>
     <use xlink:href="#DejaVuSans-61" x="845.402344"/>
     <use xlink:href="#DejaVuSans-72" x="906.681641"/>
     <use xlink:href="#DejaVuSans-6b" x="947.794922"/>
     <use xlink:href="#DejaVuSans-20" x="1005.705078"/>
     <use xlink:href="#DejaVuSans-64" x="1037.492188"/>
     <use xlink:href="#DejaVuSans-67" x="1100.96875"/>
     <use xlink:href="#DejaVuSans-62" x="1164.445312"/>
     <use xlink:href="#DejaVuSans-74" x="1227.921875"/>
     <use xlink:href="#DejaVuSans-72" x="1267.130859"/>
     <use xlink:href="#DejaVuSans-66" x="1308.244141"/>
     <use xlink:href="#DejaVuSans-2b" x="1343.449219"/>
     <use xlink:href="#DejaVuSans-64" x="1427.238281"/>
     <use xlink:href="#DejaVuSans-67" x="1490.714844"/>
     <use xlink:href="#DejaVuSans-62" x="1554.191406"/>
     <use xlink:href="#DejaVuSans-74" x="1617.667969"/>
     <use xlink:href="#DejaVuSans-72" x="1656.876953"/>
     <use xlink:href="#DejaVuSans-73" x="1697.990234"/>
    </g>
   </g>
  </g>
 </g>
 <defs>
  <clipPath id="pf70b732cb7">
   <rect x="57.6" y="41.472" width="357.12" height="266.112"/>
  </clipPath>
 </defs>
</svg>
