<?xml version="1.0" encoding="utf-8" standalone="no"?>
<!DOCTYPE svg PUBLIC "-//W3C//DTD SVG 1.1//EN"
  "http://www.w3.org/Graphics/SVG/1.1/DTD/svg11.dtd">
<svg xmlns:xlink="http://www.w3.org/1999/xlink" width="460.8pt" height="345.6pt" viewBox="0 0 460.8 345.6" xmlns="http://www.w3.org/2000/svg" version="1.1">
 <metadata>
  <rdf:RDF xmlns:dc="http://purl.org/dc/elements/1.1/" xmlns:cc="http://creativecommons.org/ns#" xmlns:rdf="http://www.w3.org/1999/02/22-rdf-syntax-ns#">
   <cc:Work>
    <dc:type rdf:resource="http://purl.org/dc/dcmitype/StillImage"/>
    <dc:date>2025-01-02T03:44:01.541332</dc:date>
    <dc:format>image/svg+xml</dc:format>
    <dc:creator>
     <cc:Agent>
      <dc:title>Matplotlib v3.7.5, https://matplotlib.org/</dc:title>
     </cc:Agent>
    </dc:creator>
   </cc:Work>
  </rdf:RDF>
 </metadata>
 <defs>
  <style type="text/css">*{stroke-linejoin: round; stroke-linecap: butt}</style>
 </defs>
 <g id="figure_1">
  <g id="patch_1">
   <path d="M 0 345.6 
L 460.8 345.6 
L 460.8 0 
L 0 0 
z
" style="fill: #ffffff"/>
  </g>
  <g id="axes_1">
   <g id="patch_2">
    <path d="M 57.6 307.584 
L 414.72 307.584 
L 414.72 41.472 
L 57.6 41.472 
z
" style="fill: #ffffff"/>
   </g>
   <g id="matplotlib.axis_1">
    <g id="xtick_1">
     <g id="line2d_1">
      <defs>
       <path id="m045e7ce4c0" d="M 0 0 
L 0 3.5 
" style="stroke: #000000; stroke-width: 0.8"/>
      </defs>
      <g>
       <use xlink:href="#m045e7ce4c0" x="73.507422" y="307.584" style="stroke: #000000; stroke-width: 0.8"/>
      </g>
     </g>
     <g id="text_1">
      <!-- 0 -->
      <g transform="translate(70.326172 322.182437) scale(0.1 -0.1)">
       <defs>
        <path id="DejaVuSans-30" d="M 2034 4250 
Q 1547 4250 1301 3770 
Q 1056 3291 1056 2328 
Q 1056 1369 1301 889 
Q 1547 409 2034 409 
Q 2525 409 2770 889 
Q 3016 1369 3016 2328 
Q 3016 3291 2770 3770 
Q 2525 4250 2034 4250 
z
M 2034 4750 
Q 2819 4750 3233 4129 
Q 3647 3509 3647 2328 
Q 3647 1150 3233 529 
Q 2819 -91 2034 -91 
Q 1250 -91 836 529 
Q 422 1150 422 2328 
Q 422 3509 836 4129 
Q 1250 4750 2034 4750 
z
" transform="scale(0.015625)"/>
       </defs>
       <use xlink:href="#DejaVuSans-30"/>
      </g>
     </g>
    </g>
    <g id="xtick_2">
     <g id="line2d_2">
      <g>
       <use xlink:href="#m045e7ce4c0" x="138.568453" y="307.584" style="stroke: #000000; stroke-width: 0.8"/>
      </g>
     </g>
     <g id="text_2">
      <!-- 20000 -->
      <g transform="translate(122.662203 322.182437) scale(0.1 -0.1)">
       <defs>
        <path id="DejaVuSans-32" d="M 1228 531 
L 3431 531 
L 3431 0 
L 469 0 
L 469 531 
Q 828 903 1448 1529 
Q 2069 2156 2228 2338 
Q 2531 2678 2651 2914 
Q 2772 3150 2772 3378 
Q 2772 3750 2511 3984 
Q 2250 4219 1831 4219 
Q 1534 4219 1204 4116 
Q 875 4013 500 3803 
L 500 4441 
Q 881 4594 1212 4672 
Q 1544 4750 1819 4750 
Q 2544 4750 2975 4387 
Q 3406 4025 3406 3419 
Q 3406 3131 3298 2873 
Q 3191 2616 2906 2266 
Q 2828 2175 2409 1742 
Q 1991 1309 1228 531 
z
" transform="scale(0.015625)"/>
       </defs>
       <use xlink:href="#DejaVuSans-32"/>
       <use xlink:href="#DejaVuSans-30" x="63.623047"/>
       <use xlink:href="#DejaVuSans-30" x="127.246094"/>
       <use xlink:href="#DejaVuSans-30" x="190.869141"/>
       <use xlink:href="#DejaVuSans-30" x="254.492188"/>
      </g>
     </g>
    </g>
    <g id="xtick_3">
     <g id="line2d_3">
      <g>
       <use xlink:href="#m045e7ce4c0" x="203.629484" y="307.584" style="stroke: #000000; stroke-width: 0.8"/>
      </g>
     </g>
     <g id="text_3">
      <!-- 40000 -->
      <g transform="translate(187.723234 322.182437) scale(0.1 -0.1)">
       <defs>
        <path id="DejaVuSans-34" d="M 2419 4116 
L 825 1625 
L 2419 1625 
L 2419 4116 
z
M 2253 4666 
L 3047 4666 
L 3047 1625 
L 3713 1625 
L 3713 1100 
L 3047 1100 
L 3047 0 
L 2419 0 
L 2419 1100 
L 313 1100 
L 313 1709 
L 2253 4666 
z
" transform="scale(0.015625)"/>
       </defs>
       <use xlink:href="#DejaVuSans-34"/>
       <use xlink:href="#DejaVuSans-30" x="63.623047"/>
       <use xlink:href="#DejaVuSans-30" x="127.246094"/>
       <use xlink:href="#DejaVuSans-30" x="190.869141"/>
       <use xlink:href="#DejaVuSans-30" x="254.492188"/>
      </g>
     </g>
    </g>
    <g id="xtick_4">
     <g id="line2d_4">
      <g>
       <use xlink:href="#m045e7ce4c0" x="268.690516" y="307.584" style="stroke: #000000; stroke-width: 0.8"/>
      </g>
     </g>
     <g id="text_4">
      <!-- 60000 -->
      <g transform="translate(252.784266 322.182437) scale(0.1 -0.1)">
       <defs>
        <path id="DejaVuSans-36" d="M 2113 2584 
Q 1688 2584 1439 2293 
Q 1191 2003 1191 1497 
Q 1191 994 1439 701 
Q 1688 409 2113 409 
Q 2538 409 2786 701 
Q 3034 994 3034 1497 
Q 3034 2003 2786 2293 
Q 2538 2584 2113 2584 
z
M 3366 4563 
L 3366 3988 
Q 3128 4100 2886 4159 
Q 2644 4219 2406 4219 
Q 1781 4219 1451 3797 
Q 1122 3375 1075 2522 
Q 1259 2794 1537 2939 
Q 1816 3084 2150 3084 
Q 2853 3084 3261 2657 
Q 3669 2231 3669 1497 
Q 3669 778 3244 343 
Q 2819 -91 2113 -91 
Q 1303 -91 875 529 
Q 447 1150 447 2328 
Q 447 3434 972 4092 
Q 1497 4750 2381 4750 
Q 2619 4750 2861 4703 
Q 3103 4656 3366 4563 
z
" transform="scale(0.015625)"/>
       </defs>
       <use xlink:href="#DejaVuSans-36"/>
       <use xlink:href="#DejaVuSans-30" x="63.623047"/>
       <use xlink:href="#DejaVuSans-30" x="127.246094"/>
       <use xlink:href="#DejaVuSans-30" x="190.869141"/>
       <use xlink:href="#DejaVuSans-30" x="254.492188"/>
      </g>
     </g>
    </g>
    <g id="xtick_5">
     <g id="line2d_5">
      <g>
       <use xlink:href="#m045e7ce4c0" x="333.751547" y="307.584" style="stroke: #000000; stroke-width: 0.8"/>
      </g>
     </g>
     <g id="text_5">
      <!-- 80000 -->
      <g transform="translate(317.845297 322.182437) scale(0.1 -0.1)">
       <defs>
        <path id="DejaVuSans-38" d="M 2034 2216 
Q 1584 2216 1326 1975 
Q 1069 1734 1069 1313 
Q 1069 891 1326 650 
Q 1584 409 2034 409 
Q 2484 409 2743 651 
Q 3003 894 3003 1313 
Q 3003 1734 2745 1975 
Q 2488 2216 2034 2216 
z
M 1403 2484 
Q 997 2584 770 2862 
Q 544 3141 544 3541 
Q 544 4100 942 4425 
Q 1341 4750 2034 4750 
Q 2731 4750 3128 4425 
Q 3525 4100 3525 3541 
Q 3525 3141 3298 2862 
Q 3072 2584 2669 2484 
Q 3125 2378 3379 2068 
Q 3634 1759 3634 1313 
Q 3634 634 3220 271 
Q 2806 -91 2034 -91 
Q 1263 -91 848 271 
Q 434 634 434 1313 
Q 434 1759 690 2068 
Q 947 2378 1403 2484 
z
M 1172 3481 
Q 1172 3119 1398 2916 
Q 1625 2713 2034 2713 
Q 2441 2713 2670 2916 
Q 2900 3119 2900 3481 
Q 2900 3844 2670 4047 
Q 2441 4250 2034 4250 
Q 1625 4250 1398 4047 
Q 1172 3844 1172 3481 
z
" transform="scale(0.015625)"/>
       </defs>
       <use xlink:href="#DejaVuSans-38"/>
       <use xlink:href="#DejaVuSans-30" x="63.623047"/>
       <use xlink:href="#DejaVuSans-30" x="127.246094"/>
       <use xlink:href="#DejaVuSans-30" x="190.869141"/>
       <use xlink:href="#DejaVuSans-30" x="254.492188"/>
      </g>
     </g>
    </g>
    <g id="xtick_6">
     <g id="line2d_6">
      <g>
       <use xlink:href="#m045e7ce4c0" x="398.812578" y="307.584" style="stroke: #000000; stroke-width: 0.8"/>
      </g>
     </g>
     <g id="text_6">
      <!-- 100000 -->
      <g transform="translate(379.725078 322.182437) scale(0.1 -0.1)">
       <defs>
        <path id="DejaVuSans-31" d="M 794 531 
L 1825 531 
L 1825 4091 
L 703 3866 
L 703 4441 
L 1819 4666 
L 2450 4666 
L 2450 531 
L 3481 531 
L 3481 0 
L 794 0 
L 794 531 
z
" transform="scale(0.015625)"/>
       </defs>
       <use xlink:href="#DejaVuSans-31"/>
       <use xlink:href="#DejaVuSans-30" x="63.623047"/>
       <use xlink:href="#DejaVuSans-30" x="127.246094"/>
       <use xlink:href="#DejaVuSans-30" x="190.869141"/>
       <use xlink:href="#DejaVuSans-30" x="254.492188"/>
       <use xlink:href="#DejaVuSans-30" x="318.115234"/>
      </g>
     </g>
    </g>
    <g id="text_7">
     <!-- Nombre de points -->
     <g transform="translate(191.510781 335.860562) scale(0.1 -0.1)">
      <defs>
       <path id="DejaVuSans-4e" d="M 628 4666 
L 1478 4666 
L 3547 763 
L 3547 4666 
L 4159 4666 
L 4159 0 
L 3309 0 
L 1241 3903 
L 1241 0 
L 628 0 
L 628 4666 
z
" transform="scale(0.015625)"/>
       <path id="DejaVuSans-6f" d="M 1959 3097 
Q 1497 3097 1228 2736 
Q 959 2375 959 1747 
Q 959 1119 1226 758 
Q 1494 397 1959 397 
Q 2419 397 2687 759 
Q 2956 1122 2956 1747 
Q 2956 2369 2687 2733 
Q 2419 3097 1959 3097 
z
M 1959 3584 
Q 2709 3584 3137 3096 
Q 3566 2609 3566 1747 
Q 3566 888 3137 398 
Q 2709 -91 1959 -91 
Q 1206 -91 779 398 
Q 353 888 353 1747 
Q 353 2609 779 3096 
Q 1206 3584 1959 3584 
z
" transform="scale(0.015625)"/>
       <path id="DejaVuSans-6d" d="M 3328 2828 
Q 3544 3216 3844 3400 
Q 4144 3584 4550 3584 
Q 5097 3584 5394 3201 
Q 5691 2819 5691 2113 
L 5691 0 
L 5113 0 
L 5113 2094 
Q 5113 2597 4934 2840 
Q 4756 3084 4391 3084 
Q 3944 3084 3684 2787 
Q 3425 2491 3425 1978 
L 3425 0 
L 2847 0 
L 2847 2094 
Q 2847 2600 2669 2842 
Q 2491 3084 2119 3084 
Q 1678 3084 1418 2786 
Q 1159 2488 1159 1978 
L 1159 0 
L 581 0 
L 581 3500 
L 1159 3500 
L 1159 2956 
Q 1356 3278 1631 3431 
Q 1906 3584 2284 3584 
Q 2666 3584 2933 3390 
Q 3200 3197 3328 2828 
z
" transform="scale(0.015625)"/>
       <path id="DejaVuSans-62" d="M 3116 1747 
Q 3116 2381 2855 2742 
Q 2594 3103 2138 3103 
Q 1681 3103 1420 2742 
Q 1159 2381 1159 1747 
Q 1159 1113 1420 752 
Q 1681 391 2138 391 
Q 2594 391 2855 752 
Q 3116 1113 3116 1747 
z
M 1159 2969 
Q 1341 3281 1617 3432 
Q 1894 3584 2278 3584 
Q 2916 3584 3314 3078 
Q 3713 2572 3713 1747 
Q 3713 922 3314 415 
Q 2916 -91 2278 -91 
Q 1894 -91 1617 61 
Q 1341 213 1159 525 
L 1159 0 
L 581 0 
L 581 4863 
L 1159 4863 
L 1159 2969 
z
" transform="scale(0.015625)"/>
       <path id="DejaVuSans-72" d="M 2631 2963 
Q 2534 3019 2420 3045 
Q 2306 3072 2169 3072 
Q 1681 3072 1420 2755 
Q 1159 2438 1159 1844 
L 1159 0 
L 581 0 
L 581 3500 
L 1159 3500 
L 1159 2956 
Q 1341 3275 1631 3429 
Q 1922 3584 2338 3584 
Q 2397 3584 2469 3576 
Q 2541 3569 2628 3553 
L 2631 2963 
z
" transform="scale(0.015625)"/>
       <path id="DejaVuSans-65" d="M 3597 1894 
L 3597 1613 
L 953 1613 
Q 991 1019 1311 708 
Q 1631 397 2203 397 
Q 2534 397 2845 478 
Q 3156 559 3463 722 
L 3463 178 
Q 3153 47 2828 -22 
Q 2503 -91 2169 -91 
Q 1331 -91 842 396 
Q 353 884 353 1716 
Q 353 2575 817 3079 
Q 1281 3584 2069 3584 
Q 2775 3584 3186 3129 
Q 3597 2675 3597 1894 
z
M 3022 2063 
Q 3016 2534 2758 2815 
Q 2500 3097 2075 3097 
Q 1594 3097 1305 2825 
Q 1016 2553 972 2059 
L 3022 2063 
z
" transform="scale(0.015625)"/>
       <path id="DejaVuSans-20" transform="scale(0.015625)"/>
       <path id="DejaVuSans-64" d="M 2906 2969 
L 2906 4863 
L 3481 4863 
L 3481 0 
L 2906 0 
L 2906 525 
Q 2725 213 2448 61 
Q 2172 -91 1784 -91 
Q 1150 -91 751 415 
Q 353 922 353 1747 
Q 353 2572 751 3078 
Q 1150 3584 1784 3584 
Q 2172 3584 2448 3432 
Q 2725 3281 2906 2969 
z
M 947 1747 
Q 947 1113 1208 752 
Q 1469 391 1925 391 
Q 2381 391 2643 752 
Q 2906 1113 2906 1747 
Q 2906 2381 2643 2742 
Q 2381 3103 1925 3103 
Q 1469 3103 1208 2742 
Q 947 2381 947 1747 
z
" transform="scale(0.015625)"/>
       <path id="DejaVuSans-70" d="M 1159 525 
L 1159 -1331 
L 581 -1331 
L 581 3500 
L 1159 3500 
L 1159 2969 
Q 1341 3281 1617 3432 
Q 1894 3584 2278 3584 
Q 2916 3584 3314 3078 
Q 3713 2572 3713 1747 
Q 3713 922 3314 415 
Q 2916 -91 2278 -91 
Q 1894 -91 1617 61 
Q 1341 213 1159 525 
z
M 3116 1747 
Q 3116 2381 2855 2742 
Q 2594 3103 2138 3103 
Q 1681 3103 1420 2742 
Q 1159 2381 1159 1747 
Q 1159 1113 1420 752 
Q 1681 391 2138 391 
Q 2594 391 2855 752 
Q 3116 1113 3116 1747 
z
" transform="scale(0.015625)"/>
       <path id="DejaVuSans-69" d="M 603 3500 
L 1178 3500 
L 1178 0 
L 603 0 
L 603 3500 
z
M 603 4863 
L 1178 4863 
L 1178 4134 
L 603 4134 
L 603 4863 
z
" transform="scale(0.015625)"/>
       <path id="DejaVuSans-6e" d="M 3513 2113 
L 3513 0 
L 2938 0 
L 2938 2094 
Q 2938 2591 2744 2837 
Q 2550 3084 2163 3084 
Q 1697 3084 1428 2787 
Q 1159 2491 1159 1978 
L 1159 0 
L 581 0 
L 581 3500 
L 1159 3500 
L 1159 2956 
Q 1366 3272 1645 3428 
Q 1925 3584 2291 3584 
Q 2894 3584 3203 3211 
Q 3513 2838 3513 2113 
z
" transform="scale(0.015625)"/>
       <path id="DejaVuSans-74" d="M 1172 4494 
L 1172 3500 
L 2356 3500 
L 2356 3053 
L 1172 3053 
L 1172 1153 
Q 1172 725 1289 603 
Q 1406 481 1766 481 
L 2356 481 
L 2356 0 
L 1766 0 
Q 1100 0 847 248 
Q 594 497 594 1153 
L 594 3053 
L 172 3053 
L 172 3500 
L 594 3500 
L 594 4494 
L 1172 4494 
z
" transform="scale(0.015625)"/>
       <path id="DejaVuSans-73" d="M 2834 3397 
L 2834 2853 
Q 2591 2978 2328 3040 
Q 2066 3103 1784 3103 
Q 1356 3103 1142 2972 
Q 928 2841 928 2578 
Q 928 2378 1081 2264 
Q 1234 2150 1697 2047 
L 1894 2003 
Q 2506 1872 2764 1633 
Q 3022 1394 3022 966 
Q 3022 478 2636 193 
Q 2250 -91 1575 -91 
Q 1294 -91 989 -36 
Q 684 19 347 128 
L 347 722 
Q 666 556 975 473 
Q 1284 391 1588 391 
Q 1994 391 2212 530 
Q 2431 669 2431 922 
Q 2431 1156 2273 1281 
Q 2116 1406 1581 1522 
L 1381 1569 
Q 847 1681 609 1914 
Q 372 2147 372 2553 
Q 372 3047 722 3315 
Q 1072 3584 1716 3584 
Q 2034 3584 2315 3537 
Q 2597 3491 2834 3397 
z
" transform="scale(0.015625)"/>
      </defs>
      <use xlink:href="#DejaVuSans-4e"/>
      <use xlink:href="#DejaVuSans-6f" x="74.804688"/>
      <use xlink:href="#DejaVuSans-6d" x="135.986328"/>
      <use xlink:href="#DejaVuSans-62" x="233.398438"/>
      <use xlink:href="#DejaVuSans-72" x="296.875"/>
      <use xlink:href="#DejaVuSans-65" x="335.738281"/>
      <use xlink:href="#DejaVuSans-20" x="397.261719"/>
      <use xlink:href="#DejaVuSans-64" x="429.048828"/>
      <use xlink:href="#DejaVuSans-65" x="492.525391"/>
      <use xlink:href="#DejaVuSans-20" x="554.048828"/>
      <use xlink:href="#DejaVuSans-70" x="585.835938"/>
      <use xlink:href="#DejaVuSans-6f" x="649.3125"/>
      <use xlink:href="#DejaVuSans-69" x="710.494141"/>
      <use xlink:href="#DejaVuSans-6e" x="738.277344"/>
      <use xlink:href="#DejaVuSans-74" x="801.65625"/>
      <use xlink:href="#DejaVuSans-73" x="840.865234"/>
     </g>
    </g>
   </g>
   <g id="matplotlib.axis_2">
    <g id="ytick_1">
     <g id="line2d_7">
      <defs>
       <path id="m5a80e00dc6" d="M 0 0 
L -3.5 0 
" style="stroke: #000000; stroke-width: 0.8"/>
      </defs>
      <g>
       <use xlink:href="#m5a80e00dc6" x="57.6" y="295.75579" style="stroke: #000000; stroke-width: 0.8"/>
      </g>
     </g>
     <g id="text_8">
      <!-- 0 -->
      <g transform="translate(44.2375 299.555009) scale(0.1 -0.1)">
       <use xlink:href="#DejaVuSans-30"/>
      </g>
     </g>
    </g>
    <g id="ytick_2">
     <g id="line2d_8">
      <g>
       <use xlink:href="#m5a80e00dc6" x="57.6" y="255.181525" style="stroke: #000000; stroke-width: 0.8"/>
      </g>
     </g>
     <g id="text_9">
      <!-- 500 -->
      <g transform="translate(31.5125 258.980744) scale(0.1 -0.1)">
       <defs>
        <path id="DejaVuSans-35" d="M 691 4666 
L 3169 4666 
L 3169 4134 
L 1269 4134 
L 1269 2991 
Q 1406 3038 1543 3061 
Q 1681 3084 1819 3084 
Q 2600 3084 3056 2656 
Q 3513 2228 3513 1497 
Q 3513 744 3044 326 
Q 2575 -91 1722 -91 
Q 1428 -91 1123 -41 
Q 819 9 494 109 
L 494 744 
Q 775 591 1075 516 
Q 1375 441 1709 441 
Q 2250 441 2565 725 
Q 2881 1009 2881 1497 
Q 2881 1984 2565 2268 
Q 2250 2553 1709 2553 
Q 1456 2553 1204 2497 
Q 953 2441 691 2322 
L 691 4666 
z
" transform="scale(0.015625)"/>
       </defs>
       <use xlink:href="#DejaVuSans-35"/>
       <use xlink:href="#DejaVuSans-30" x="63.623047"/>
       <use xlink:href="#DejaVuSans-30" x="127.246094"/>
      </g>
     </g>
    </g>
    <g id="ytick_3">
     <g id="line2d_9">
      <g>
       <use xlink:href="#m5a80e00dc6" x="57.6" y="214.607259" style="stroke: #000000; stroke-width: 0.8"/>
      </g>
     </g>
     <g id="text_10">
      <!-- 1000 -->
      <g transform="translate(25.15 218.406478) scale(0.1 -0.1)">
       <use xlink:href="#DejaVuSans-31"/>
       <use xlink:href="#DejaVuSans-30" x="63.623047"/>
       <use xlink:href="#DejaVuSans-30" x="127.246094"/>
       <use xlink:href="#DejaVuSans-30" x="190.869141"/>
      </g>
     </g>
    </g>
    <g id="ytick_4">
     <g id="line2d_10">
      <g>
       <use xlink:href="#m5a80e00dc6" x="57.6" y="174.032994" style="stroke: #000000; stroke-width: 0.8"/>
      </g>
     </g>
     <g id="text_11">
      <!-- 1500 -->
      <g transform="translate(25.15 177.832213) scale(0.1 -0.1)">
       <use xlink:href="#DejaVuSans-31"/>
       <use xlink:href="#DejaVuSans-35" x="63.623047"/>
       <use xlink:href="#DejaVuSans-30" x="127.246094"/>
       <use xlink:href="#DejaVuSans-30" x="190.869141"/>
      </g>
     </g>
    </g>
    <g id="ytick_5">
     <g id="line2d_11">
      <g>
       <use xlink:href="#m5a80e00dc6" x="57.6" y="133.458729" style="stroke: #000000; stroke-width: 0.8"/>
      </g>
     </g>
     <g id="text_12">
      <!-- 2000 -->
      <g transform="translate(25.15 137.257947) scale(0.1 -0.1)">
       <use xlink:href="#DejaVuSans-32"/>
       <use xlink:href="#DejaVuSans-30" x="63.623047"/>
       <use xlink:href="#DejaVuSans-30" x="127.246094"/>
       <use xlink:href="#DejaVuSans-30" x="190.869141"/>
      </g>
     </g>
    </g>
    <g id="ytick_6">
     <g id="line2d_12">
      <g>
       <use xlink:href="#m5a80e00dc6" x="57.6" y="92.884463" style="stroke: #000000; stroke-width: 0.8"/>
      </g>
     </g>
     <g id="text_13">
      <!-- 2500 -->
      <g transform="translate(25.15 96.683682) scale(0.1 -0.1)">
       <use xlink:href="#DejaVuSans-32"/>
       <use xlink:href="#DejaVuSans-35" x="63.623047"/>
       <use xlink:href="#DejaVuSans-30" x="127.246094"/>
       <use xlink:href="#DejaVuSans-30" x="190.869141"/>
      </g>
     </g>
    </g>
    <g id="ytick_7">
     <g id="line2d_13">
      <g>
       <use xlink:href="#m5a80e00dc6" x="57.6" y="52.310198" style="stroke: #000000; stroke-width: 0.8"/>
      </g>
     </g>
     <g id="text_14">
      <!-- 3000 -->
      <g transform="translate(25.15 56.109417) scale(0.1 -0.1)">
       <defs>
        <path id="DejaVuSans-33" d="M 2597 2516 
Q 3050 2419 3304 2112 
Q 3559 1806 3559 1356 
Q 3559 666 3084 287 
Q 2609 -91 1734 -91 
Q 1441 -91 1130 -33 
Q 819 25 488 141 
L 488 750 
Q 750 597 1062 519 
Q 1375 441 1716 441 
Q 2309 441 2620 675 
Q 2931 909 2931 1356 
Q 2931 1769 2642 2001 
Q 2353 2234 1838 2234 
L 1294 2234 
L 1294 2753 
L 1863 2753 
Q 2328 2753 2575 2939 
Q 2822 3125 2822 3475 
Q 2822 3834 2567 4026 
Q 2313 4219 1838 4219 
Q 1578 4219 1281 4162 
Q 984 4106 628 3988 
L 628 4550 
Q 988 4650 1302 4700 
Q 1616 4750 1894 4750 
Q 2613 4750 3031 4423 
Q 3450 4097 3450 3541 
Q 3450 3153 3228 2886 
Q 3006 2619 2597 2516 
z
" transform="scale(0.015625)"/>
       </defs>
       <use xlink:href="#DejaVuSans-33"/>
       <use xlink:href="#DejaVuSans-30" x="63.623047"/>
       <use xlink:href="#DejaVuSans-30" x="127.246094"/>
       <use xlink:href="#DejaVuSans-30" x="190.869141"/>
      </g>
     </g>
    </g>
    <g id="text_15">
     <!-- Temps moyen (nanosecondes) -->
     <g transform="translate(19.070312 250.64675) rotate(-90) scale(0.1 -0.1)">
      <defs>
       <path id="DejaVuSans-54" d="M -19 4666 
L 3928 4666 
L 3928 4134 
L 2272 4134 
L 2272 0 
L 1638 0 
L 1638 4134 
L -19 4134 
L -19 4666 
z
" transform="scale(0.015625)"/>
       <path id="DejaVuSans-79" d="M 2059 -325 
Q 1816 -950 1584 -1140 
Q 1353 -1331 966 -1331 
L 506 -1331 
L 506 -850 
L 844 -850 
Q 1081 -850 1212 -737 
Q 1344 -625 1503 -206 
L 1606 56 
L 191 3500 
L 800 3500 
L 1894 763 
L 2988 3500 
L 3597 3500 
L 2059 -325 
z
" transform="scale(0.015625)"/>
       <path id="DejaVuSans-28" d="M 1984 4856 
Q 1566 4138 1362 3434 
Q 1159 2731 1159 2009 
Q 1159 1288 1364 580 
Q 1569 -128 1984 -844 
L 1484 -844 
Q 1016 -109 783 600 
Q 550 1309 550 2009 
Q 550 2706 781 3412 
Q 1013 4119 1484 4856 
L 1984 4856 
z
" transform="scale(0.015625)"/>
       <path id="DejaVuSans-61" d="M 2194 1759 
Q 1497 1759 1228 1600 
Q 959 1441 959 1056 
Q 959 750 1161 570 
Q 1363 391 1709 391 
Q 2188 391 2477 730 
Q 2766 1069 2766 1631 
L 2766 1759 
L 2194 1759 
z
M 3341 1997 
L 3341 0 
L 2766 0 
L 2766 531 
Q 2569 213 2275 61 
Q 1981 -91 1556 -91 
Q 1019 -91 701 211 
Q 384 513 384 1019 
Q 384 1609 779 1909 
Q 1175 2209 1959 2209 
L 2766 2209 
L 2766 2266 
Q 2766 2663 2505 2880 
Q 2244 3097 1772 3097 
Q 1472 3097 1187 3025 
Q 903 2953 641 2809 
L 641 3341 
Q 956 3463 1253 3523 
Q 1550 3584 1831 3584 
Q 2591 3584 2966 3190 
Q 3341 2797 3341 1997 
z
" transform="scale(0.015625)"/>
       <path id="DejaVuSans-63" d="M 3122 3366 
L 3122 2828 
Q 2878 2963 2633 3030 
Q 2388 3097 2138 3097 
Q 1578 3097 1268 2742 
Q 959 2388 959 1747 
Q 959 1106 1268 751 
Q 1578 397 2138 397 
Q 2388 397 2633 464 
Q 2878 531 3122 666 
L 3122 134 
Q 2881 22 2623 -34 
Q 2366 -91 2075 -91 
Q 1284 -91 818 406 
Q 353 903 353 1747 
Q 353 2603 823 3093 
Q 1294 3584 2113 3584 
Q 2378 3584 2631 3529 
Q 2884 3475 3122 3366 
z
" transform="scale(0.015625)"/>
       <path id="DejaVuSans-29" d="M 513 4856 
L 1013 4856 
Q 1481 4119 1714 3412 
Q 1947 2706 1947 2009 
Q 1947 1309 1714 600 
Q 1481 -109 1013 -844 
L 513 -844 
Q 928 -128 1133 580 
Q 1338 1288 1338 2009 
Q 1338 2731 1133 3434 
Q 928 4138 513 4856 
z
" transform="scale(0.015625)"/>
      </defs>
      <use xlink:href="#DejaVuSans-54"/>
      <use xlink:href="#DejaVuSans-65" x="44.083984"/>
      <use xlink:href="#DejaVuSans-6d" x="105.607422"/>
      <use xlink:href="#DejaVuSans-70" x="203.019531"/>
      <use xlink:href="#DejaVuSans-73" x="266.496094"/>
      <use xlink:href="#DejaVuSans-20" x="318.595703"/>
      <use xlink:href="#DejaVuSans-6d" x="350.382812"/>
      <use xlink:href="#DejaVuSans-6f" x="447.794922"/>
      <use xlink:href="#DejaVuSans-79" x="508.976562"/>
      <use xlink:href="#DejaVuSans-65" x="568.15625"/>
      <use xlink:href="#DejaVuSans-6e" x="629.679688"/>
      <use xlink:href="#DejaVuSans-20" x="693.058594"/>
      <use xlink:href="#DejaVuSans-28" x="724.845703"/>
      <use xlink:href="#DejaVuSans-6e" x="763.859375"/>
      <use xlink:href="#DejaVuSans-61" x="827.238281"/>
      <use xlink:href="#DejaVuSans-6e" x="888.517578"/>
      <use xlink:href="#DejaVuSans-6f" x="951.896484"/>
      <use xlink:href="#DejaVuSans-73" x="1013.078125"/>
      <use xlink:href="#DejaVuSans-65" x="1065.177734"/>
      <use xlink:href="#DejaVuSans-63" x="1126.701172"/>
      <use xlink:href="#DejaVuSans-6f" x="1181.681641"/>
      <use xlink:href="#DejaVuSans-6e" x="1242.863281"/>
      <use xlink:href="#DejaVuSans-64" x="1306.242188"/>
      <use xlink:href="#DejaVuSans-65" x="1369.71875"/>
      <use xlink:href="#DejaVuSans-73" x="1431.242188"/>
      <use xlink:href="#DejaVuSans-29" x="1483.341797"/>
     </g>
    </g>
   </g>
   <g id="line2d_14">
    <path d="M 73.832727 295.488 
L 74.158032 294.696802 
L 74.483338 294.530447 
L 74.808643 294.802295 
L 75.459253 294.339748 
L 76.109863 293.540435 
L 77.085779 293.171209 
L 77.736389 292.331322 
L 78.061694 292.351609 
L 78.712305 291.820086 
L 79.03761 291.738938 
L 79.362915 291.268276 
L 79.68822 291.23176 
L 80.013525 290.66372 
L 80.33883 290.854419 
L 80.664136 290.639375 
L 80.989441 290.201173 
L 81.314746 290.160599 
L 81.640051 289.300425 
L 81.965356 289.718339 
L 82.615966 289.312597 
L 83.266577 288.411848 
L 84.242492 288.075082 
L 84.567797 287.681511 
L 85.218408 287.271711 
L 85.543713 286.947117 
L 86.194323 286.80105 
L 86.519628 286.366905 
L 86.844934 286.241125 
L 87.170239 285.80698 
L 87.495544 285.847555 
L 87.820849 285.320089 
L 88.146154 285.291687 
L 88.471459 284.752049 
L 88.796764 284.934634 
L 89.447375 284.30979 
L 89.77268 284.248928 
L 90.097985 283.656544 
L 90.748595 283.34818 
L 91.073901 282.76391 
L 91.399206 282.92215 
L 91.724511 282.504235 
L 92.049816 282.325708 
L 92.375121 281.489878 
L 92.700426 282.074148 
L 93.025731 281.611601 
L 94.001647 281.023274 
L 94.326952 280.337569 
L 94.652257 280.581015 
L 94.977562 280.045435 
L 95.302868 280.195559 
L 95.628173 279.659979 
L 95.953478 279.704611 
L 96.278783 278.215535 
L 96.604088 279.079767 
L 96.929393 277.943688 
L 97.254698 278.66591 
L 97.580004 278.605048 
L 97.905309 277.93963 
L 98.230614 278.20742 
L 98.555919 277.306672 
L 98.881224 277.696185 
L 99.206529 277.193064 
L 99.531835 277.302614 
L 99.85714 276.982078 
L 100.182445 276.328832 
L 100.50775 276.008295 
L 100.833055 275.979893 
L 101.15836 275.59038 
L 101.808971 275.221154 
L 102.134276 274.91279 
L 102.784886 275.022341 
L 103.435496 274.515162 
L 103.760802 274.170281 
L 104.736717 273.634701 
L 105.062022 271.147498 
L 105.387327 272.535138 
L 106.363243 272.45399 
L 106.688548 272.060419 
L 107.013853 272.048247 
L 107.339158 271.516724 
L 107.664463 269.512355 
L 107.989769 268.44931 
L 108.315074 268.404678 
L 108.640379 266.696501 
L 108.965684 268.00705 
L 109.290989 268.364104 
L 109.616294 267.568848 
L 109.9416 268.270783 
L 110.266905 267.04544 
L 110.59221 269.354116 
L 111.24282 268.976775 
L 111.89343 255.915919 
L 112.218736 255.388454 
L 112.544041 257.924345 
L 112.869346 267.601307 
L 113.194651 267.18745 
L 113.519956 267.17122 
L 113.845261 266.879085 
L 114.495872 265.743006 
L 114.821177 264.314792 
L 115.471787 263.30855 
L 115.797092 264.347251 
L 116.122398 264.440572 
L 116.447703 263.945566 
L 116.773008 260.586017 
L 117.098313 264.156552 
L 117.423618 263.819786 
L 117.748923 263.280148 
L 118.074228 263.16654 
L 118.399534 263.535766 
L 119.050144 263.170598 
L 119.375449 263.255804 
L 119.700754 261.965542 
L 120.026059 259.295755 
L 120.351365 261.705867 
L 120.67667 261.896566 
L 121.001975 260.732084 
L 121.32728 261.072908 
L 121.652585 261.125655 
L 122.303195 258.950874 
L 122.628501 260.870037 
L 122.953806 260.159987 
L 123.279111 260.188389 
L 123.604416 260.099126 
L 123.929721 258.687141 
L 124.255026 258.861611 
L 124.580332 258.362547 
L 124.905637 258.545131 
L 125.230942 257.79045 
L 125.556247 258.005494 
L 125.881552 252.576657 
L 126.206857 249.566046 
L 126.532163 248.839767 
L 126.857468 257.547004 
L 127.508078 256.390638 
L 127.833383 256.857242 
L 128.158688 255.773909 
L 128.483993 255.145008 
L 128.809299 256.455557 
L 129.785214 254.87316 
L 130.110519 255.400626 
L 130.435824 253.274534 
L 130.76113 254.796069 
L 131.737045 252.316982 
L 132.06235 252.605059 
L 132.387655 251.428405 
L 132.71296 252.410302 
L 133.038266 252.239891 
L 133.363571 251.752999 
L 133.688876 237.381595 
L 134.339486 251.923411 
L 134.664791 251.728655 
L 134.990097 251.984273 
L 135.315402 250.308555 
L 135.640707 251.306682 
L 135.966012 249.841951 
L 136.291317 250.933399 
L 136.616622 248.600379 
L 136.941927 249.643138 
L 137.267233 248.632838 
L 137.592538 249.606621 
L 137.917843 249.541702 
L 138.243148 248.872226 
L 138.568453 248.839767 
L 138.893758 249.095385 
L 139.219064 248.80325 
L 139.544369 247.728032 
L 139.869674 248.429967 
L 140.194979 247.346634 
L 140.520284 247.44807 
L 140.845589 246.535149 
L 141.170895 246.389081 
L 141.4962 246.953064 
L 141.821505 245.342265 
L 142.14681 245.784525 
L 142.472115 246.454 
L 142.79742 245.423414 
L 143.773336 244.835087 
L 144.098641 243.816673 
L 144.749251 245.139394 
L 145.074556 241.370045 
L 145.399862 243.037647 
L 145.725167 244.035774 
L 147.026387 242.895637 
L 147.351692 243.118796 
L 147.676998 242.846948 
L 148.002303 241.723041 
L 148.327608 241.516112 
L 148.652913 240.562617 
L 149.303523 241.195575 
L 149.628829 240.802005 
L 150.279439 241.049508 
L 150.930049 240.599134 
L 151.255354 240.635651 
L 151.58066 240.41655 
L 151.905965 239.385963 
L 152.23127 239.162805 
L 152.556575 237.990209 
L 152.88188 238.935589 
L 153.207185 238.651569 
L 153.53249 238.197137 
L 153.857796 237.385652 
L 154.183101 236.971794 
L 154.508406 237.653442 
L 154.833711 235.937151 
L 155.159016 236.221171 
L 155.484321 237.182781 
L 155.809627 236.221171 
L 156.134932 233.928725 
L 156.460237 235.531408 
L 156.785542 235.032345 
L 157.110847 235.689648 
L 157.761457 232.196203 
L 158.086763 234.699636 
L 158.412068 235.097263 
L 158.737373 233.429661 
L 159.062678 233.344455 
L 159.387983 232.723669 
L 159.713288 232.922483 
L 160.038594 233.624418 
L 160.363899 233.466178 
L 160.689204 232.463994 
L 161.014509 233.287651 
L 161.339814 232.179974 
L 161.665119 232.622233 
L 161.990424 231.721485 
L 162.31573 231.924356 
L 162.641035 231.770174 
L 162.96634 231.478039 
L 163.942255 229.33166 
L 164.592866 230.674668 
L 165.243476 229.177478 
L 165.568781 228.313246 
L 165.894086 230.005193 
L 166.219392 229.635967 
L 166.544697 228.35382 
L 166.870002 229.003009 
L 167.520612 227.939963 
L 167.845917 228.142834 
L 168.171222 227.412498 
L 168.496528 225.063248 
L 169.147138 227.189339 
L 169.472443 225.988341 
L 169.797748 225.963996 
L 170.123053 227.327292 
L 170.448359 227.055444 
L 170.773664 225.963996 
L 171.098969 226.203384 
L 171.424274 225.951824 
L 171.749579 224.827917 
L 172.074884 224.685907 
L 172.400189 224.779228 
L 172.725495 224.710251 
L 173.0508 223.983972 
L 173.376105 224.170614 
L 173.70141 223.562 
L 174.026715 222.271738 
L 174.35202 223.724297 
L 174.677326 223.643148 
L 175.002631 223.160315 
L 175.327936 197.351024 
L 175.653241 221.610378 
L 176.303851 222.722112 
L 176.629156 222.162188 
L 176.954462 221.19652 
L 177.279767 220.733973 
L 177.605072 221.058568 
L 177.930377 221.151888 
L 178.255682 220.916558 
L 178.580987 221.074797 
L 178.906293 218.271116 
L 179.231598 219.488343 
L 179.556903 219.98335 
L 179.882208 218.839155 
L 180.207513 219.395023 
L 180.532818 219.066371 
L 180.858124 217.893775 
L 181.183429 218.323862 
L 181.508734 217.589468 
L 181.834039 217.337907 
L 182.159344 216.408757 
L 182.484649 218.405011 
L 183.13526 215.443089 
L 183.78587 215.925923 
L 184.111175 214.797958 
L 184.43648 216.242402 
L 184.761785 214.785786 
L 185.087091 215.288907 
L 185.412396 214.611317 
L 185.737701 210.639096 
L 186.063006 214.083851 
L 186.388311 214.542341 
L 186.713616 211.79952 
L 187.038921 214.262378 
L 187.364227 213.016748 
L 187.689532 214.688408 
L 188.014837 214.461192 
L 188.340142 213.450893 
L 188.665447 213.215562 
L 188.990752 213.706511 
L 189.316058 212.602891 
L 189.641363 212.842279 
L 189.966668 210.910944 
L 190.291973 210.882542 
L 190.617278 212.180918 
L 190.942583 211.844152 
L 191.267889 210.906886 
L 191.593194 211.000207 
L 191.918499 210.752704 
L 192.243804 209.162193 
L 192.569109 208.281731 
L 192.894414 210.334789 
L 193.219719 209.827611 
L 193.545025 209.904702 
L 193.87033 209.494902 
L 194.195635 209.665314 
L 194.52094 208.184353 
L 194.846245 205.437475 
L 195.17155 208.383167 
L 195.496856 208.569809 
L 195.822161 205.656576 
L 196.147466 205.449648 
L 196.472771 202.67031 
L 196.798076 205.741782 
L 197.123381 206.017687 
L 197.448686 207.25926 
L 197.773992 207.66906 
L 198.099297 206.946838 
L 198.424602 205.526739 
L 198.749907 206.492406 
L 199.075212 206.662818 
L 199.400517 205.952769 
L 199.725823 204.459636 
L 200.051128 205.003331 
L 200.701738 204.512382 
L 201.027043 204.723368 
L 201.352348 203.794218 
L 202.328264 203.753643 
L 202.653569 202.459324 
L 202.978874 202.13473 
L 203.304179 201.201522 
L 203.629484 202.106328 
L 203.95479 201.919687 
L 204.280095 200.268314 
L 204.6054 201.570748 
L 204.930705 201.899399 
L 205.25601 200.483358 
L 205.581315 201.148776 
L 205.906621 200.406266 
L 206.557231 200.743033 
L 206.882536 200.515817 
L 207.207841 199.992409 
L 207.533146 199.903146 
L 207.858451 198.730549 
L 208.183757 199.51769 
L 208.509062 197.29422 
L 208.834367 196.973684 
L 209.159672 197.971811 
L 209.484977 197.119751 
L 209.810282 199.047029 
L 210.135588 198.941535 
L 210.786198 198.568252 
L 211.111503 197.963696 
L 211.436808 196.535482 
L 211.762113 197.614757 
L 212.087418 197.424058 
L 212.412724 196.908765 
L 212.738029 197.314507 
L 213.063334 195.979614 
L 213.388639 185.59666 
L 213.713944 194.527055 
L 214.039249 194.827305 
L 214.364555 195.573871 
L 214.68986 195.26145 
L 215.015165 195.253335 
L 215.34047 194.831362 
L 215.665775 194.210576 
L 215.99108 193.14753 
L 216.316385 192.960889 
L 216.641691 193.545158 
L 216.966996 190.725247 
L 217.292301 193.358517 
L 217.617606 192.733673 
L 217.942911 192.620065 
L 218.268216 191.423124 
L 218.593522 192.18592 
L 218.918827 191.451526 
L 219.244132 191.102587 
L 219.569437 191.410952 
L 219.894742 191.329803 
L 220.220047 189.609454 
L 220.545353 191.50833 
L 221.195963 190.84697 
L 221.846573 187.799842 
L 222.171878 181.186237 
L 222.497183 189.747407 
L 222.822489 189.004898 
L 223.147794 188.939979 
L 223.473099 187.759268 
L 223.798404 187.037046 
L 224.123709 186.696222 
L 224.449014 187.89722 
L 224.77432 188.290791 
L 225.099625 186.858519 
L 225.42493 187.544224 
L 226.07554 186.679992 
L 226.400845 186.493351 
L 226.72615 184.720255 
L 227.051456 184.752715 
L 227.376761 184.221192 
L 227.702066 185.31264 
L 228.027371 184.448408 
L 228.352676 182.995849 
L 228.677981 184.342915 
L 229.003287 185.016448 
L 229.328592 183.989919 
L 229.653897 183.381305 
L 229.979202 183.462453 
L 230.304507 184.265824 
L 231.280423 178.220258 
L 231.605728 179.108835 
L 231.931033 181.624439 
L 232.256338 180.642542 
L 232.581643 181.218696 
L 232.906948 181.234926 
L 233.557559 182.119445 
L 233.882864 181.660956 
L 234.208169 180.43967 
L 234.533474 176.219947 
L 234.858779 178.354153 
L 235.184085 178.28112 
L 235.50939 179.465888 
L 235.834695 177.721195 
L 236.16 153.632253 
L 236.485305 176.061707 
L 236.81061 177.932181 
L 237.135915 178.617886 
L 237.786526 177.230246 
L 238.437136 178.212143 
L 238.762441 173.846352 
L 239.087746 177.522381 
L 239.413052 177.493979 
L 239.738357 175.7574 
L 240.063662 175.148786 
L 240.388967 175.031121 
L 240.714272 177.039547 
L 241.039577 176.455278 
L 241.364882 173.97619 
L 241.690188 175.432806 
L 242.015493 173.753032 
L 242.340798 174.536115 
L 242.666103 175.611333 
L 242.991408 174.106028 
L 243.967324 173.335117 
L 244.292629 173.716515 
L 244.943239 171.030498 
L 245.268544 170.884431 
L 245.59385 138.960599 
L 245.919155 171.728376 
L 246.569765 172.268013 
L 247.220375 155.186248 
L 247.54568 169.26146 
L 247.870986 170.304219 
L 248.521596 169.27769 
L 248.846901 169.934993 
L 249.172206 170.340736 
L 249.497511 170.052659 
L 249.822817 170.434057 
L 250.473427 170.25553 
L 250.798732 169.553595 
L 251.124037 169.200599 
L 251.449342 168.478377 
L 251.774647 168.754282 
L 252.099953 168.255219 
L 252.425258 168.31608 
L 252.750563 166.173759 
L 253.075868 166.778315 
L 253.401173 167.098852 
L 253.726478 166.705282 
L 254.051784 165.463709 
L 254.377089 159.556096 
L 254.702394 161.747106 
L 255.027699 161.365708 
L 255.353004 162.724946 
L 255.678309 162.327318 
L 256.003615 163.31733 
L 256.32892 163.106344 
L 256.654225 162.477443 
L 256.97953 162.668142 
L 257.63014 160.951851 
L 257.955445 163.013023 
L 258.931361 160.298605 
L 259.256666 160.128193 
L 259.581971 161.876944 
L 259.907276 160.456845 
L 260.232582 161.487431 
L 260.557887 153.985249 
L 260.883192 155.271454 
L 261.208497 161.085746 
L 261.859107 160.850415 
L 262.184412 160.205284 
L 262.835023 159.685934 
L 263.160328 159.742738 
L 263.485633 157.425947 
L 263.810938 157.880379 
L 264.136243 157.133812 
L 264.461549 158.014274 
L 264.786854 157.645048 
L 265.112159 156.736185 
L 265.437464 158.878506 
L 265.762769 158.135997 
L 266.088074 154.752103 
L 266.413379 157.373201 
L 266.738685 157.125698 
L 267.06399 155.255224 
L 267.389295 157.596359 
L 267.7146 155.21465 
L 268.039905 157.365086 
L 268.36521 148.27645 
L 268.690516 155.600105 
L 269.666431 154.455911 
L 269.991736 155.721828 
L 270.642347 154.175948 
L 270.967652 152.573265 
L 271.292957 153.104788 
L 271.618262 149.485563 
L 271.943567 149.513965 
L 272.268872 150.061718 
L 272.594177 147.245864 
L 272.919483 151.972766 
L 273.244788 152.638184 
L 273.570093 142.101047 
L 273.895398 151.851043 
L 274.220703 151.380382 
L 274.546008 151.911904 
L 274.871314 152.041742 
L 275.521924 152.033627 
L 275.847229 150.402542 
L 276.172534 144.831695 
L 276.497839 151.242429 
L 276.823144 150.986811 
L 277.14845 150.873203 
L 277.473755 151.055787 
L 277.79906 150.808284 
L 278.44967 148.925639 
L 278.774975 149.449047 
L 279.100281 149.043304 
L 279.425586 149.765526 
L 280.076196 147.61509 
L 280.401501 147.99243 
L 280.726806 147.485252 
L 281.052111 146.547987 
L 281.377417 143.005853 
L 281.702722 145.493056 
L 282.028027 143.318275 
L 282.353332 138.165343 
L 282.678637 145.768961 
L 283.003942 146.044866 
L 283.329248 142.032071 
L 283.654553 142.186253 
L 283.979858 143.967463 
L 284.305163 143.289873 
L 284.630468 144.880384 
L 285.281079 145.298299 
L 285.931689 142.563594 
L 286.256994 142.307976 
L 286.582299 142.977451 
L 286.907604 104.857929 
L 287.232909 140.69312 
L 287.558215 135.345432 
L 288.208825 142.263344 
L 288.53413 142.153794 
L 288.859435 139.557041 
L 289.18474 141.021772 
L 289.510046 140.092621 
L 289.835351 137.134757 
L 290.160656 138.104482 
L 290.485961 135.085757 
L 290.811266 137.394432 
L 291.136571 136.518028 
L 291.461876 133.953735 
L 291.787182 139.832946 
L 292.112487 139.865405 
L 292.763097 137.755543 
L 293.088402 139.135068 
L 293.413707 136.509913 
L 293.739013 136.903484 
L 294.389623 132.992125 
L 294.714928 136.327329 
L 295.040233 136.449052 
L 295.365538 134.18095 
L 295.690844 133.856356 
L 296.016149 135.686256 
L 296.341454 133.726519 
L 296.666759 133.450614 
L 296.992064 136.140688 
L 297.317369 133.848242 
L 297.642674 132.752736 
L 297.96798 134.120089 
L 298.943895 130.338568 
L 299.2692 130.626645 
L 299.594505 130.302051 
L 299.919811 129.174086 
L 300.245116 126.589505 
L 300.570421 132.27396 
L 300.895726 132.265845 
L 301.221031 132.639128 
L 301.546336 123.307047 
L 301.871641 127.129143 
L 302.196947 133.373523 
L 302.522252 130.675334 
L 302.847557 130.90255 
L 303.172862 131.685633 
L 303.498167 131.657231 
L 303.823472 131.43813 
L 304.474083 126.102614 
L 304.799388 89.62635 
L 305.124693 129.596058 
L 305.449998 127.145373 
L 305.775303 129.12134 
L 306.100608 129.218718 
L 306.425914 124.654113 
L 306.751219 128.760229 
L 307.076524 127.831078 
L 307.401829 127.689068 
L 307.727134 128.139442 
L 308.052439 127.177832 
L 308.377745 127.709355 
L 308.70305 125.61978 
L 309.028355 125.469656 
L 309.35366 126.59762 
L 309.678965 125.875398 
L 310.00427 126.719343 
L 310.329576 125.06797 
L 310.654881 125.441254 
L 310.980186 125.400679 
L 311.305491 107.592634 
L 311.630796 124.528333 
L 311.956101 124.118533 
L 312.281406 124.134762 
L 312.606712 124.650056 
L 313.257322 122.30892 
L 313.582627 122.179083 
L 313.907932 121.801742 
L 314.233237 120.965912 
L 314.558543 118.231207 
L 314.883848 117.569846 
L 315.209153 122.296748 
L 315.534458 117.797062 
L 315.859763 121.700306 
L 316.185068 113.10262 
L 316.510373 110.724968 
L 316.835679 118.803304 
L 317.160984 121.164726 
L 317.486289 120.523653 
L 317.811594 120.397873 
L 318.136899 115.528961 
L 318.462204 113.861358 
L 318.78751 120.109795 
L 319.112815 120.15037 
L 319.763425 116.531145 
L 320.08873 118.535514 
L 320.414035 118.109484 
L 320.73934 117.164104 
L 321.064646 114.636327 
L 321.715256 117.444066 
L 322.040561 116.669098 
L 322.365866 116.5068 
L 322.691171 115.123218 
L 323.016477 114.238699 
L 323.341782 110.104181 
L 323.667087 110.509924 
L 323.992392 116.571719 
L 324.317697 114.161608 
L 324.643002 115.84544 
L 324.968308 113.05393 
L 325.293613 106.846068 
L 325.618918 103.738079 
L 325.944223 87.354191 
L 326.269528 53.568 
L 326.594833 111.02116 
L 326.920138 104.103248 
L 327.245444 114.701246 
L 327.570749 112.976839 
L 327.896054 112.53458 
L 328.221359 111.361984 
L 328.546664 112.66036 
L 328.871969 109.876966 
L 329.197275 113.475903 
L 329.52258 111.122595 
L 329.847885 112.323594 
L 330.17319 109.410361 
L 330.498495 112.782083 
L 330.8238 110.692508 
L 331.149105 109.941884 
L 331.474411 107.373533 
L 331.799716 110.87915 
L 332.125021 111.532396 
L 332.450326 110.915667 
L 332.775631 110.944069 
L 333.100936 108.68814 
L 333.426242 109.280524 
L 333.751547 108.306741 
L 334.076852 110.010861 
L 334.402157 108.988389 
L 334.727462 107.401935 
L 335.052767 108.578589 
L 335.378073 108.81392 
L 335.703378 103.863859 
L 336.028683 102.370726 
L 336.353988 102.715608 
L 336.679293 107.020537 
L 337.004598 107.162547 
L 337.329903 98.889454 
L 337.655209 104.630713 
L 337.980514 105.547691 
L 338.305819 104.866044 
L 338.631124 102.01773 
L 338.956429 101.380714 
L 339.281734 104.537392 
L 339.60704 104.715919 
L 339.932345 98.994948 
L 340.25765 102.30175 
L 340.582955 99.546758 
L 340.90826 94.284275 
L 341.233565 104.220913 
L 341.55887 103.823285 
L 341.884176 102.480277 
L 342.209481 103.182212 
L 342.534786 103.466232 
L 342.860091 102.731837 
L 343.185396 96.722789 
L 343.510701 102.975283 
L 343.836007 96.35762 
L 344.161312 101.190015 
L 344.486617 100.966857 
L 344.811922 94.633214 
L 345.137227 95.834212 
L 345.787837 101.977156 
L 346.113143 94.868545 
L 346.438448 94.349194 
L 346.763753 101.474035 
L 347.089058 99.40069 
L 347.739668 99.161302 
L 348.064974 100.041764 
L 348.390279 61.143215 
L 348.715584 99.104498 
L 349.040889 99.692825 
L 349.366194 98.625722 
L 349.691499 98.714985 
L 350.016805 98.47154 
L 350.34211 97.672226 
L 350.667415 97.810179 
L 350.99272 96.990579 
L 351.318025 97.217795 
L 351.64333 94.381654 
L 351.968635 67.979979 
L 352.293941 94.057059 
L 352.619246 92.332653 
L 352.944551 93.241517 
L 353.595161 89.914427 
L 353.920466 90.328284 
L 354.245772 89.898197 
L 354.571077 92.012116 
L 354.896382 91.091081 
L 355.221687 88.551132 
L 355.546992 89.61012 
L 355.872297 82.176915 
L 356.197602 88.599821 
L 356.522908 88.23871 
L 356.848213 87.232468 
L 357.498823 90.721855 
L 357.824128 87.329846 
L 358.149433 89.395076 
L 358.474739 84.290834 
L 358.800044 86.924104 
L 359.125349 86.201882 
L 359.450654 89.330158 
L 359.775959 89.792704 
L 360.101264 88.940645 
L 360.42657 87.143205 
L 360.751875 83.386028 
L 361.07718 87.946575 
L 361.402485 87.175664 
L 361.72779 87.264927 
L 362.053095 87.703129 
L 362.3784 86.948448 
L 362.703706 84.043331 
L 363.679621 78.646953 
L 364.004926 83.463119 
L 364.330231 84.083905 
L 364.655537 84.140709 
L 364.980842 85.142893 
L 365.306147 80.902883 
L 365.631452 86.234341 
L 365.956757 80.042708 
L 366.282062 82.379786 
L 366.932673 78.55769 
L 367.257978 81.763057 
L 367.583283 81.45875 
L 367.908588 76.91849 
L 368.233893 79.50307 
L 368.559198 83.394142 
L 368.884504 80.63915 
L 369.209809 81.393831 
L 369.535114 70.410378 
L 369.860419 79.048639 
L 370.185724 77.064557 
L 370.511029 80.415991 
L 371.16164 76.107004 
L 371.486945 77.271486 
L 371.81225 77.660999 
L 372.137555 81.126041 
L 372.46286 77.514931 
L 372.788165 76.443771 
L 373.113471 77.973421 
L 373.438776 75.116992 
L 373.764081 77.182222 
L 374.089386 74.601699 
L 374.414691 75.806755 
L 374.739996 71.818305 
L 375.065302 78.594207 
L 375.390607 74.743709 
L 375.715912 74.987155 
L 376.041217 75.770238 
L 376.366522 74.423172 
L 376.691827 71.931913 
L 377.017132 73.867305 
L 377.342438 70.519928 
L 377.667743 75.364495 
L 377.993048 75.563309 
L 378.318353 72.07798 
L 378.643658 74.30145 
L 378.968963 72.353885 
L 379.294269 74.561125 
L 379.619574 75.319864 
L 379.944879 73.907879 
L 380.270184 74.321737 
L 380.595489 71.574859 
L 380.920794 70.783661 
L 381.246099 72.792087 
L 381.571405 73.14914 
L 381.89671 73.773984 
L 382.222015 69.862625 
L 382.54732 70.787718 
L 382.872625 69.087657 
L 383.19793 71.096083 
L 383.523236 71.177231 
L 383.848541 68.600765 
L 384.173846 70.13853 
L 384.824456 68.069242 
L 385.149761 71.615433 
L 385.475066 67.902888 
L 385.800372 67.144149 
L 386.125677 70.734972 
L 386.450982 66.466559 
L 386.776287 69.675983 
L 387.101592 69.030853 
L 387.426897 66.831727 
L 387.752203 67.614811 
L 388.077508 66.060816 
L 388.402813 62.875736 
L 388.728118 67.424112 
L 389.053423 61.820806 
L 389.378728 64.62043 
L 390.029339 67.257757 
L 390.354644 64.977483 
L 390.679949 67.257757 
L 391.005254 61.97093 
L 391.330559 66.405698 
L 391.655864 66.746521 
L 391.98117 63.151641 
L 392.306475 65.074862 
L 392.63178 65.342652 
L 392.957085 64.72998 
L 393.28239 65.444087 
L 393.607695 65.293963 
L 393.933001 64.669119 
L 394.258306 64.445961 
L 394.583611 64.823301 
L 394.908916 62.202204 
L 395.234221 62.263065 
L 395.559526 63.804887 
L 395.884831 63.792715 
L 396.210137 63.967184 
L 396.535442 62.478109 
L 396.860747 62.5552 
L 397.186052 54.395715 
L 397.511357 62.165687 
L 397.836662 62.238721 
L 398.161968 61.873552 
L 398.487273 59.792092 
L 398.487273 59.792092 
" clip-path="url(#pbbdfb58cf5)" style="fill: none; stroke: #1f77b4; stroke-width: 1.5; stroke-linecap: square"/>
   </g>
   <g id="patch_3">
    <path d="M 57.6 307.584 
L 57.6 41.472 
" style="fill: none; stroke: #000000; stroke-width: 0.8; stroke-linejoin: miter; stroke-linecap: square"/>
   </g>
   <g id="patch_4">
    <path d="M 414.72 307.584 
L 414.72 41.472 
" style="fill: none; stroke: #000000; stroke-width: 0.8; stroke-linejoin: miter; stroke-linecap: square"/>
   </g>
   <g id="patch_5">
    <path d="M 57.6 307.584 
L 414.72 307.584 
" style="fill: none; stroke: #000000; stroke-width: 0.8; stroke-linejoin: miter; stroke-linecap: square"/>
   </g>
   <g id="patch_6">
    <path d="M 57.6 41.472 
L 414.72 41.472 
" style="fill: none; stroke: #000000; stroke-width: 0.8; stroke-linejoin: miter; stroke-linecap: square"/>
   </g>
   <g id="text_16">
    <!-- Résultat benchmark dgbsv -->
    <g transform="translate(155.807813 35.472) scale(0.12 -0.12)">
     <defs>
      <path id="DejaVuSans-52" d="M 2841 2188 
Q 3044 2119 3236 1894 
Q 3428 1669 3622 1275 
L 4263 0 
L 3584 0 
L 2988 1197 
Q 2756 1666 2539 1819 
Q 2322 1972 1947 1972 
L 1259 1972 
L 1259 0 
L 628 0 
L 628 4666 
L 2053 4666 
Q 2853 4666 3247 4331 
Q 3641 3997 3641 3322 
Q 3641 2881 3436 2590 
Q 3231 2300 2841 2188 
z
M 1259 4147 
L 1259 2491 
L 2053 2491 
Q 2509 2491 2742 2702 
Q 2975 2913 2975 3322 
Q 2975 3731 2742 3939 
Q 2509 4147 2053 4147 
L 1259 4147 
z
" transform="scale(0.015625)"/>
      <path id="DejaVuSans-e9" d="M 3597 1894 
L 3597 1613 
L 953 1613 
Q 991 1019 1311 708 
Q 1631 397 2203 397 
Q 2534 397 2845 478 
Q 3156 559 3463 722 
L 3463 178 
Q 3153 47 2828 -22 
Q 2503 -91 2169 -91 
Q 1331 -91 842 396 
Q 353 884 353 1716 
Q 353 2575 817 3079 
Q 1281 3584 2069 3584 
Q 2775 3584 3186 3129 
Q 3597 2675 3597 1894 
z
M 3022 2063 
Q 3016 2534 2758 2815 
Q 2500 3097 2075 3097 
Q 1594 3097 1305 2825 
Q 1016 2553 972 2059 
L 3022 2063 
z
M 2466 5119 
L 3088 5119 
L 2070 3944 
L 1591 3944 
L 2466 5119 
z
" transform="scale(0.015625)"/>
      <path id="DejaVuSans-75" d="M 544 1381 
L 544 3500 
L 1119 3500 
L 1119 1403 
Q 1119 906 1312 657 
Q 1506 409 1894 409 
Q 2359 409 2629 706 
Q 2900 1003 2900 1516 
L 2900 3500 
L 3475 3500 
L 3475 0 
L 2900 0 
L 2900 538 
Q 2691 219 2414 64 
Q 2138 -91 1772 -91 
Q 1169 -91 856 284 
Q 544 659 544 1381 
z
M 1991 3584 
L 1991 3584 
z
" transform="scale(0.015625)"/>
      <path id="DejaVuSans-6c" d="M 603 4863 
L 1178 4863 
L 1178 0 
L 603 0 
L 603 4863 
z
" transform="scale(0.015625)"/>
      <path id="DejaVuSans-68" d="M 3513 2113 
L 3513 0 
L 2938 0 
L 2938 2094 
Q 2938 2591 2744 2837 
Q 2550 3084 2163 3084 
Q 1697 3084 1428 2787 
Q 1159 2491 1159 1978 
L 1159 0 
L 581 0 
L 581 4863 
L 1159 4863 
L 1159 2956 
Q 1366 3272 1645 3428 
Q 1925 3584 2291 3584 
Q 2894 3584 3203 3211 
Q 3513 2838 3513 2113 
z
" transform="scale(0.015625)"/>
      <path id="DejaVuSans-6b" d="M 581 4863 
L 1159 4863 
L 1159 1991 
L 2875 3500 
L 3609 3500 
L 1753 1863 
L 3688 0 
L 2938 0 
L 1159 1709 
L 1159 0 
L 581 0 
L 581 4863 
z
" transform="scale(0.015625)"/>
      <path id="DejaVuSans-67" d="M 2906 1791 
Q 2906 2416 2648 2759 
Q 2391 3103 1925 3103 
Q 1463 3103 1205 2759 
Q 947 2416 947 1791 
Q 947 1169 1205 825 
Q 1463 481 1925 481 
Q 2391 481 2648 825 
Q 2906 1169 2906 1791 
z
M 3481 434 
Q 3481 -459 3084 -895 
Q 2688 -1331 1869 -1331 
Q 1566 -1331 1297 -1286 
Q 1028 -1241 775 -1147 
L 775 -588 
Q 1028 -725 1275 -790 
Q 1522 -856 1778 -856 
Q 2344 -856 2625 -561 
Q 2906 -266 2906 331 
L 2906 616 
Q 2728 306 2450 153 
Q 2172 0 1784 0 
Q 1141 0 747 490 
Q 353 981 353 1791 
Q 353 2603 747 3093 
Q 1141 3584 1784 3584 
Q 2172 3584 2450 3431 
Q 2728 3278 2906 2969 
L 2906 3500 
L 3481 3500 
L 3481 434 
z
" transform="scale(0.015625)"/>
      <path id="DejaVuSans-76" d="M 191 3500 
L 800 3500 
L 1894 563 
L 2988 3500 
L 3597 3500 
L 2284 0 
L 1503 0 
L 191 3500 
z
" transform="scale(0.015625)"/>
     </defs>
     <use xlink:href="#DejaVuSans-52"/>
     <use xlink:href="#DejaVuSans-e9" x="64.982422"/>
     <use xlink:href="#DejaVuSans-73" x="126.505859"/>
     <use xlink:href="#DejaVuSans-75" x="178.605469"/>
     <use xlink:href="#DejaVuSans-6c" x="241.984375"/>
     <use xlink:href="#DejaVuSans-74" x="269.767578"/>
     <use xlink:href="#DejaVuSans-61" x="308.976562"/>
     <use xlink:href="#DejaVuSans-74" x="370.255859"/>
     <use xlink:href="#DejaVuSans-20" x="409.464844"/>
     <use xlink:href="#DejaVuSans-62" x="441.251953"/>
     <use xlink:href="#DejaVuSans-65" x="504.728516"/>
     <use xlink:href="#DejaVuSans-6e" x="566.251953"/>
     <use xlink:href="#DejaVuSans-63" x="629.630859"/>
     <use xlink:href="#DejaVuSans-68" x="684.611328"/>
     <use xlink:href="#DejaVuSans-6d" x="747.990234"/>
     <use xlink:href="#DejaVuSans-61" x="845.402344"/>
     <use xlink:href="#DejaVuSans-72" x="906.681641"/>
     <use xlink:href="#DejaVuSans-6b" x="947.794922"/>
     <use xlink:href="#DejaVuSans-20" x="1005.705078"/>
     <use xlink:href="#DejaVuSans-64" x="1037.492188"/>
     <use xlink:href="#DejaVuSans-67" x="1100.96875"/>
     <use xlink:href="#DejaVuSans-62" x="1164.445312"/>
     <use xlink:href="#DejaVuSans-73" x="1227.921875"/>
     <use xlink:href="#DejaVuSans-76" x="1280.021484"/>
    </g>
   </g>
  </g>
 </g>
 <defs>
  <clipPath id="pbbdfb58cf5">
   <rect x="57.6" y="41.472" width="357.12" height="266.112"/>
  </clipPath>
 </defs>
</svg>
