<?xml version="1.0" encoding="utf-8" standalone="no"?>
<!DOCTYPE svg PUBLIC "-//W3C//DTD SVG 1.1//EN"
  "http://www.w3.org/Graphics/SVG/1.1/DTD/svg11.dtd">
<svg xmlns:xlink="http://www.w3.org/1999/xlink" width="460.8pt" height="345.6pt" viewBox="0 0 460.8 345.6" xmlns="http://www.w3.org/2000/svg" version="1.1">
 <metadata>
  <rdf:RDF xmlns:dc="http://purl.org/dc/elements/1.1/" xmlns:cc="http://creativecommons.org/ns#" xmlns:rdf="http://www.w3.org/1999/02/22-rdf-syntax-ns#">
   <cc:Work>
    <dc:type rdf:resource="http://purl.org/dc/dcmitype/StillImage"/>
    <dc:date>2024-12-18T01:22:38.022000</dc:date>
    <dc:format>image/svg+xml</dc:format>
    <dc:creator>
     <cc:Agent>
      <dc:title>Matplotlib v3.7.5, https://matplotlib.org/</dc:title>
     </cc:Agent>
    </dc:creator>
   </cc:Work>
  </rdf:RDF>
 </metadata>
 <defs>
  <style type="text/css">*{stroke-linejoin: round; stroke-linecap: butt}</style>
 </defs>
 <g id="figure_1">
  <g id="patch_1">
   <path d="M 0 345.6 
L 460.8 345.6 
L 460.8 0 
L 0 0 
z
" style="fill: #ffffff"/>
  </g>
  <g id="axes_1">
   <g id="patch_2">
    <path d="M 57.6 307.584 
L 414.72 307.584 
L 414.72 41.472 
L 57.6 41.472 
z
" style="fill: #ffffff"/>
   </g>
   <g id="matplotlib.axis_1">
    <g id="xtick_1">
     <g id="line2d_1">
      <defs>
       <path id="m76b3c81b73" d="M 0 0 
L 0 3.5 
" style="stroke: #000000; stroke-width: 0.8"/>
      </defs>
      <g>
       <use xlink:href="#m76b3c81b73" x="73.507422" y="307.584" style="stroke: #000000; stroke-width: 0.8"/>
      </g>
     </g>
     <g id="text_1">
      <!-- 0 -->
      <g transform="translate(70.326172 322.182437) scale(0.1 -0.1)">
       <defs>
        <path id="DejaVuSans-30" d="M 2034 4250 
Q 1547 4250 1301 3770 
Q 1056 3291 1056 2328 
Q 1056 1369 1301 889 
Q 1547 409 2034 409 
Q 2525 409 2770 889 
Q 3016 1369 3016 2328 
Q 3016 3291 2770 3770 
Q 2525 4250 2034 4250 
z
M 2034 4750 
Q 2819 4750 3233 4129 
Q 3647 3509 3647 2328 
Q 3647 1150 3233 529 
Q 2819 -91 2034 -91 
Q 1250 -91 836 529 
Q 422 1150 422 2328 
Q 422 3509 836 4129 
Q 1250 4750 2034 4750 
z
" transform="scale(0.015625)"/>
       </defs>
       <use xlink:href="#DejaVuSans-30"/>
      </g>
     </g>
    </g>
    <g id="xtick_2">
     <g id="line2d_2">
      <g>
       <use xlink:href="#m76b3c81b73" x="138.568453" y="307.584" style="stroke: #000000; stroke-width: 0.8"/>
      </g>
     </g>
     <g id="text_2">
      <!-- 20000 -->
      <g transform="translate(122.662203 322.182437) scale(0.1 -0.1)">
       <defs>
        <path id="DejaVuSans-32" d="M 1228 531 
L 3431 531 
L 3431 0 
L 469 0 
L 469 531 
Q 828 903 1448 1529 
Q 2069 2156 2228 2338 
Q 2531 2678 2651 2914 
Q 2772 3150 2772 3378 
Q 2772 3750 2511 3984 
Q 2250 4219 1831 4219 
Q 1534 4219 1204 4116 
Q 875 4013 500 3803 
L 500 4441 
Q 881 4594 1212 4672 
Q 1544 4750 1819 4750 
Q 2544 4750 2975 4387 
Q 3406 4025 3406 3419 
Q 3406 3131 3298 2873 
Q 3191 2616 2906 2266 
Q 2828 2175 2409 1742 
Q 1991 1309 1228 531 
z
" transform="scale(0.015625)"/>
       </defs>
       <use xlink:href="#DejaVuSans-32"/>
       <use xlink:href="#DejaVuSans-30" x="63.623047"/>
       <use xlink:href="#DejaVuSans-30" x="127.246094"/>
       <use xlink:href="#DejaVuSans-30" x="190.869141"/>
       <use xlink:href="#DejaVuSans-30" x="254.492188"/>
      </g>
     </g>
    </g>
    <g id="xtick_3">
     <g id="line2d_3">
      <g>
       <use xlink:href="#m76b3c81b73" x="203.629484" y="307.584" style="stroke: #000000; stroke-width: 0.8"/>
      </g>
     </g>
     <g id="text_3">
      <!-- 40000 -->
      <g transform="translate(187.723234 322.182437) scale(0.1 -0.1)">
       <defs>
        <path id="DejaVuSans-34" d="M 2419 4116 
L 825 1625 
L 2419 1625 
L 2419 4116 
z
M 2253 4666 
L 3047 4666 
L 3047 1625 
L 3713 1625 
L 3713 1100 
L 3047 1100 
L 3047 0 
L 2419 0 
L 2419 1100 
L 313 1100 
L 313 1709 
L 2253 4666 
z
" transform="scale(0.015625)"/>
       </defs>
       <use xlink:href="#DejaVuSans-34"/>
       <use xlink:href="#DejaVuSans-30" x="63.623047"/>
       <use xlink:href="#DejaVuSans-30" x="127.246094"/>
       <use xlink:href="#DejaVuSans-30" x="190.869141"/>
       <use xlink:href="#DejaVuSans-30" x="254.492188"/>
      </g>
     </g>
    </g>
    <g id="xtick_4">
     <g id="line2d_4">
      <g>
       <use xlink:href="#m76b3c81b73" x="268.690516" y="307.584" style="stroke: #000000; stroke-width: 0.8"/>
      </g>
     </g>
     <g id="text_4">
      <!-- 60000 -->
      <g transform="translate(252.784266 322.182437) scale(0.1 -0.1)">
       <defs>
        <path id="DejaVuSans-36" d="M 2113 2584 
Q 1688 2584 1439 2293 
Q 1191 2003 1191 1497 
Q 1191 994 1439 701 
Q 1688 409 2113 409 
Q 2538 409 2786 701 
Q 3034 994 3034 1497 
Q 3034 2003 2786 2293 
Q 2538 2584 2113 2584 
z
M 3366 4563 
L 3366 3988 
Q 3128 4100 2886 4159 
Q 2644 4219 2406 4219 
Q 1781 4219 1451 3797 
Q 1122 3375 1075 2522 
Q 1259 2794 1537 2939 
Q 1816 3084 2150 3084 
Q 2853 3084 3261 2657 
Q 3669 2231 3669 1497 
Q 3669 778 3244 343 
Q 2819 -91 2113 -91 
Q 1303 -91 875 529 
Q 447 1150 447 2328 
Q 447 3434 972 4092 
Q 1497 4750 2381 4750 
Q 2619 4750 2861 4703 
Q 3103 4656 3366 4563 
z
" transform="scale(0.015625)"/>
       </defs>
       <use xlink:href="#DejaVuSans-36"/>
       <use xlink:href="#DejaVuSans-30" x="63.623047"/>
       <use xlink:href="#DejaVuSans-30" x="127.246094"/>
       <use xlink:href="#DejaVuSans-30" x="190.869141"/>
       <use xlink:href="#DejaVuSans-30" x="254.492188"/>
      </g>
     </g>
    </g>
    <g id="xtick_5">
     <g id="line2d_5">
      <g>
       <use xlink:href="#m76b3c81b73" x="333.751547" y="307.584" style="stroke: #000000; stroke-width: 0.8"/>
      </g>
     </g>
     <g id="text_5">
      <!-- 80000 -->
      <g transform="translate(317.845297 322.182437) scale(0.1 -0.1)">
       <defs>
        <path id="DejaVuSans-38" d="M 2034 2216 
Q 1584 2216 1326 1975 
Q 1069 1734 1069 1313 
Q 1069 891 1326 650 
Q 1584 409 2034 409 
Q 2484 409 2743 651 
Q 3003 894 3003 1313 
Q 3003 1734 2745 1975 
Q 2488 2216 2034 2216 
z
M 1403 2484 
Q 997 2584 770 2862 
Q 544 3141 544 3541 
Q 544 4100 942 4425 
Q 1341 4750 2034 4750 
Q 2731 4750 3128 4425 
Q 3525 4100 3525 3541 
Q 3525 3141 3298 2862 
Q 3072 2584 2669 2484 
Q 3125 2378 3379 2068 
Q 3634 1759 3634 1313 
Q 3634 634 3220 271 
Q 2806 -91 2034 -91 
Q 1263 -91 848 271 
Q 434 634 434 1313 
Q 434 1759 690 2068 
Q 947 2378 1403 2484 
z
M 1172 3481 
Q 1172 3119 1398 2916 
Q 1625 2713 2034 2713 
Q 2441 2713 2670 2916 
Q 2900 3119 2900 3481 
Q 2900 3844 2670 4047 
Q 2441 4250 2034 4250 
Q 1625 4250 1398 4047 
Q 1172 3844 1172 3481 
z
" transform="scale(0.015625)"/>
       </defs>
       <use xlink:href="#DejaVuSans-38"/>
       <use xlink:href="#DejaVuSans-30" x="63.623047"/>
       <use xlink:href="#DejaVuSans-30" x="127.246094"/>
       <use xlink:href="#DejaVuSans-30" x="190.869141"/>
       <use xlink:href="#DejaVuSans-30" x="254.492188"/>
      </g>
     </g>
    </g>
    <g id="xtick_6">
     <g id="line2d_6">
      <g>
       <use xlink:href="#m76b3c81b73" x="398.812578" y="307.584" style="stroke: #000000; stroke-width: 0.8"/>
      </g>
     </g>
     <g id="text_6">
      <!-- 100000 -->
      <g transform="translate(379.725078 322.182437) scale(0.1 -0.1)">
       <defs>
        <path id="DejaVuSans-31" d="M 794 531 
L 1825 531 
L 1825 4091 
L 703 3866 
L 703 4441 
L 1819 4666 
L 2450 4666 
L 2450 531 
L 3481 531 
L 3481 0 
L 794 0 
L 794 531 
z
" transform="scale(0.015625)"/>
       </defs>
       <use xlink:href="#DejaVuSans-31"/>
       <use xlink:href="#DejaVuSans-30" x="63.623047"/>
       <use xlink:href="#DejaVuSans-30" x="127.246094"/>
       <use xlink:href="#DejaVuSans-30" x="190.869141"/>
       <use xlink:href="#DejaVuSans-30" x="254.492188"/>
       <use xlink:href="#DejaVuSans-30" x="318.115234"/>
      </g>
     </g>
    </g>
    <g id="text_7">
     <!-- Nombre de points -->
     <g transform="translate(191.510781 335.860562) scale(0.1 -0.1)">
      <defs>
       <path id="DejaVuSans-4e" d="M 628 4666 
L 1478 4666 
L 3547 763 
L 3547 4666 
L 4159 4666 
L 4159 0 
L 3309 0 
L 1241 3903 
L 1241 0 
L 628 0 
L 628 4666 
z
" transform="scale(0.015625)"/>
       <path id="DejaVuSans-6f" d="M 1959 3097 
Q 1497 3097 1228 2736 
Q 959 2375 959 1747 
Q 959 1119 1226 758 
Q 1494 397 1959 397 
Q 2419 397 2687 759 
Q 2956 1122 2956 1747 
Q 2956 2369 2687 2733 
Q 2419 3097 1959 3097 
z
M 1959 3584 
Q 2709 3584 3137 3096 
Q 3566 2609 3566 1747 
Q 3566 888 3137 398 
Q 2709 -91 1959 -91 
Q 1206 -91 779 398 
Q 353 888 353 1747 
Q 353 2609 779 3096 
Q 1206 3584 1959 3584 
z
" transform="scale(0.015625)"/>
       <path id="DejaVuSans-6d" d="M 3328 2828 
Q 3544 3216 3844 3400 
Q 4144 3584 4550 3584 
Q 5097 3584 5394 3201 
Q 5691 2819 5691 2113 
L 5691 0 
L 5113 0 
L 5113 2094 
Q 5113 2597 4934 2840 
Q 4756 3084 4391 3084 
Q 3944 3084 3684 2787 
Q 3425 2491 3425 1978 
L 3425 0 
L 2847 0 
L 2847 2094 
Q 2847 2600 2669 2842 
Q 2491 3084 2119 3084 
Q 1678 3084 1418 2786 
Q 1159 2488 1159 1978 
L 1159 0 
L 581 0 
L 581 3500 
L 1159 3500 
L 1159 2956 
Q 1356 3278 1631 3431 
Q 1906 3584 2284 3584 
Q 2666 3584 2933 3390 
Q 3200 3197 3328 2828 
z
" transform="scale(0.015625)"/>
       <path id="DejaVuSans-62" d="M 3116 1747 
Q 3116 2381 2855 2742 
Q 2594 3103 2138 3103 
Q 1681 3103 1420 2742 
Q 1159 2381 1159 1747 
Q 1159 1113 1420 752 
Q 1681 391 2138 391 
Q 2594 391 2855 752 
Q 3116 1113 3116 1747 
z
M 1159 2969 
Q 1341 3281 1617 3432 
Q 1894 3584 2278 3584 
Q 2916 3584 3314 3078 
Q 3713 2572 3713 1747 
Q 3713 922 3314 415 
Q 2916 -91 2278 -91 
Q 1894 -91 1617 61 
Q 1341 213 1159 525 
L 1159 0 
L 581 0 
L 581 4863 
L 1159 4863 
L 1159 2969 
z
" transform="scale(0.015625)"/>
       <path id="DejaVuSans-72" d="M 2631 2963 
Q 2534 3019 2420 3045 
Q 2306 3072 2169 3072 
Q 1681 3072 1420 2755 
Q 1159 2438 1159 1844 
L 1159 0 
L 581 0 
L 581 3500 
L 1159 3500 
L 1159 2956 
Q 1341 3275 1631 3429 
Q 1922 3584 2338 3584 
Q 2397 3584 2469 3576 
Q 2541 3569 2628 3553 
L 2631 2963 
z
" transform="scale(0.015625)"/>
       <path id="DejaVuSans-65" d="M 3597 1894 
L 3597 1613 
L 953 1613 
Q 991 1019 1311 708 
Q 1631 397 2203 397 
Q 2534 397 2845 478 
Q 3156 559 3463 722 
L 3463 178 
Q 3153 47 2828 -22 
Q 2503 -91 2169 -91 
Q 1331 -91 842 396 
Q 353 884 353 1716 
Q 353 2575 817 3079 
Q 1281 3584 2069 3584 
Q 2775 3584 3186 3129 
Q 3597 2675 3597 1894 
z
M 3022 2063 
Q 3016 2534 2758 2815 
Q 2500 3097 2075 3097 
Q 1594 3097 1305 2825 
Q 1016 2553 972 2059 
L 3022 2063 
z
" transform="scale(0.015625)"/>
       <path id="DejaVuSans-20" transform="scale(0.015625)"/>
       <path id="DejaVuSans-64" d="M 2906 2969 
L 2906 4863 
L 3481 4863 
L 3481 0 
L 2906 0 
L 2906 525 
Q 2725 213 2448 61 
Q 2172 -91 1784 -91 
Q 1150 -91 751 415 
Q 353 922 353 1747 
Q 353 2572 751 3078 
Q 1150 3584 1784 3584 
Q 2172 3584 2448 3432 
Q 2725 3281 2906 2969 
z
M 947 1747 
Q 947 1113 1208 752 
Q 1469 391 1925 391 
Q 2381 391 2643 752 
Q 2906 1113 2906 1747 
Q 2906 2381 2643 2742 
Q 2381 3103 1925 3103 
Q 1469 3103 1208 2742 
Q 947 2381 947 1747 
z
" transform="scale(0.015625)"/>
       <path id="DejaVuSans-70" d="M 1159 525 
L 1159 -1331 
L 581 -1331 
L 581 3500 
L 1159 3500 
L 1159 2969 
Q 1341 3281 1617 3432 
Q 1894 3584 2278 3584 
Q 2916 3584 3314 3078 
Q 3713 2572 3713 1747 
Q 3713 922 3314 415 
Q 2916 -91 2278 -91 
Q 1894 -91 1617 61 
Q 1341 213 1159 525 
z
M 3116 1747 
Q 3116 2381 2855 2742 
Q 2594 3103 2138 3103 
Q 1681 3103 1420 2742 
Q 1159 2381 1159 1747 
Q 1159 1113 1420 752 
Q 1681 391 2138 391 
Q 2594 391 2855 752 
Q 3116 1113 3116 1747 
z
" transform="scale(0.015625)"/>
       <path id="DejaVuSans-69" d="M 603 3500 
L 1178 3500 
L 1178 0 
L 603 0 
L 603 3500 
z
M 603 4863 
L 1178 4863 
L 1178 4134 
L 603 4134 
L 603 4863 
z
" transform="scale(0.015625)"/>
       <path id="DejaVuSans-6e" d="M 3513 2113 
L 3513 0 
L 2938 0 
L 2938 2094 
Q 2938 2591 2744 2837 
Q 2550 3084 2163 3084 
Q 1697 3084 1428 2787 
Q 1159 2491 1159 1978 
L 1159 0 
L 581 0 
L 581 3500 
L 1159 3500 
L 1159 2956 
Q 1366 3272 1645 3428 
Q 1925 3584 2291 3584 
Q 2894 3584 3203 3211 
Q 3513 2838 3513 2113 
z
" transform="scale(0.015625)"/>
       <path id="DejaVuSans-74" d="M 1172 4494 
L 1172 3500 
L 2356 3500 
L 2356 3053 
L 1172 3053 
L 1172 1153 
Q 1172 725 1289 603 
Q 1406 481 1766 481 
L 2356 481 
L 2356 0 
L 1766 0 
Q 1100 0 847 248 
Q 594 497 594 1153 
L 594 3053 
L 172 3053 
L 172 3500 
L 594 3500 
L 594 4494 
L 1172 4494 
z
" transform="scale(0.015625)"/>
       <path id="DejaVuSans-73" d="M 2834 3397 
L 2834 2853 
Q 2591 2978 2328 3040 
Q 2066 3103 1784 3103 
Q 1356 3103 1142 2972 
Q 928 2841 928 2578 
Q 928 2378 1081 2264 
Q 1234 2150 1697 2047 
L 1894 2003 
Q 2506 1872 2764 1633 
Q 3022 1394 3022 966 
Q 3022 478 2636 193 
Q 2250 -91 1575 -91 
Q 1294 -91 989 -36 
Q 684 19 347 128 
L 347 722 
Q 666 556 975 473 
Q 1284 391 1588 391 
Q 1994 391 2212 530 
Q 2431 669 2431 922 
Q 2431 1156 2273 1281 
Q 2116 1406 1581 1522 
L 1381 1569 
Q 847 1681 609 1914 
Q 372 2147 372 2553 
Q 372 3047 722 3315 
Q 1072 3584 1716 3584 
Q 2034 3584 2315 3537 
Q 2597 3491 2834 3397 
z
" transform="scale(0.015625)"/>
      </defs>
      <use xlink:href="#DejaVuSans-4e"/>
      <use xlink:href="#DejaVuSans-6f" x="74.804688"/>
      <use xlink:href="#DejaVuSans-6d" x="135.986328"/>
      <use xlink:href="#DejaVuSans-62" x="233.398438"/>
      <use xlink:href="#DejaVuSans-72" x="296.875"/>
      <use xlink:href="#DejaVuSans-65" x="335.738281"/>
      <use xlink:href="#DejaVuSans-20" x="397.261719"/>
      <use xlink:href="#DejaVuSans-64" x="429.048828"/>
      <use xlink:href="#DejaVuSans-65" x="492.525391"/>
      <use xlink:href="#DejaVuSans-20" x="554.048828"/>
      <use xlink:href="#DejaVuSans-70" x="585.835938"/>
      <use xlink:href="#DejaVuSans-6f" x="649.3125"/>
      <use xlink:href="#DejaVuSans-69" x="710.494141"/>
      <use xlink:href="#DejaVuSans-6e" x="738.277344"/>
      <use xlink:href="#DejaVuSans-74" x="801.65625"/>
      <use xlink:href="#DejaVuSans-73" x="840.865234"/>
     </g>
    </g>
   </g>
   <g id="matplotlib.axis_2">
    <g id="ytick_1">
     <g id="line2d_7">
      <defs>
       <path id="m9dacb3233c" d="M 0 0 
L -3.5 0 
" style="stroke: #000000; stroke-width: 0.8"/>
      </defs>
      <g>
       <use xlink:href="#m9dacb3233c" x="57.6" y="295.865244" style="stroke: #000000; stroke-width: 0.8"/>
      </g>
     </g>
     <g id="text_8">
      <!-- 0 -->
      <g transform="translate(44.2375 299.664462) scale(0.1 -0.1)">
       <use xlink:href="#DejaVuSans-30"/>
      </g>
     </g>
    </g>
    <g id="ytick_2">
     <g id="line2d_8">
      <g>
       <use xlink:href="#m9dacb3233c" x="57.6" y="262.480851" style="stroke: #000000; stroke-width: 0.8"/>
      </g>
     </g>
     <g id="text_9">
      <!-- 500 -->
      <g transform="translate(31.5125 266.28007) scale(0.1 -0.1)">
       <defs>
        <path id="DejaVuSans-35" d="M 691 4666 
L 3169 4666 
L 3169 4134 
L 1269 4134 
L 1269 2991 
Q 1406 3038 1543 3061 
Q 1681 3084 1819 3084 
Q 2600 3084 3056 2656 
Q 3513 2228 3513 1497 
Q 3513 744 3044 326 
Q 2575 -91 1722 -91 
Q 1428 -91 1123 -41 
Q 819 9 494 109 
L 494 744 
Q 775 591 1075 516 
Q 1375 441 1709 441 
Q 2250 441 2565 725 
Q 2881 1009 2881 1497 
Q 2881 1984 2565 2268 
Q 2250 2553 1709 2553 
Q 1456 2553 1204 2497 
Q 953 2441 691 2322 
L 691 4666 
z
" transform="scale(0.015625)"/>
       </defs>
       <use xlink:href="#DejaVuSans-35"/>
       <use xlink:href="#DejaVuSans-30" x="63.623047"/>
       <use xlink:href="#DejaVuSans-30" x="127.246094"/>
      </g>
     </g>
    </g>
    <g id="ytick_3">
     <g id="line2d_9">
      <g>
       <use xlink:href="#m9dacb3233c" x="57.6" y="229.096459" style="stroke: #000000; stroke-width: 0.8"/>
      </g>
     </g>
     <g id="text_10">
      <!-- 1000 -->
      <g transform="translate(25.15 232.895677) scale(0.1 -0.1)">
       <use xlink:href="#DejaVuSans-31"/>
       <use xlink:href="#DejaVuSans-30" x="63.623047"/>
       <use xlink:href="#DejaVuSans-30" x="127.246094"/>
       <use xlink:href="#DejaVuSans-30" x="190.869141"/>
      </g>
     </g>
    </g>
    <g id="ytick_4">
     <g id="line2d_10">
      <g>
       <use xlink:href="#m9dacb3233c" x="57.6" y="195.712066" style="stroke: #000000; stroke-width: 0.8"/>
      </g>
     </g>
     <g id="text_11">
      <!-- 1500 -->
      <g transform="translate(25.15 199.511285) scale(0.1 -0.1)">
       <use xlink:href="#DejaVuSans-31"/>
       <use xlink:href="#DejaVuSans-35" x="63.623047"/>
       <use xlink:href="#DejaVuSans-30" x="127.246094"/>
       <use xlink:href="#DejaVuSans-30" x="190.869141"/>
      </g>
     </g>
    </g>
    <g id="ytick_5">
     <g id="line2d_11">
      <g>
       <use xlink:href="#m9dacb3233c" x="57.6" y="162.327674" style="stroke: #000000; stroke-width: 0.8"/>
      </g>
     </g>
     <g id="text_12">
      <!-- 2000 -->
      <g transform="translate(25.15 166.126893) scale(0.1 -0.1)">
       <use xlink:href="#DejaVuSans-32"/>
       <use xlink:href="#DejaVuSans-30" x="63.623047"/>
       <use xlink:href="#DejaVuSans-30" x="127.246094"/>
       <use xlink:href="#DejaVuSans-30" x="190.869141"/>
      </g>
     </g>
    </g>
    <g id="ytick_6">
     <g id="line2d_12">
      <g>
       <use xlink:href="#m9dacb3233c" x="57.6" y="128.943281" style="stroke: #000000; stroke-width: 0.8"/>
      </g>
     </g>
     <g id="text_13">
      <!-- 2500 -->
      <g transform="translate(25.15 132.7425) scale(0.1 -0.1)">
       <use xlink:href="#DejaVuSans-32"/>
       <use xlink:href="#DejaVuSans-35" x="63.623047"/>
       <use xlink:href="#DejaVuSans-30" x="127.246094"/>
       <use xlink:href="#DejaVuSans-30" x="190.869141"/>
      </g>
     </g>
    </g>
    <g id="ytick_7">
     <g id="line2d_13">
      <g>
       <use xlink:href="#m9dacb3233c" x="57.6" y="95.558889" style="stroke: #000000; stroke-width: 0.8"/>
      </g>
     </g>
     <g id="text_14">
      <!-- 3000 -->
      <g transform="translate(25.15 99.358108) scale(0.1 -0.1)">
       <defs>
        <path id="DejaVuSans-33" d="M 2597 2516 
Q 3050 2419 3304 2112 
Q 3559 1806 3559 1356 
Q 3559 666 3084 287 
Q 2609 -91 1734 -91 
Q 1441 -91 1130 -33 
Q 819 25 488 141 
L 488 750 
Q 750 597 1062 519 
Q 1375 441 1716 441 
Q 2309 441 2620 675 
Q 2931 909 2931 1356 
Q 2931 1769 2642 2001 
Q 2353 2234 1838 2234 
L 1294 2234 
L 1294 2753 
L 1863 2753 
Q 2328 2753 2575 2939 
Q 2822 3125 2822 3475 
Q 2822 3834 2567 4026 
Q 2313 4219 1838 4219 
Q 1578 4219 1281 4162 
Q 984 4106 628 3988 
L 628 4550 
Q 988 4650 1302 4700 
Q 1616 4750 1894 4750 
Q 2613 4750 3031 4423 
Q 3450 4097 3450 3541 
Q 3450 3153 3228 2886 
Q 3006 2619 2597 2516 
z
" transform="scale(0.015625)"/>
       </defs>
       <use xlink:href="#DejaVuSans-33"/>
       <use xlink:href="#DejaVuSans-30" x="63.623047"/>
       <use xlink:href="#DejaVuSans-30" x="127.246094"/>
       <use xlink:href="#DejaVuSans-30" x="190.869141"/>
      </g>
     </g>
    </g>
    <g id="ytick_8">
     <g id="line2d_14">
      <g>
       <use xlink:href="#m9dacb3233c" x="57.6" y="62.174496" style="stroke: #000000; stroke-width: 0.8"/>
      </g>
     </g>
     <g id="text_15">
      <!-- 3500 -->
      <g transform="translate(25.15 65.973715) scale(0.1 -0.1)">
       <use xlink:href="#DejaVuSans-33"/>
       <use xlink:href="#DejaVuSans-35" x="63.623047"/>
       <use xlink:href="#DejaVuSans-30" x="127.246094"/>
       <use xlink:href="#DejaVuSans-30" x="190.869141"/>
      </g>
     </g>
    </g>
    <g id="text_16">
     <!-- Temps moyen (nanosecondes) -->
     <g transform="translate(19.070312 250.64675) rotate(-90) scale(0.1 -0.1)">
      <defs>
       <path id="DejaVuSans-54" d="M -19 4666 
L 3928 4666 
L 3928 4134 
L 2272 4134 
L 2272 0 
L 1638 0 
L 1638 4134 
L -19 4134 
L -19 4666 
z
" transform="scale(0.015625)"/>
       <path id="DejaVuSans-79" d="M 2059 -325 
Q 1816 -950 1584 -1140 
Q 1353 -1331 966 -1331 
L 506 -1331 
L 506 -850 
L 844 -850 
Q 1081 -850 1212 -737 
Q 1344 -625 1503 -206 
L 1606 56 
L 191 3500 
L 800 3500 
L 1894 763 
L 2988 3500 
L 3597 3500 
L 2059 -325 
z
" transform="scale(0.015625)"/>
       <path id="DejaVuSans-28" d="M 1984 4856 
Q 1566 4138 1362 3434 
Q 1159 2731 1159 2009 
Q 1159 1288 1364 580 
Q 1569 -128 1984 -844 
L 1484 -844 
Q 1016 -109 783 600 
Q 550 1309 550 2009 
Q 550 2706 781 3412 
Q 1013 4119 1484 4856 
L 1984 4856 
z
" transform="scale(0.015625)"/>
       <path id="DejaVuSans-61" d="M 2194 1759 
Q 1497 1759 1228 1600 
Q 959 1441 959 1056 
Q 959 750 1161 570 
Q 1363 391 1709 391 
Q 2188 391 2477 730 
Q 2766 1069 2766 1631 
L 2766 1759 
L 2194 1759 
z
M 3341 1997 
L 3341 0 
L 2766 0 
L 2766 531 
Q 2569 213 2275 61 
Q 1981 -91 1556 -91 
Q 1019 -91 701 211 
Q 384 513 384 1019 
Q 384 1609 779 1909 
Q 1175 2209 1959 2209 
L 2766 2209 
L 2766 2266 
Q 2766 2663 2505 2880 
Q 2244 3097 1772 3097 
Q 1472 3097 1187 3025 
Q 903 2953 641 2809 
L 641 3341 
Q 956 3463 1253 3523 
Q 1550 3584 1831 3584 
Q 2591 3584 2966 3190 
Q 3341 2797 3341 1997 
z
" transform="scale(0.015625)"/>
       <path id="DejaVuSans-63" d="M 3122 3366 
L 3122 2828 
Q 2878 2963 2633 3030 
Q 2388 3097 2138 3097 
Q 1578 3097 1268 2742 
Q 959 2388 959 1747 
Q 959 1106 1268 751 
Q 1578 397 2138 397 
Q 2388 397 2633 464 
Q 2878 531 3122 666 
L 3122 134 
Q 2881 22 2623 -34 
Q 2366 -91 2075 -91 
Q 1284 -91 818 406 
Q 353 903 353 1747 
Q 353 2603 823 3093 
Q 1294 3584 2113 3584 
Q 2378 3584 2631 3529 
Q 2884 3475 3122 3366 
z
" transform="scale(0.015625)"/>
       <path id="DejaVuSans-29" d="M 513 4856 
L 1013 4856 
Q 1481 4119 1714 3412 
Q 1947 2706 1947 2009 
Q 1947 1309 1714 600 
Q 1481 -109 1013 -844 
L 513 -844 
Q 928 -128 1133 580 
Q 1338 1288 1338 2009 
Q 1338 2731 1133 3434 
Q 928 4138 513 4856 
z
" transform="scale(0.015625)"/>
      </defs>
      <use xlink:href="#DejaVuSans-54"/>
      <use xlink:href="#DejaVuSans-65" x="44.083984"/>
      <use xlink:href="#DejaVuSans-6d" x="105.607422"/>
      <use xlink:href="#DejaVuSans-70" x="203.019531"/>
      <use xlink:href="#DejaVuSans-73" x="266.496094"/>
      <use xlink:href="#DejaVuSans-20" x="318.595703"/>
      <use xlink:href="#DejaVuSans-6d" x="350.382812"/>
      <use xlink:href="#DejaVuSans-6f" x="447.794922"/>
      <use xlink:href="#DejaVuSans-79" x="508.976562"/>
      <use xlink:href="#DejaVuSans-65" x="568.15625"/>
      <use xlink:href="#DejaVuSans-6e" x="629.679688"/>
      <use xlink:href="#DejaVuSans-20" x="693.058594"/>
      <use xlink:href="#DejaVuSans-28" x="724.845703"/>
      <use xlink:href="#DejaVuSans-6e" x="763.859375"/>
      <use xlink:href="#DejaVuSans-61" x="827.238281"/>
      <use xlink:href="#DejaVuSans-6e" x="888.517578"/>
      <use xlink:href="#DejaVuSans-6f" x="951.896484"/>
      <use xlink:href="#DejaVuSans-73" x="1013.078125"/>
      <use xlink:href="#DejaVuSans-65" x="1065.177734"/>
      <use xlink:href="#DejaVuSans-63" x="1126.701172"/>
      <use xlink:href="#DejaVuSans-6f" x="1181.681641"/>
      <use xlink:href="#DejaVuSans-6e" x="1242.863281"/>
      <use xlink:href="#DejaVuSans-64" x="1306.242188"/>
      <use xlink:href="#DejaVuSans-65" x="1369.71875"/>
      <use xlink:href="#DejaVuSans-73" x="1431.242188"/>
      <use xlink:href="#DejaVuSans-29" x="1483.341797"/>
     </g>
    </g>
   </g>
   <g id="line2d_15">
    <path d="M 73.832727 295.488 
L 74.158032 295.457954 
L 77.085779 293.678566 
L 77.736389 293.301322 
L 78.061694 293.151093 
L 78.386999 292.570204 
L 78.712305 292.626958 
L 79.03761 292.520128 
L 79.362915 292.142884 
L 79.68822 292.196299 
L 80.013525 292.032715 
L 80.989441 291.214798 
L 81.314746 291.271551 
L 81.640051 290.864262 
L 81.965356 290.887631 
L 82.290661 290.179882 
L 82.615966 290.13982 
L 82.941272 290.260004 
L 83.266577 290.093082 
L 83.591882 289.472132 
L 84.242492 289.585639 
L 84.567797 289.402025 
L 84.893103 288.801106 
L 85.218408 289.038135 
L 85.543713 288.841167 
L 85.869018 288.443893 
L 86.194323 288.460585 
L 86.844934 287.913081 
L 88.471459 287.055102 
L 88.796764 286.581044 
L 89.12207 286.707905 
L 89.77268 285.379206 
L 90.097985 285.976787 
L 90.42329 284.781625 
L 90.748595 285.549466 
L 91.073901 284.925178 
L 91.399206 285.289068 
L 91.724511 284.147322 
L 92.049816 284.804994 
L 92.375121 284.000431 
L 93.025731 283.696633 
L 93.351037 283.172498 
L 93.676342 283.603156 
L 94.001647 283.733355 
L 94.326952 283.159144 
L 94.977562 283.099052 
L 95.302868 282.902084 
L 95.628173 282.875377 
L 95.953478 282.150935 
L 96.604088 282.357918 
L 96.929393 280.825575 
L 97.254698 281.753661 
L 97.580004 281.686892 
L 97.905309 281.182788 
L 98.230614 281.326341 
L 100.50775 279.984288 
L 101.15836 279.413415 
L 101.483666 279.42343 
L 102.784886 278.658928 
L 103.110191 278.041316 
L 103.435496 278.14147 
L 103.760802 277.707473 
L 104.086107 277.90444 
L 104.736717 277.363613 
L 105.062022 277.393659 
L 105.387327 276.839478 
L 105.712633 276.969677 
L 106.688548 275.928084 
L 107.013853 276.141745 
L 107.339158 275.981499 
L 107.664463 273.624561 
L 107.989769 273.287379 
L 108.315074 275.267073 
L 108.640379 275.200305 
L 108.965684 274.762969 
L 109.290989 274.772984 
L 109.616294 273.908329 
L 109.9416 274.359018 
L 110.59221 273.470993 
L 110.917515 273.41424 
L 111.24282 273.574485 
L 112.218736 272.90012 
L 112.544041 272.352616 
L 112.869346 272.499507 
L 113.194651 272.105572 
L 113.519956 272.342601 
L 113.845261 272.375985 
L 114.170567 271.728328 
L 114.495872 271.861865 
L 114.821177 271.551391 
L 115.146482 271.427868 
L 115.797092 270.670043 
L 116.122398 270.810257 
L 116.447703 270.586582 
L 116.773008 269.802048 
L 117.098313 269.882171 
L 117.748923 269.725264 
L 118.074228 269.591727 
L 118.399534 269.117668 
L 118.724839 269.044223 
L 119.050144 268.81387 
L 119.375449 267.558617 
L 119.700754 268.703702 
L 120.026059 267.398372 
L 120.351365 267.398372 
L 120.67667 267.067867 
L 121.001975 267.70217 
L 121.32728 267.44511 
L 121.652585 267.344957 
L 121.97789 265.765875 
L 122.303195 267.171358 
L 122.628501 266.456932 
L 122.953806 266.393502 
L 123.279111 266.213226 
L 123.604416 266.286672 
L 123.929721 264.714267 
L 124.255026 265.22171 
L 124.580332 264.3871 
L 124.905637 265.228387 
L 125.556247 265.014727 
L 125.881552 264.3871 
L 126.206857 264.423823 
L 126.857468 250.245471 
L 127.182773 263.472368 
L 127.833383 263.572521 
L 128.158688 262.858095 
L 128.483993 263.292092 
L 128.809299 263.201954 
L 129.134604 262.420759 
L 129.459909 262.864772 
L 129.785214 262.818034 
L 130.110519 262.520912 
L 130.435824 262.584343 
L 130.76113 261.960055 
L 131.086435 261.743056 
L 131.737045 260.648048 
L 132.06235 261.252306 
L 132.387655 260.938492 
L 132.71296 260.23742 
L 133.038266 261.058676 
L 134.014181 260.264128 
L 134.339486 260.28082 
L 134.664791 259.289303 
L 134.990097 258.665015 
L 135.315402 258.511447 
L 135.640707 258.150895 
L 135.966012 255.396683 
L 136.291317 256.441615 
L 136.616622 255.657081 
L 136.941927 258.067434 
L 137.267233 257.943912 
L 137.592538 258.110834 
L 137.917843 258.137542 
L 138.243148 257.486546 
L 138.568453 255.670435 
L 138.893758 255.406698 
L 139.219064 251.847922 
L 139.544369 255.55359 
L 139.869674 254.511997 
L 140.194979 256.655275 
L 140.520284 256.812181 
L 142.472115 255.757235 
L 142.79742 255.490159 
L 143.122725 252.949607 
L 143.448031 253.623972 
L 143.773336 253.296805 
L 144.098641 253.15659 
L 144.423946 250.896467 
L 144.749251 253.036407 
L 145.074556 247.778365 
L 145.725167 253.881032 
L 146.375777 253.253405 
L 146.701082 251.978121 
L 147.026387 248.369268 
L 147.351692 250.101918 
L 147.676998 250.238794 
L 148.002303 252.081613 
L 148.652913 251.080081 
L 148.978218 251.310433 
L 149.303523 251.053374 
L 149.628829 250.165349 
L 149.954134 250.095242 
L 150.279439 250.73956 
L 150.604744 249.818151 
L 150.930049 249.911627 
L 151.255354 250.479162 
L 151.58066 249.480969 
L 151.905965 249.127094 
L 152.23127 249.217232 
L 152.556575 249.577783 
L 152.88188 249.11374 
L 153.207185 249.294016 
L 153.53249 247.885195 
L 153.857796 248.64302 
L 154.183101 247.260907 
L 154.508406 240.453829 
L 154.833711 247.194138 
L 155.159016 243.919129 
L 155.484321 246.185929 
L 155.809627 246.733433 
L 156.134932 246.202621 
L 156.460237 243.224734 
L 156.785542 243.558578 
L 157.110847 241.465376 
L 157.436152 244.797138 
L 157.761457 244.106082 
L 158.086763 244.376495 
L 158.412068 244.383172 
L 158.737373 245.625071 
L 159.062678 238.714502 
L 159.387983 239.876279 
L 159.713288 236.327518 
L 160.038594 242.263263 
L 160.363899 241.298454 
L 160.689204 242.386785 
L 161.339814 242.737321 
L 161.665119 243.421702 
L 161.990424 243.308195 
L 162.31573 242.837475 
L 162.641035 242.767367 
L 163.291645 242.887551 
L 164.267561 241.79922 
L 164.592866 240.383722 
L 164.918171 241.545499 
L 165.243476 241.64899 
L 165.568781 240.283569 
L 165.894086 240.069909 
L 166.219392 240.997995 
L 166.544697 240.49389 
L 166.870002 239.004946 
L 167.195307 235.088957 
L 167.520612 237.743016 
L 167.845917 235.412786 
L 168.171222 238.460781 
L 168.496528 238.968224 
L 168.821833 238.65441 
L 169.147138 239.415574 
L 169.472443 237.228897 
L 169.797748 238.020107 
L 170.123053 234.738421 
L 170.448359 239.325437 
L 170.773664 236.911745 
L 171.098969 237.482618 
L 171.424274 234.751775 
L 171.749579 237.278973 
L 172.074884 237.148774 
L 172.725495 234.381208 
L 173.0508 234.678329 
L 173.376105 236.454379 
L 173.70141 235.346017 
L 174.026715 236.193981 
L 174.677326 235.149049 
L 175.002631 235.656492 
L 175.327936 235.546323 
L 175.978546 236.337533 
L 176.303851 235.542985 
L 176.629156 231.713795 
L 176.954462 214.403988 
L 177.279767 235.33934 
L 177.605072 235.449509 
L 178.580987 234.678329 
L 179.231598 234.457992 
L 179.556903 234.040687 
L 180.207513 233.716859 
L 180.858124 233.025802 
L 181.183429 233.112601 
L 181.508734 232.671927 
L 181.834039 232.60182 
L 182.159344 230.885862 
L 182.484649 231.626996 
L 182.809954 230.845801 
L 183.13526 229.67067 
L 183.460565 229.901023 
L 183.78587 230.478573 
L 184.111175 228.395386 
L 184.43648 229.540471 
L 184.761785 227.81116 
L 185.087091 229.65064 
L 185.412396 229.834254 
L 185.737701 229.667332 
L 186.063006 230.378419 
L 186.388311 229.760808 
L 186.713616 226.031771 
L 187.038921 227.350455 
L 187.364227 227.100072 
L 187.689532 227.540746 
L 188.014837 225.73465 
L 188.665447 219.291463 
L 188.990752 215.415535 
L 189.316058 219.748829 
L 189.641363 219.5118 
L 189.966668 222.816854 
L 190.617278 225.290638 
L 190.942583 226.061817 
L 191.267889 226.245432 
L 191.593194 219.027726 
L 192.243804 226.268801 
L 192.569109 223.013822 
L 193.219719 225.631159 
L 193.545025 224.976825 
L 193.87033 220.456578 
L 194.195635 221.878753 
L 194.52094 222.39955 
L 194.846245 224.002 
L 195.496856 220.206195 
L 195.822161 222.860254 
L 196.147466 222.282704 
L 196.798076 222.760101 
L 197.123381 222.112444 
L 197.448686 219.014372 
L 197.773992 214.550879 
L 198.099297 220.56007 
L 198.424602 221.932168 
L 198.749907 222.26935 
L 199.075212 221.858722 
L 199.400517 220.209533 
L 199.725823 215.806132 
L 200.051128 219.144571 
L 200.376433 219.097833 
L 200.701738 220.693607 
L 201.027043 218.516945 
L 201.352348 218.123009 
L 201.677653 218.663836 
L 202.002959 218.84745 
L 202.328264 212.287417 
L 202.653569 212.698045 
L 203.304179 187.756566 
L 203.629484 212.163895 
L 203.95479 216.994616 
L 204.280095 213.990021 
L 204.6054 209.766895 
L 204.930705 213.712931 
L 205.25601 212.487723 
L 205.581315 216.941201 
L 205.906621 213.258903 
L 206.231926 217.52209 
L 206.557231 215.59581 
L 206.882536 216.17336 
L 207.207841 215.485642 
L 207.533146 216.550604 
L 207.858451 216.790972 
L 208.183757 216.10993 
L 208.509062 215.846193 
L 209.159672 211.609714 
L 210.135588 208.124383 
L 210.460893 207.763832 
L 210.786198 212.584538 
L 211.111503 205.774122 
L 211.436808 208.852163 
L 212.087418 204.976235 
L 212.412724 212.594554 
L 212.738029 213.786376 
L 213.063334 211.255839 
L 213.713944 210.915319 
L 214.039249 204.899451 
L 214.364555 208.348059 
L 214.68986 203.66089 
L 215.015165 205.353479 
L 215.34047 211.556299 
L 215.665775 206.331641 
L 215.99108 211.272532 
L 216.316385 208.638503 
L 216.966996 208.511642 
L 217.292301 209.1593 
L 218.268216 209.529866 
L 218.918827 205.016296 
L 219.244132 210.054001 
L 219.569437 208.825456 
L 219.894742 206.682178 
L 220.220047 202.642666 
L 220.545353 206.204781 
L 220.870658 207.450019 
L 221.195963 206.148027 
L 221.521268 206.278226 
L 221.846573 206.8057 
L 222.497183 205.610539 
L 222.822489 206.27155 
L 223.147794 204.091549 
L 223.473099 205.830876 
L 224.123709 206.829069 
L 224.449014 205.069711 
L 224.77432 205.92769 
L 225.099625 205.580493 
L 225.42493 199.738224 
L 225.750235 203.867873 
L 226.07554 205.50037 
L 226.400845 203.086679 
L 226.72615 180.378615 
L 227.051456 172.870465 
L 227.376761 202.575897 
L 227.702066 203.91795 
L 228.027371 203.624167 
L 228.352676 201.92824 
L 228.677981 203.897919 
L 229.003287 203.677582 
L 229.328592 199.608025 
L 229.653897 200.993477 
L 229.979202 201.0302 
L 230.304507 203.584106 
L 230.629812 202.716112 
L 230.955118 203.176816 
L 231.280423 202.332191 
L 231.605728 197.878713 
L 231.931033 202.759511 
L 232.256338 201.157061 
L 232.581643 200.763125 
L 232.906948 197.407993 
L 233.232254 197.107534 
L 233.557559 188.093748 
L 234.208169 193.441928 
L 234.533474 200.172221 
L 234.858779 195.461683 
L 235.184085 197.915436 
L 235.50939 198.78343 
L 235.834695 192.203367 
L 236.16 196.519969 
L 236.485305 192.911116 
L 236.81061 190.888022 
L 237.135915 199.270842 
L 237.786526 197.758529 
L 238.437136 195.551821 
L 238.762441 195.061071 
L 239.087746 193.004592 
L 239.413052 194.146338 
L 239.738357 196.68689 
L 240.063662 196.653506 
L 240.388967 195.98248 
L 240.714272 194.139661 
L 241.039577 195.508421 
L 241.364882 193.875925 
L 241.690188 193.328421 
L 242.015493 194.24983 
L 242.340798 195.755466 
L 242.666103 195.354853 
L 242.991408 193.508696 
L 243.316713 195.798866 
L 243.642019 192.099875 
L 243.967324 191.04159 
L 244.292629 192.106552 
L 244.617934 195.635282 
L 244.943239 194.126308 
L 245.268544 188.150501 
L 245.59385 150.329323 
L 245.919155 189.636107 
L 246.24446 186.57142 
L 246.89507 193.94937 
L 247.54568 181.036287 
L 247.870986 187.022109 
L 248.196291 189.37237 
L 248.521596 189.425785 
L 248.846901 190.123519 
L 249.172206 187.633043 
L 249.497511 187.082201 
L 249.822817 187.128939 
L 250.148122 189.966612 
L 250.473427 188.444284 
L 251.124037 180.118217 
L 251.449342 180.805935 
L 251.774647 179.927925 
L 252.099953 187.72652 
L 252.425258 179.250222 
L 252.750563 181.747375 
L 253.075868 188.527745 
L 253.401173 187.813319 
L 253.726478 189.302263 
L 254.051784 188.708021 
L 254.377089 189.105295 
L 254.702394 178.559165 
L 255.027699 154.866262 
L 255.678309 180.45206 
L 256.003615 184.06759 
L 256.32892 173.685044 
L 256.97953 187.502844 
L 257.63014 186.518005 
L 257.955445 186.658219 
L 258.280751 185.589918 
L 258.606056 186.160792 
L 258.931361 186.988724 
L 259.256666 185.339535 
L 259.581971 185.289459 
L 259.907276 180.946149 
L 260.232582 184.638463 
L 260.557887 181.754052 
L 260.883192 182.825691 
L 261.208497 185.466396 
L 261.533802 182.261495 
L 261.859107 184.224497 
L 262.184412 173.144217 
L 262.509718 176.272335 
L 262.835023 183.366518 
L 263.160328 176.155489 
L 263.810938 183.536778 
L 264.136243 183.85393 
L 264.461549 142.303715 
L 264.786854 181.810805 
L 265.112159 181.486977 
L 265.437464 180.041432 
L 265.762769 171.708688 
L 266.088074 180.318523 
L 266.413379 173.317816 
L 266.738685 177.878124 
L 267.06399 169.982715 
L 267.389295 170.937509 
L 267.7146 164.173831 
L 268.039905 174.760022 
L 268.36521 179.503944 
L 268.690516 174.930282 
L 269.015821 174.252579 
L 269.341126 173.017356 
L 269.666431 176.145474 
L 270.317041 178.552489 
L 270.642347 178.906363 
L 270.967652 178.996501 
L 271.292957 177.387373 
L 271.618262 170.189698 
L 271.943567 179.213499 
L 272.268872 177.076898 
L 272.594177 178.395582 
L 272.919483 178.872979 
L 273.244788 176.769762 
L 273.570093 178.338828 
L 274.220703 175.828322 
L 274.546008 178.025015 
L 275.196619 173.397938 
L 275.521924 176.385841 
L 275.847229 170.353282 
L 276.172534 175.571262 
L 276.497839 165.756251 
L 276.823144 174.76336 
L 277.14845 173.117509 
L 277.473755 174.723299 
L 277.79906 166.757783 
L 278.124365 170.980908 
L 278.44967 173.160909 
L 278.774975 166.72106 
L 279.100281 164.364122 
L 279.425586 174.770037 
L 279.750891 172.586698 
L 280.076196 173.995519 
L 280.401501 167.91956 
L 280.726806 170.373312 
L 281.052111 145.965983 
L 281.377417 163.926786 
L 281.702722 165.606021 
L 282.028027 155.477196 
L 282.353332 170.026115 
L 282.678637 173.468046 
L 283.003942 167.161734 
L 283.329248 166.857936 
L 283.654553 168.023051 
L 283.979858 148.720195 
L 284.630468 169.795762 
L 285.281079 170.773925 
L 285.606384 169.86587 
L 285.931689 170.526881 
L 286.256994 171.581827 
L 286.582299 168.427002 
L 286.907604 166.821213 
L 287.232909 167.842775 
L 287.558215 170.226421 
L 287.88352 162.748317 
L 288.208825 162.564703 
L 288.859435 169.191505 
L 289.18474 166.597538 
L 289.510046 167.879498 
L 289.835351 168.256742 
L 290.160656 166.450646 
L 290.485961 158.662067 
L 290.811266 160.43144 
L 291.136571 165.946542 
L 291.461876 166.320447 
L 291.787182 165.018456 
L 292.437792 153.504179 
L 292.763097 159.503354 
L 293.088402 156.395267 
L 293.413707 166.607553 
L 293.739013 163.76988 
L 294.064318 152.435878 
L 294.389623 152.639523 
L 294.714928 159.950705 
L 295.040233 157.637167 
L 295.365538 137.6299 
L 296.341454 163.065469 
L 296.666759 163.269114 
L 296.992064 161.379557 
L 297.642674 156.191622 
L 297.96798 158.298178 
L 298.293285 154.482342 
L 298.61859 144.500408 
L 298.943895 150.462861 
L 299.2692 151.461054 
L 299.594505 149.478021 
L 299.919811 134.174616 
L 300.895726 158.782251 
L 301.221031 150.960288 
L 301.546336 155.310274 
L 301.871641 155.083261 
L 302.196947 156.121515 
L 302.522252 113.900274 
L 302.847557 160.842068 
L 303.172862 160.47484 
L 303.498167 155.393735 
L 303.823472 142.350453 
L 304.148778 150.359369 
L 304.799388 157.857504 
L 305.449998 156.164915 
L 305.775303 136.247786 
L 306.425914 146.319858 
L 307.076524 157.483598 
L 307.401829 157.937626 
L 307.727134 156.371898 
L 308.052439 156.972817 
L 308.377745 150.953611 
L 308.70305 153.474133 
L 309.028355 151.474408 
L 309.35366 152.676246 
L 309.678965 153.28718 
L 310.00427 153.046813 
L 310.329576 148.723534 
L 310.654881 149.084085 
L 310.980186 149.902003 
L 311.305491 144.296763 
L 311.630796 141.65272 
L 311.956101 141.512505 
L 312.281406 131.72754 
L 312.606712 152.43254 
L 312.932017 140.354067 
L 313.257322 154.108436 
L 313.582627 152.960013 
L 313.907932 153.717839 
L 314.233237 104.565998 
L 314.558543 129.220372 
L 314.883848 139.886685 
L 315.209153 136.811983 
L 315.534458 137.720038 
L 315.859763 130.338749 
L 316.185068 146.817285 
L 316.510373 151.310824 
L 316.835679 147.842186 
L 317.160984 151.310824 
L 317.486289 145.678877 
L 317.811594 145.455202 
L 318.136899 140.213852 
L 318.462204 139.92007 
L 318.78751 142.156824 
L 319.112815 145.90923 
L 319.43812 144.280071 
L 319.763425 146.18632 
L 320.08873 147.351435 
L 320.414035 137.813514 
L 320.73934 141.282153 
L 321.064646 146.800593 
L 321.389951 148.680134 
L 321.715256 144.446993 
L 322.040561 121.158041 
L 322.365866 143.071556 
L 322.691171 145.271588 
L 323.016477 137.429594 
L 323.341782 143.078233 
L 323.667087 146.55021 
L 323.992392 146.823962 
L 324.317697 147.671925 
L 324.643002 147.908955 
L 324.968308 141.602643 
L 325.293613 145.084635 
L 325.618918 146.710455 
L 326.269528 133.363375 
L 326.594833 144.66733 
L 326.920138 135.052625 
L 327.245444 130.889591 
L 327.570749 114.137303 
L 327.896054 73.468436 
L 328.221359 136.037465 
L 328.546664 141.65272 
L 328.871969 142.14347 
L 329.197275 128.609437 
L 329.52258 138.103959 
L 329.847885 131.036483 
L 330.17319 140.510973 
L 330.498495 140.217191 
L 330.8238 143.08491 
L 331.149105 140.975016 
L 331.474411 141.529197 
L 331.799716 142.514037 
L 332.125021 137.896975 
L 332.450326 137.339456 
L 332.775631 138.651463 
L 333.100936 138.808369 
L 333.426242 142.203562 
L 333.751547 137.669961 
L 334.076852 142.857896 
L 334.727462 140.771372 
L 335.052767 141.575935 
L 335.378073 137.579824 
L 335.703378 137.289379 
L 336.028683 140.784725 
L 336.353988 139.776517 
L 336.679293 140.965001 
L 337.004598 140.193822 
L 337.329903 138.244173 
L 337.655209 139.292443 
L 338.305819 139.506103 
L 338.631124 140.083653 
L 338.956429 139.686379 
L 339.281734 138.504571 
L 339.60704 131.073206 
L 339.932345 131.089898 
L 340.25765 129.834645 
L 340.582955 122.753815 
L 340.90826 128.75299 
L 341.233565 108.608848 
L 341.55887 120.296724 
L 341.884176 104.729581 
L 342.209481 136.124264 
L 342.534786 130.138443 
L 342.860091 129.831306 
L 343.185396 93.672671 
L 343.836007 128.288947 
L 344.161312 127.100463 
L 344.486617 126.603035 
L 344.811922 121.685514 
L 345.137227 132.271705 
L 345.462532 127.247354 
L 345.787837 129.804599 
L 346.113143 128.983343 
L 346.438448 125.447935 
L 346.763753 100.923761 
L 347.089058 129.520831 
L 347.414363 129.99489 
L 347.739668 107.143273 
L 348.064974 131.343619 
L 348.390279 97.361646 
L 348.715584 114.070534 
L 349.040889 120.28337 
L 349.366194 112.297823 
L 349.691499 121.765637 
L 350.016805 120.857581 
L 350.34211 116.07026 
L 350.667415 125.58815 
L 350.99272 125.528058 
L 351.318025 107.460425 
L 351.64333 119.161654 
L 351.968635 104.959934 
L 352.293941 123.501625 
L 352.619246 121.992651 
L 352.944551 105.383916 
L 353.269856 124.202698 
L 353.595161 124.443065 
L 353.920466 113.406185 
L 354.245772 80.646081 
L 354.571077 125.955378 
L 354.896382 125.791795 
L 355.221687 115.789831 
L 355.546992 120.583829 
L 355.872297 115.649616 
L 356.197602 112.862019 
L 356.522908 122.563524 
L 357.173518 111.873841 
L 357.498823 105.984835 
L 357.824128 121.892498 
L 358.149433 92.520909 
L 358.800044 111.246215 
L 359.125349 105.350531 
L 359.450654 91.098734 
L 359.775959 118.824472 
L 360.101264 122.733784 
L 360.42657 122.987506 
L 360.751875 121.051211 
L 361.07718 120.443615 
L 361.402485 123.070967 
L 361.72779 124.092529 
L 362.053095 121.642115 
L 362.3784 121.5887 
L 362.703706 115.49271 
L 363.029011 118.627504 
L 363.679621 111.04257 
L 364.004926 115.332465 
L 364.330231 117.946462 
L 364.655537 115.001959 
L 364.980842 109.647102 
L 365.306147 71.418635 
L 365.631452 112.544868 
L 365.956757 117.215344 
L 366.282062 103.38419 
L 366.607367 117.886371 
L 366.932673 114.043827 
L 367.257978 116.801378 
L 367.583283 101.815124 
L 367.908588 115.329126 
L 368.233893 118.353752 
L 368.559198 103.330775 
L 368.884504 120.223278 
L 369.209809 118.210199 
L 369.535114 83.243386 
L 369.860419 107.760884 
L 370.185724 101.441219 
L 370.511029 112.73182 
L 370.836334 114.170688 
L 371.16164 112.508145 
L 371.486945 53.568 
L 372.137555 106.10168 
L 372.46286 110.565173 
L 372.788165 109.390043 
L 373.438776 110.434974 
L 373.764081 105.240363 
L 374.089386 97.995949 
L 374.414691 79.250613 
L 374.739996 110.72208 
L 375.065302 117.065114 
L 375.390607 111.272922 
L 375.715912 116.056906 
L 376.041217 117.208667 
L 376.366522 108.749062 
L 376.691827 114.050504 
L 377.017132 108.81917 
L 377.342438 110.364867 
L 377.667743 107.21338 
L 377.993048 112.287808 
L 378.318353 114.387686 
L 378.643658 110.398251 
L 378.968963 95.996224 
L 379.294269 111.606766 
L 379.619574 99.301279 
L 379.944879 102.856717 
L 380.270184 107.89776 
L 380.595489 64.431281 
L 380.920794 104.926549 
L 381.246099 114.738222 
L 381.571405 106.261925 
L 381.89671 110.889002 
L 382.222015 111.136046 
L 382.54732 103.404221 
L 382.872625 98.660299 
L 383.19793 110.631942 
L 383.523236 95.164953 
L 383.848541 99.571693 
L 384.173846 102.235767 
L 384.499151 87.302929 
L 384.824456 88.324491 
L 385.149761 106.231879 
L 385.475066 66.774866 
L 385.800372 104.619413 
L 386.125677 108.615525 
L 386.776287 101.538034 
L 387.101592 93.559164 
L 387.426897 100.803577 
L 387.752203 101.905262 
L 388.077508 103.83488 
L 388.402813 101.758371 
L 388.728118 97.214755 
L 389.053423 96.11307 
L 389.378728 93.896346 
L 389.704034 83.967828 
L 390.029339 88.217661 
L 390.354644 58.882795 
L 390.679949 108.331757 
L 391.005254 97.662106 
L 391.330559 107.226734 
L 391.655864 103.297391 
L 391.98117 107.053135 
L 392.63178 91.055334 
L 392.957085 99.842106 
L 393.28239 85.142958 
L 393.607695 101.825139 
L 393.933001 101.507988 
L 394.258306 101.357758 
L 394.583611 101.798432 
L 394.908916 101.270958 
L 395.234221 102.199045 
L 395.559526 101.661556 
L 395.884831 103.915002 
L 396.210137 99.378063 
L 396.535442 75.735237 
L 396.860747 103.437605 
L 397.186052 89.155762 
L 397.511357 101.761709 
L 398.161968 68.357286 
L 398.487273 81.360507 
L 398.487273 81.360507 
" clip-path="url(#p6656756e84)" style="fill: none; stroke: #1f77b4; stroke-width: 1.5; stroke-linecap: square"/>
   </g>
   <g id="patch_3">
    <path d="M 57.6 307.584 
L 57.6 41.472 
" style="fill: none; stroke: #000000; stroke-width: 0.8; stroke-linejoin: miter; stroke-linecap: square"/>
   </g>
   <g id="patch_4">
    <path d="M 414.72 307.584 
L 414.72 41.472 
" style="fill: none; stroke: #000000; stroke-width: 0.8; stroke-linejoin: miter; stroke-linecap: square"/>
   </g>
   <g id="patch_5">
    <path d="M 57.6 307.584 
L 414.72 307.584 
" style="fill: none; stroke: #000000; stroke-width: 0.8; stroke-linejoin: miter; stroke-linecap: square"/>
   </g>
   <g id="patch_6">
    <path d="M 57.6 41.472 
L 414.72 41.472 
" style="fill: none; stroke: #000000; stroke-width: 0.8; stroke-linejoin: miter; stroke-linecap: square"/>
   </g>
   <g id="text_17">
    <!-- Résultat benchmark dgbsv -->
    <g transform="translate(155.807813 35.472) scale(0.12 -0.12)">
     <defs>
      <path id="DejaVuSans-52" d="M 2841 2188 
Q 3044 2119 3236 1894 
Q 3428 1669 3622 1275 
L 4263 0 
L 3584 0 
L 2988 1197 
Q 2756 1666 2539 1819 
Q 2322 1972 1947 1972 
L 1259 1972 
L 1259 0 
L 628 0 
L 628 4666 
L 2053 4666 
Q 2853 4666 3247 4331 
Q 3641 3997 3641 3322 
Q 3641 2881 3436 2590 
Q 3231 2300 2841 2188 
z
M 1259 4147 
L 1259 2491 
L 2053 2491 
Q 2509 2491 2742 2702 
Q 2975 2913 2975 3322 
Q 2975 3731 2742 3939 
Q 2509 4147 2053 4147 
L 1259 4147 
z
" transform="scale(0.015625)"/>
      <path id="DejaVuSans-e9" d="M 3597 1894 
L 3597 1613 
L 953 1613 
Q 991 1019 1311 708 
Q 1631 397 2203 397 
Q 2534 397 2845 478 
Q 3156 559 3463 722 
L 3463 178 
Q 3153 47 2828 -22 
Q 2503 -91 2169 -91 
Q 1331 -91 842 396 
Q 353 884 353 1716 
Q 353 2575 817 3079 
Q 1281 3584 2069 3584 
Q 2775 3584 3186 3129 
Q 3597 2675 3597 1894 
z
M 3022 2063 
Q 3016 2534 2758 2815 
Q 2500 3097 2075 3097 
Q 1594 3097 1305 2825 
Q 1016 2553 972 2059 
L 3022 2063 
z
M 2466 5119 
L 3088 5119 
L 2070 3944 
L 1591 3944 
L 2466 5119 
z
" transform="scale(0.015625)"/>
      <path id="DejaVuSans-75" d="M 544 1381 
L 544 3500 
L 1119 3500 
L 1119 1403 
Q 1119 906 1312 657 
Q 1506 409 1894 409 
Q 2359 409 2629 706 
Q 2900 1003 2900 1516 
L 2900 3500 
L 3475 3500 
L 3475 0 
L 2900 0 
L 2900 538 
Q 2691 219 2414 64 
Q 2138 -91 1772 -91 
Q 1169 -91 856 284 
Q 544 659 544 1381 
z
M 1991 3584 
L 1991 3584 
z
" transform="scale(0.015625)"/>
      <path id="DejaVuSans-6c" d="M 603 4863 
L 1178 4863 
L 1178 0 
L 603 0 
L 603 4863 
z
" transform="scale(0.015625)"/>
      <path id="DejaVuSans-68" d="M 3513 2113 
L 3513 0 
L 2938 0 
L 2938 2094 
Q 2938 2591 2744 2837 
Q 2550 3084 2163 3084 
Q 1697 3084 1428 2787 
Q 1159 2491 1159 1978 
L 1159 0 
L 581 0 
L 581 4863 
L 1159 4863 
L 1159 2956 
Q 1366 3272 1645 3428 
Q 1925 3584 2291 3584 
Q 2894 3584 3203 3211 
Q 3513 2838 3513 2113 
z
" transform="scale(0.015625)"/>
      <path id="DejaVuSans-6b" d="M 581 4863 
L 1159 4863 
L 1159 1991 
L 2875 3500 
L 3609 3500 
L 1753 1863 
L 3688 0 
L 2938 0 
L 1159 1709 
L 1159 0 
L 581 0 
L 581 4863 
z
" transform="scale(0.015625)"/>
      <path id="DejaVuSans-67" d="M 2906 1791 
Q 2906 2416 2648 2759 
Q 2391 3103 1925 3103 
Q 1463 3103 1205 2759 
Q 947 2416 947 1791 
Q 947 1169 1205 825 
Q 1463 481 1925 481 
Q 2391 481 2648 825 
Q 2906 1169 2906 1791 
z
M 3481 434 
Q 3481 -459 3084 -895 
Q 2688 -1331 1869 -1331 
Q 1566 -1331 1297 -1286 
Q 1028 -1241 775 -1147 
L 775 -588 
Q 1028 -725 1275 -790 
Q 1522 -856 1778 -856 
Q 2344 -856 2625 -561 
Q 2906 -266 2906 331 
L 2906 616 
Q 2728 306 2450 153 
Q 2172 0 1784 0 
Q 1141 0 747 490 
Q 353 981 353 1791 
Q 353 2603 747 3093 
Q 1141 3584 1784 3584 
Q 2172 3584 2450 3431 
Q 2728 3278 2906 2969 
L 2906 3500 
L 3481 3500 
L 3481 434 
z
" transform="scale(0.015625)"/>
      <path id="DejaVuSans-76" d="M 191 3500 
L 800 3500 
L 1894 563 
L 2988 3500 
L 3597 3500 
L 2284 0 
L 1503 0 
L 191 3500 
z
" transform="scale(0.015625)"/>
     </defs>
     <use xlink:href="#DejaVuSans-52"/>
     <use xlink:href="#DejaVuSans-e9" x="64.982422"/>
     <use xlink:href="#DejaVuSans-73" x="126.505859"/>
     <use xlink:href="#DejaVuSans-75" x="178.605469"/>
     <use xlink:href="#DejaVuSans-6c" x="241.984375"/>
     <use xlink:href="#DejaVuSans-74" x="269.767578"/>
     <use xlink:href="#DejaVuSans-61" x="308.976562"/>
     <use xlink:href="#DejaVuSans-74" x="370.255859"/>
     <use xlink:href="#DejaVuSans-20" x="409.464844"/>
     <use xlink:href="#DejaVuSans-62" x="441.251953"/>
     <use xlink:href="#DejaVuSans-65" x="504.728516"/>
     <use xlink:href="#DejaVuSans-6e" x="566.251953"/>
     <use xlink:href="#DejaVuSans-63" x="629.630859"/>
     <use xlink:href="#DejaVuSans-68" x="684.611328"/>
     <use xlink:href="#DejaVuSans-6d" x="747.990234"/>
     <use xlink:href="#DejaVuSans-61" x="845.402344"/>
     <use xlink:href="#DejaVuSans-72" x="906.681641"/>
     <use xlink:href="#DejaVuSans-6b" x="947.794922"/>
     <use xlink:href="#DejaVuSans-20" x="1005.705078"/>
     <use xlink:href="#DejaVuSans-64" x="1037.492188"/>
     <use xlink:href="#DejaVuSans-67" x="1100.96875"/>
     <use xlink:href="#DejaVuSans-62" x="1164.445312"/>
     <use xlink:href="#DejaVuSans-73" x="1227.921875"/>
     <use xlink:href="#DejaVuSans-76" x="1280.021484"/>
    </g>
   </g>
  </g>
 </g>
 <defs>
  <clipPath id="p6656756e84">
   <rect x="57.6" y="41.472" width="357.12" height="266.112"/>
  </clipPath>
 </defs>
</svg>
